<svg width="85" height="84" fill="none" xmlns="http://www.w3.org/2000/svg"><g clip-path="url(#clip0)" stroke-miterlimit="10"><path d="M71.53 2.06H12.55C6.723 2.06 2 6.783 2 12.61v58.98c0 5.827 4.723 10.55 10.55 10.55h58.98c5.827 0 10.55-4.723 10.55-10.55V12.61c0-5.827-4.723-10.55-10.55-10.55z" fill="#1B0C00" stroke="#FF7A1B" stroke-width="4"/><path d="M51.34 59.66L45.4 42c-2-5.92-3.973-11.84-5.92-17.76a1 1 0 00-1.17-.85c-2.22.047-4.44.047-6.66 0-.67 0-.82.25-.86.85a10.081 10.081 0 01-.37 2.45c-1.66 5.19-3.37 10.31-5.05 15.49-1.907 5.84-3.813 11.677-5.72 17.51-.31 1-.25 1.07.76 1.07 1.42 0 2.85-.06 4.26 0a1.282 1.282 0 001.49-1.11c.77-2.62 1.63-5.22 2.39-7.85.23-.81.57-1.14 1.46-1.1 1.69.09 3.39 0 5.08 0h5.46c.7 0 .94.26 1.14.88.85 2.75 1.77 5.49 2.63 8.24a1.11 1.11 0 001.25.93c1.66-.05 3.33 0 5 0 1.08.01 1.12-.05.77-1.09zm-20.71-15c1.51-5.16 3-10.24 4.49-15.31 1.51 5 3 10.14 4.58 15.31h-9.07zM61.18 47.5v12.29c0 .79-.25 1-1 1-1.48-.05-3 0-4.44 0-.67 0-.9-.24-.9-.93V35.1c0-.67.19-.93.89-.91 1.51 0 3 .08 4.52 0 .77 0 .94.22.93.93-.02 4.13 0 8.26 0 12.38zM58.18 30.62a3.36 3.36 0 01-3.66-3.49 3.47 3.47 0 013.56-3.64A3.338 3.338 0 0161.69 27a3.31 3.31 0 01-3.51 3.62z" fill="#FF7A1B" stroke="#2E0100"/></g><defs><clipPath id="clip0"><path fill="#fff" d="M0 0h84.05v84H0z"/></clipPath></defs></svg>