<svg width="85" height="84" viewBox="0 0 85 84" fill="none" xmlns="http://www.w3.org/2000/svg">
<g clip-path="url(#clip0)">
<path d="M71.59 2.06006H12.57C6.75444 2.06006 2.04 6.7745 2.04 12.5901V71.6101C2.04 77.4256 6.75444 82.1401 12.57 82.1401H71.59C77.4056 82.1401 82.12 77.4256 82.12 71.6101V12.5901C82.12 6.7745 77.4056 2.06006 71.59 2.06006Z" fill="#1B74B9" stroke="white" stroke-width="4" stroke-miterlimit="10"/>
<path d="M42.6 64.4L37 62.83L32.06 61.47C30.13 60.94 28.2 60.4 26.26 59.88C26.04 59.82 25.93 59.76 25.91 59.5C25.79 57.9 25.63 56.29 25.49 54.69C25.39 53.47 25.32 52.24 25.22 51.02C25.12 49.8 25 48.64 24.88 47.42H32.69C32.77 48.12 32.85 48.83 32.94 49.55L33.27 52.21C33.2965 52.6104 33.3533 53.0082 33.44 53.4C36.12 54.09 38.79 54.8 41.44 55.4C41.9256 55.4289 42.4126 55.3748 42.88 55.24L46.14 54.64L51 53.73C51.1 53.13 51.16 52.52 51.21 51.91C51.26 51.3 51.33 50.54 51.4 49.91C51.51 48.91 51.62 47.82 51.74 46.77C51.82 46.03 51.91 45.3 51.98 44.56C52.03 44.1 52.05 43.64 52.08 43.17H42.6H39.43H24.56L23.49 35.7L42.17 27.6H41.61C35.61 27.6 29.61 27.6 23.61 27.6C23.22 27.6 23.12 27.47 23.08 27.09C22.97 26.09 22.8 25.09 22.66 24.09C22.56 23.37 22.49 22.65 22.39 21.93C22.29 21.21 22.16 20.46 22.05 19.73H61.68H62.12C62.12 22.32 62.12 24.86 62.12 27.41L57.45 29.34L50.56 32.2L45.42 34.3C44.87 34.52 44.32 34.77 43.77 35V35.08H60.63C60.64 35.2565 60.64 35.4335 60.63 35.61C60.55 36.61 60.46 37.52 60.38 38.47C60.32 39.21 60.27 39.95 60.2 40.69C60.09 41.86 59.97 43.02 59.87 44.19C59.77 45.36 59.69 46.49 59.59 47.64C59.49 48.79 59.36 49.96 59.26 51.13C59.19 51.96 59.15 52.79 59.07 53.61C58.97 54.73 58.84 55.85 58.74 56.97C58.67 57.73 58.63 58.49 58.55 59.24C58.5316 59.301 58.4995 59.357 58.4561 59.4038C58.4128 59.4506 58.3594 59.4869 58.3 59.51C56.22 60.17 54.14 60.8 52.06 61.45L42.6 64.4Z" fill="#FEFEFE"/>
</g>
<defs>
<clipPath id="clip0">
<rect width="84.13" height="84" fill="white"/>
</clipPath>
</defs>
</svg>
