<svg width="85" height="84" viewBox="0 0 85 84" fill="none" xmlns="http://www.w3.org/2000/svg">
<g clip-path="url(#clip0)">
<path d="M19.9 12.66L18.63 14.05L19.9 12.66Z" fill="#7C2B2B"/>
<path d="M18.07 14.9399L17.74 15.5599L18.07 14.9399Z" fill="#7C2B2B"/>
<path d="M20.76 12L20.39 12.27L20.76 12Z" fill="#7C2B2B"/>
<path d="M20.43 12.22L20.02 12.56L20.43 12.22Z" fill="#7C2B2B"/>
<path d="M71.4 2.06006H12.72C6.81055 2.06006 2.02 6.85061 2.02 12.7601V71.4401C2.02 77.3495 6.81055 82.1401 12.72 82.1401H71.4C77.3095 82.1401 82.1 77.3495 82.1 71.4401V12.7601C82.1 6.85061 77.3095 2.06006 71.4 2.06006Z" fill="#D04A46" stroke="#FCF8F7" stroke-width="4" stroke-miterlimit="10"/>
<path d="M51.17 44.89L52.28 44.09C52.16 45.09 52.06 45.98 51.96 46.86C51.71 49.02 51.49 51.19 51.18 53.34C51.1443 53.5532 51.0587 53.755 50.93 53.9288C50.8014 54.1026 50.6335 54.2435 50.44 54.34C48.3208 54.8825 46.17 55.2933 44 55.57C40.5765 55.9235 37.1168 55.5625 33.84 54.51C33.4861 54.4482 33.1658 54.2622 32.9367 53.9854C32.7076 53.7086 32.5846 53.3592 32.59 53C32.44 50.59 32.2 48.18 32 45.76C33.57 46.18 34.4 44.98 35.45 44.24C35.38 45.24 34.63 46.17 35.09 47.59C35.3833 47.289 35.6386 46.9532 35.85 46.59C36.45 44.82 37 43.03 37.56 41.25C37.6564 40.9912 37.7006 40.7159 37.69 40.44C37.6135 40.207 37.4949 39.9901 37.34 39.8C37.12 39.94 36.83 40.02 36.71 40.22C36.5399 40.5792 36.4059 40.9543 36.31 41.34C35.9929 42.1345 35.5224 42.8588 34.9253 43.4713C34.3282 44.0839 33.6162 44.5728 32.83 44.91C32.4716 43.9771 32.4468 42.949 32.76 42C33.1949 40.2036 34.1191 38.5629 35.43 37.26C36.43 36.32 36.92 36.41 37.7 37.51C37.85 37.71 38.2 37.78 38.46 37.91C38.53 37.57 38.72 37.19 38.63 36.91C38.5253 36.6458 38.3695 36.4048 38.1715 36.2009C37.9735 35.997 37.7372 35.8342 37.4761 35.7217C37.2151 35.6093 36.9344 35.5496 36.6502 35.5458C36.366 35.5421 36.0839 35.5945 35.82 35.7C34.3203 36.4409 33.1304 37.6875 32.46 39.22C32.13 39.82 31.88 40.47 31.46 41.29L30.13 28.62C37.9972 30.1051 46.0728 30.1051 53.94 28.62C53.54 32.5 53.12 36.48 52.71 40.45L52.66 41.19L52.5 42.11V44.55H49.65C50.2653 43.7532 50.8394 42.9255 51.37 42.07C51.55 41.74 51.54 40.99 51.37 40.85C50.9423 40.6064 50.4369 40.5383 49.96 40.66C49.5274 40.8421 49.1285 41.0957 48.78 41.41L48.24 40.75C48.0263 40.8877 47.8371 41.0601 47.68 41.26C47.5296 41.5576 47.3993 41.865 47.29 42.18C47.0049 42.7211 46.6121 43.1981 46.1357 43.5816C45.6593 43.9651 45.1095 44.247 44.52 44.41C44.7453 43.4377 45.0565 42.4873 45.45 41.57C46.03 40.13 46.66 38.7 47.23 37.24C47.31 37.02 47.14 36.71 47.09 36.43C46.8031 36.5123 46.5301 36.6371 46.28 36.8C46.1136 37.0199 45.9944 37.2718 45.93 37.54C45.14 39.54 44.36 41.54 43.56 43.61C43.5109 43.7756 43.428 43.9292 43.3165 44.0611C43.2051 44.193 43.0675 44.3004 42.9125 44.3765C42.7574 44.4526 42.5883 44.4958 42.4158 44.5033C42.2432 44.5107 42.071 44.4824 41.91 44.42C42.24 43.52 42.56 42.71 42.82 41.88C42.96 41.44 43.49 40.88 42.74 40.57C42.62 40.52 42.17 41.18 41.92 41.57C41.3 42.46 40.72 43.38 40.07 44.25C39.97 44.39 39.64 44.37 39.42 44.42C39.36 44.17 39.2 43.88 39.27 43.68C39.54 42.93 39.92 42.23 40.19 41.48C40.2396 41.1888 40.2396 40.8912 40.19 40.6C39.89 40.73 39.42 40.79 39.32 41.01C38.845 42.0367 38.444 43.0961 38.12 44.18C38.0638 44.4014 38.0589 44.6327 38.1057 44.8562C38.1525 45.0798 38.2497 45.2897 38.39 45.47C38.5993 45.5812 38.8305 45.6451 39.0672 45.6572C39.3039 45.6693 39.5404 45.6293 39.76 45.54C40.2878 45.2659 40.7812 44.9302 41.23 44.54C41.23 45.91 41.62 46.01 43.35 45.11C43.4339 45.2553 43.5477 45.3812 43.6837 45.4794C43.8197 45.5777 43.975 45.646 44.1393 45.68C44.3036 45.714 44.4733 45.7129 44.6371 45.6767C44.801 45.6405 44.9553 45.5701 45.09 45.47C45.38 45.31 45.66 45.11 45.94 44.93L46.11 45.1C45.68 46.1 45.23 47.1 44.85 48.1C44.77 48.32 44.95 48.64 45.02 48.91C45.3 48.8 45.7 48.77 45.85 48.56C46.0884 48.132 46.2795 47.6793 46.42 47.21C47.13 45.46 47.65 43.59 49.1 42.21C49.4802 41.9305 49.8892 41.6924 50.32 41.5L50.52 41.77C50.34 42.04 50.17 42.32 49.97 42.58C49.57 43.12 49.11 43.58 48.76 44.2C48.59 44.47 48.46 44.99 48.61 45.2C48.7318 45.3421 48.8868 45.452 49.0612 45.52C49.2356 45.5881 49.4241 45.6121 49.61 45.59C50.1537 45.4136 50.6768 45.1789 51.17 44.89Z" fill="#FEFCFC"/>
<path d="M33.5 55C39.0459 56.6547 44.9541 56.6547 50.5 55C50.411 55.2412 50.2971 55.4725 50.16 55.69C49.2906 56.9512 48.8811 58.4728 49 60C48.93 61.75 48.75 63.49 48.72 65.23C48.7444 65.6294 48.6183 66.0234 48.3666 66.3344C48.1148 66.6454 47.7557 66.8507 47.36 66.91C45.0848 67.5467 42.7103 67.7502 40.36 67.51C39.1753 67.3839 37.9996 67.1835 36.84 66.91C36.4118 66.8572 36.0209 66.6398 35.7503 66.3038C35.4796 65.9678 35.3504 65.5396 35.39 65.11C35.33 63.11 35.06 61.19 35.03 59.23C34.9597 58.0091 34.5512 56.8319 33.85 55.83C33.7104 55.5636 33.5933 55.2859 33.5 55Z" fill="#FEFCFC"/>
<path d="M30 27.19C30.8259 26.8613 31.6839 26.62 32.56 26.47C37.76 26.07 42.98 25.78 48.19 25.73C44.44 25.08 45.19 24.73 45.19 24.27C45.38 20.68 48.13 18.72 50.27 16.38C50.91 15.67 51.6 15.02 52.27 14.31C52.94 13.6 53.27 14.05 53.65 14.46C54.03 14.87 54.36 15.21 53.77 15.8C51.89 17.69 50.07 19.64 48.27 21.61C47.7998 23.0009 47.419 24.4205 47.13 25.86C49.54 26.29 52.03 26.07 54.18 27.3V27.66C53.5751 27.9513 52.9418 28.1791 52.29 28.34C50.14 28.64 47.98 28.93 45.81 29.06C41.3691 29.3505 36.9098 29.1594 32.51 28.49C31.641 28.2969 30.7858 28.0463 29.95 27.74L30 27.19Z" fill="#FEF9FA"/>
<path d="M35.3 44.31L35.48 44.2L35.42 44.43L35.3 44.31Z" fill="#FEFCFC"/>
<path d="M32 45.82V45.71H32.16L32 45.82Z" fill="#FEFCFC"/>
<path d="M33.5 55L33.41 55.06V55H33.49H33.5Z" fill="#FEFCFC"/>
<path d="M45.89 44.94L46.15 44.75L46.06 45.11L45.89 44.94Z" fill="#FEFCFC"/>
</g>
<defs>
<clipPath id="clip0">
<rect width="84.09" height="84" fill="white"/>
</clipPath>
</defs>
</svg>
