<svg width="85" height="84" viewBox="0 0 85 84" fill="none" xmlns="http://www.w3.org/2000/svg">
<g clip-path="url(#clip0)">
<path d="M71.61 2.06006H12.53C6.73101 2.06006 2.03 6.76107 2.03 12.5601V71.6401C2.03 77.439 6.73101 82.1401 12.53 82.1401H71.61C77.409 82.1401 82.11 77.439 82.11 71.6401V12.5601C82.11 6.76107 77.409 2.06006 71.61 2.06006Z" fill="#E34D26" stroke="white" stroke-width="4" stroke-miterlimit="10"/>
<path d="M42.1 43.7001H23.66C22.92 35.4001 22.18 27.1 21.44 18.8H41.82H42.1C42.074 18.9522 42.0573 19.1058 42.05 19.26V26.63C42.0568 26.7611 42.0735 26.8915 42.1 27.0201H30.63H30.44L31.19 35.44H42.05V43.2901C42.05 43.42 42.05 43.54 42.05 43.66L42.1 43.7001Z" fill="#EBEAEB"/>
<path d="M42.13 65.4101L39.2 64.6101L30.97 62.3301L25.41 60.7901C25.24 60.7901 25.2 60.6601 25.19 60.5001C25.07 59.2201 24.96 57.9301 24.84 56.6401C24.68 54.8201 24.52 52.9901 24.35 51.1701C24.26 50.0801 24.16 49.0001 24.06 47.9101C24.06 47.9101 24.06 47.8501 24.06 47.8101H32.3C32.3 48.3101 32.39 48.8101 32.43 49.2901C32.58 50.9101 32.72 52.5401 32.86 54.1601C32.8564 54.2202 32.8746 54.2797 32.9114 54.3274C32.9481 54.3752 33.0009 54.4081 33.06 54.4201C36 55.2201 39 56.0001 41.89 56.8201H42.1C42.1 56.9501 42.1 57.0801 42.1 57.2101V65.0801C42.0916 65.191 42.1017 65.3025 42.13 65.4101Z" fill="#EBEAEB"/>
<path d="M42.09 56.86L47.16 55.48C48.47 55.13 49.78 54.77 51.1 54.48C51.25 54.48 51.27 54.35 51.28 54.23C51.35 53.48 51.41 52.74 51.48 51.99C51.61 50.5 51.75 48.99 51.88 47.51L52.18 44.12C52.18 44 52.18 43.89 52.18 43.74H42.09C42.09 43.62 42.09 43.5 42.09 43.37V35.46H42.14H61.22C61.16 36.19 61.09 36.89 61.03 37.59C60.9 39.09 60.77 40.59 60.63 42.09L60.18 47.09C60.03 48.72 59.89 50.35 59.75 51.99L59.3 56.99C59.19 58.19 59.08 59.38 58.98 60.57C58.98 60.74 58.91 60.8 58.75 60.85L49.33 63.45L42.33 65.45H42.17C42.1289 65.3579 42.1019 65.2601 42.09 65.16V57.25C42.05 57.12 42.08 57 42.09 56.86Z" fill="#FEFEFE"/>
<path d="M42.1 27C42.0735 26.8715 42.0568 26.7411 42.05 26.61V19.24C42.0573 19.0858 42.074 18.9322 42.1 18.78H62.71L62 27H42.1Z" fill="#FEFEFE"/>
</g>
<defs>
<clipPath id="clip0">
<rect width="84.06" height="84" fill="white"/>
</clipPath>
</defs>
</svg>
