<svg width="85" height="84" viewBox="0 0 85 84" fill="none" xmlns="http://www.w3.org/2000/svg">
<g clip-path="url(#clip0)">
<path d="M71.81 2.06006H12.45C6.72833 2.06006 2.09 6.69839 2.09 12.4201V71.7801C2.09 77.5017 6.72833 82.1401 12.45 82.1401H71.81C77.5317 82.1401 82.17 77.5017 82.17 71.7801V12.4201C82.17 6.69839 77.5317 2.06006 71.81 2.06006Z" fill="#260013" stroke="#FE418B" stroke-width="4" stroke-miterlimit="10"/>
<path d="M58.49 57.0699C58.49 46.2833 58.49 35.4899 58.49 24.6899V23.8199C56.78 23.8199 55.16 23.8199 53.54 23.8199C52.75 23.8199 52.49 24.0299 52.54 24.8199C52.54 27.4599 52.54 30.1099 52.54 32.8899H50.87C49.3411 32.8362 47.8139 33.0355 46.35 33.4799C41.9 34.8699 39.23 37.9599 37.87 42.2799C37.3622 44.0114 37.1824 45.8225 37.34 47.6199C37.57 51.5099 38.48 55.0999 42.09 58.1399C42.3522 58.3625 42.6371 58.5569 42.94 58.7199C45.5743 60.1337 48.5854 60.6863 51.55 60.2999C53.8327 60.0674 56.0639 59.4733 58.16 58.5399C58.75 58.2699 58.7 57.8999 58.49 57.0699ZM52.49 46.4799C52.49 48.9999 52.49 51.4799 52.49 54.0199C52.49 54.5599 52.39 54.7799 51.78 54.9599C50.3367 55.3718 48.7939 55.2558 47.4285 54.6327C46.0631 54.0095 44.9645 52.9201 44.33 51.5599C43.4334 49.4129 43.1295 47.0645 43.45 44.7599C43.6409 42.9962 44.3706 41.3341 45.54 39.9999C46.0727 39.3809 46.7262 38.8771 47.4604 38.5194C48.1946 38.1618 48.9942 37.9578 49.81 37.9199C50.5 37.9199 51.21 38.0499 51.9 38.0399C52.59 38.0299 52.53 38.3199 52.52 38.7799C52.51 41.3499 52.52 43.9199 52.52 46.4799H52.49Z" fill="#FE418B"/>
<path d="M31.54 41.93C31.54 47.62 31.54 53.31 31.54 59C31.54 59.74 31.31 59.94 30.6 59.91C29.29 59.91 27.97 59.91 26.66 59.91C25.66 59.91 25.66 59.91 25.61 58.85C25.61 57.01 25.61 55.18 25.61 53.34V23.86C27.31 23.81 29.01 23.86 30.71 23.86C31.39 23.86 31.54 24.1 31.54 24.73C31.53 30.44 31.54 36.18 31.54 41.93Z" fill="#FE418B"/>
</g>
<defs>
<clipPath id="clip0">
<rect width="84.16" height="84" fill="white"/>
</clipPath>
</defs>
</svg>
