<svg width="85" height="84" viewBox="0 0 85 84" fill="none" xmlns="http://www.w3.org/2000/svg">
<g clip-path="url(#clip0)">
<path d="M71.74 2.06006H12.38C6.65833 2.06006 2.02 6.69839 2.02 12.4201V71.7801C2.02 77.5017 6.65833 82.1401 12.38 82.1401H71.74C77.4617 82.1401 82.1 77.5017 82.1 71.7801V12.4201C82.1 6.69839 77.4617 2.06006 71.74 2.06006Z" fill="#F3DD19" stroke="white" stroke-width="4" stroke-miterlimit="10"/>
<path d="M63 31.06L58 34.32C57.7 33.9 57.44 33.46 57.12 33.08C56.6247 32.4303 55.9423 31.9479 55.1646 31.6976C54.3869 31.4474 53.5513 31.4412 52.77 31.68C52.2737 31.7724 51.817 32.013 51.46 32.3699C51.103 32.7269 50.8624 33.1836 50.77 33.68C50.617 34.2146 50.6215 34.782 50.7829 35.3141C50.9443 35.8462 51.2558 36.3205 51.68 36.68C52.3311 37.2082 53.0553 37.6394 53.83 37.96C55.28 38.61 56.74 39.23 58.18 39.9C59.5619 40.5267 60.8507 41.341 62.01 42.32C63.5705 43.6256 64.5898 45.4647 64.87 47.48C65.147 49.1184 65.0235 50.7996 64.51 52.38C64.1229 53.4922 63.501 54.5081 62.6866 55.3587C61.8722 56.2093 60.8843 56.8748 59.79 57.31C58.2705 57.9419 56.6454 58.2812 55 58.31C53.0228 58.4166 51.0423 58.1728 49.15 57.59C47.6612 57.1068 46.2825 56.3342 45.0932 55.3165C43.904 54.2989 42.9275 53.0562 42.22 51.66L47.46 48.66C47.95 49.28 48.39 49.91 48.9 50.47C49.6227 51.254 50.523 51.853 51.5254 52.2167C52.5277 52.5804 53.6027 52.6981 54.66 52.56C55.5014 52.5028 56.3156 52.2383 57.03 51.79C57.4186 51.5335 57.7421 51.1902 57.975 50.7871C58.2079 50.3839 58.3439 49.9322 58.372 49.4674C58.4001 49.0027 58.3197 48.5379 58.1371 48.1096C57.9545 47.6813 57.6748 47.3014 57.32 47C56.4963 46.3657 55.5874 45.8507 54.62 45.47C53.14 44.8 51.62 44.17 50.16 43.47C48.819 42.8346 47.6004 41.968 46.56 40.91C45.3145 39.6104 44.5188 37.9454 44.29 36.16C44.0272 34.5644 44.1822 32.9278 44.74 31.41C45.1778 30.2581 45.8701 29.2201 46.7654 28.3733C47.6606 27.5266 48.7356 26.893 49.91 26.52C51.5176 25.9787 53.2218 25.7844 54.91 25.95C56.2589 26.0304 57.5796 26.3699 58.8 26.95C60.1953 27.6392 61.3927 28.6715 62.28 29.95C62.52 30.26 62.76 30.65 63 31.06Z" fill="black"/>
<path d="M32.08 49.45L32.13 49.29C32.13 48.92 32.13 48.55 32.13 48.18C32.13 40.8467 32.13 33.5333 32.13 26.24H38.7V48.56C38.7 48.64 38.7 48.72 38.7 48.8V49.18L38.65 49.79C38.5498 51.179 38.1867 52.5364 37.58 53.79C37.064 54.8153 36.3274 55.7138 35.4232 56.4209C34.519 57.128 33.4695 57.6263 32.35 57.88C29.8574 58.557 27.2181 58.4629 24.78 57.61C22.6759 56.8493 20.9061 55.3733 19.78 53.44C19.68 53.27 19.57 53.1 19.48 52.92C19.39 52.74 19.29 52.56 19.19 52.35L24.47 49.15C24.86 49.75 25.23 50.35 25.64 50.92C26.1854 51.6493 26.9633 52.1707 27.8451 52.398C28.727 52.6253 29.66 52.5449 30.49 52.17C30.8733 52.0052 31.211 51.7498 31.474 51.4259C31.737 51.1019 31.9175 50.719 32 50.31C32.05 50.1 32.07 49.88 32.11 49.67L32.08 49.45Z" fill="black"/>
<path d="M32.19 26.24C32.19 33.5733 32.19 40.8867 32.19 48.18C32.19 48.55 32.19 48.92 32.19 49.29C32.1802 49.1835 32.1802 49.0764 32.19 48.97C32.19 41.5033 32.19 34.0367 32.19 26.57C32.1717 26.4607 32.1717 26.3492 32.19 26.24Z" fill="#FEF621"/>
<path d="M38.71 48.8C38.71 48.72 38.71 48.64 38.71 48.56V26.24C38.7598 26.3347 38.7967 26.4356 38.82 26.54V48.44C38.7975 48.5639 38.7606 48.6847 38.71 48.8Z" fill="#FEED20"/>
<path d="M38.7 26.23H32.19C32.27 26.23 32.36 26.13 32.44 26.13H38.44C38.54 26.13 38.62 26.2 38.7 26.23Z" fill="#FEF320"/>
<path d="M38.66 49.7901L38.71 49.1801C38.7594 49.2763 38.7808 49.3844 38.772 49.4922C38.7632 49.6 38.7244 49.7032 38.66 49.7901Z" fill="#FEED20"/>
<path d="M38.71 49V48.89L38.78 48.94L38.71 49Z" fill="#FEED20"/>
</g>
<defs>
<clipPath id="clip0">
<rect width="84.13" height="84" fill="white"/>
</clipPath>
</defs>
</svg>
