<svg width="85" height="84" viewBox="0 0 85 84" fill="none" xmlns="http://www.w3.org/2000/svg">
<g clip-path="url(#clip0)">
<path d="M12.6 2.06006H71.24C72.6754 2.06137 74.0964 2.34538 75.422 2.89588C76.7476 3.44638 77.9518 4.25258 78.9658 5.26845C79.9798 6.28432 80.7838 7.48998 81.3318 8.81657C81.8799 10.1432 82.1613 11.5647 82.16 13.0001V71.2101C82.16 74.1071 81.0098 76.8857 78.9622 78.9352C76.9146 80.9847 74.1371 82.1374 71.24 82.1401H13C10.1029 82.1374 7.32541 80.9847 5.2778 78.9352C3.23019 76.8857 2.08002 74.1071 2.08002 71.2101V12.5801C2.08002 9.78998 3.18837 7.11418 5.16125 5.1413C7.13414 3.16841 9.80994 2.06006 12.6 2.06006Z" fill="#001D26" stroke="#00C7FE" stroke-width="4" stroke-miterlimit="10"/>
<path d="M42.73 31.0001C42.4141 29.7305 41.8364 28.541 41.0339 27.5077C40.2314 26.4745 39.2219 25.6203 38.07 25.0001C36.1769 23.9645 34.0577 23.4116 31.9 23.3901C28.28 23.3401 24.65 23.4501 21.02 23.5001V60.2801C23.02 60.2801 24.96 60.2801 26.93 60.2801V47.0001H27.36C27.97 47.0001 28.59 47.0001 29.2 47.0001C33.27 47.0501 37.2 46.2101 40.58 43.0601C40.9267 42.7573 41.2207 42.3991 41.45 42.0001C43.3173 38.6478 43.7777 34.6915 42.73 31.0001ZM36.86 37.8101C36.5906 38.603 36.139 39.3218 35.5416 39.9088C34.9442 40.4958 34.2176 40.9346 33.42 41.1901C31.987 41.6485 30.4824 41.8417 28.98 41.76H27V28.7601C29.19 28.7001 31.37 28.4201 33.49 29.1701C34.516 29.4987 35.4194 30.1285 36.0829 30.9773C36.7463 31.8262 37.139 32.855 37.21 33.9301C37.3947 35.2264 37.2749 36.548 36.86 37.7901V37.8101Z" fill="#00C7FE"/>
<path d="M46.5 56.41C46.5 55.62 46.5 54.82 46.5 54.03C46.5236 53.8738 46.5708 53.7221 46.64 53.58C46.7708 53.6145 46.8981 53.6614 47.02 53.72C49.1098 55.0396 51.5503 55.6951 54.02 55.6C54.845 55.6325 55.6616 55.424 56.37 55C56.6509 54.8021 56.8855 54.5458 57.0579 54.2485C57.2303 53.9513 57.3363 53.6203 57.3686 53.2783C57.4009 52.9362 57.3587 52.5912 57.2451 52.267C57.1314 51.9428 56.9488 51.647 56.71 51.4C56.0298 50.6923 55.2354 50.1041 54.36 49.66C53.27 49.05 52.14 48.49 51.06 47.86C49.5384 47.07 48.27 45.8674 47.4 44.39C46.8829 43.4405 46.5714 42.3928 46.4855 41.315C46.3997 40.2372 46.5415 39.1534 46.9017 38.134C47.262 37.1146 47.8326 36.1823 48.5765 35.3978C49.3205 34.6132 50.2211 33.9939 51.22 33.58C52.8651 32.913 54.6377 32.6193 56.41 32.72C57.7996 32.7313 59.1828 32.9092 60.53 33.25C60.85 33.33 61.17 33.45 61.53 33.55C61.71 33.5972 61.8664 33.7088 61.9696 33.8636C62.0728 34.0184 62.1157 34.2057 62.09 34.39V35.82C62.09 37.06 62.09 38.29 62.09 39.52C59.8365 38.0496 57.1197 37.4621 54.46 37.87C53.9154 37.9493 53.407 38.1896 53 38.56C52.762 38.7592 52.5697 39.0073 52.4362 39.2875C52.3027 39.5676 52.2311 39.8733 52.2264 40.1836C52.2216 40.4939 52.2838 40.8016 52.4087 41.0857C52.5336 41.3698 52.7182 41.6237 52.95 41.83C53.6999 42.5161 54.5412 43.0949 55.45 43.55C56.77 44.28 58.12 44.97 59.39 45.78C60.6513 46.4913 61.6818 47.5498 62.359 48.8297C63.0362 50.1096 63.3316 51.5571 63.21 53C63.1652 54.8641 62.4313 56.6454 61.15 58C60.0871 59.0716 58.7584 59.8413 57.3 60.23C55.0995 60.7863 52.8068 60.8749 50.57 60.49C50.1452 60.4326 49.7267 60.3355 49.32 60.2C47.51 59.6 46.32 59.58 46.49 58.3C46.5256 57.6706 46.5289 57.0398 46.5 56.41Z" fill="#00C7FD"/>
</g>
<defs>
<clipPath id="clip0">
<rect width="84.17" height="84" fill="white"/>
</clipPath>
</defs>
</svg>
