<svg width="85" height="84" viewBox="0 0 85 84" fill="none" xmlns="http://www.w3.org/2000/svg">
<g clip-path="url(#clip0)">
<path d="M71.54 2.06006H12.56C6.7334 2.06006 2.01 6.78345 2.01 12.6101V71.5901C2.01 77.4167 6.7334 82.1401 12.56 82.1401H71.54C77.3666 82.1401 82.09 77.4167 82.09 71.5901V12.6101C82.09 6.78345 77.3666 2.06006 71.54 2.06006Z" fill="#002031" stroke="#3C99D2" stroke-width="4" stroke-miterlimit="10"/>
<path d="M51.43 19.52C51.9318 19.1192 52.5714 18.9324 53.21 19C53.6598 19.0561 54.0945 19.1987 54.49 19.42C55.05 19.72 55.62 19.98 56.19 20.26C56.59 20.46 57 20.67 57.41 20.86C57.82 21.05 58.46 21.36 58.99 21.61L60.29 22.25L61.61 22.87L63.78 23.92C64.1445 24.0629 64.4825 24.2657 64.78 24.52C65.1275 24.8306 65.3393 25.265 65.37 25.73C65.37 26.09 65.37 26.45 65.37 26.81V57.48C65.4268 57.9701 65.328 58.4656 65.0875 58.8964C64.847 59.3272 64.477 59.6713 64.03 59.88L56.9 63.42L53.51 65.1C53.2308 65.2288 52.9139 65.2502 52.62 65.16C52.2293 65.0592 51.8797 64.8389 51.62 64.53C51.6832 64.525 51.7468 64.525 51.81 64.53C52.2166 64.5787 52.6287 64.5129 53 64.34C53.2412 64.2107 53.4418 64.0169 53.5795 63.7804C53.7172 63.5438 53.7866 63.2737 53.78 63V31.3C53.78 27.97 53.78 24.65 53.78 21.3C53.7902 20.9285 53.6968 20.5614 53.51 20.24C53.4349 20.0644 53.3258 19.9054 53.189 19.772C53.0522 19.6387 52.8904 19.5337 52.7129 19.4631C52.5355 19.3925 52.3458 19.3576 52.1548 19.3605C51.9638 19.3634 51.7752 19.404 51.6 19.48C51.5446 19.4983 51.4877 19.5117 51.43 19.52Z" fill="#3C99D2"/>
<path d="M53.78 52.41V63C53.7866 63.2736 53.7172 63.5438 53.5795 63.7803C53.4418 64.0169 53.2412 64.2106 53 64.34C52.6139 64.5223 52.183 64.5884 51.76 64.53C51.6968 64.525 51.6332 64.525 51.57 64.53L46.01 59.53L37.92 52.18L32.83 47.57L32.72 47.48C32.6932 47.4377 32.6631 47.3975 32.63 47.36L31.76 46.58L30 44.91L27.45 42.6C27.21 42.38 26.95 42.17 26.7 41.96L23.7 39.23L19.26 35.23C19.0145 35.0404 18.8246 34.7882 18.71 34.5C18.6762 34.4033 18.6641 34.3003 18.6744 34.1983C18.6848 34.0964 18.7174 33.998 18.77 33.91C18.8915 33.6905 19.0468 33.4914 19.23 33.32C20.35 32.32 21.49 31.32 22.62 30.32C22.8402 30.1051 23.1247 29.9681 23.43 29.93C23.7492 29.8973 24.0686 29.9906 24.32 30.19L32.07 36L32.73 36.51L34.65 38L36.83 39.67L39.64 41.79C39.76 41.88 39.9 41.96 40.03 42.04L40.12 42.14L42.52 43.95L52.41 51.44L53.78 52.41Z" fill="#2389CA"/>
<path d="M40 42.0001C39.87 41.9201 39.73 41.8401 39.61 41.7501L36.8 39.6301L34.65 38.0001L32.73 36.5001L33.73 35.6301L40.29 29.6301L47.29 23.2201L51.01 19.8401L51.39 19.4901C51.4499 19.4955 51.5101 19.4955 51.57 19.4901C51.7452 19.4141 51.9338 19.3734 52.1248 19.3705C52.3158 19.3676 52.5055 19.4025 52.6829 19.4731C52.8604 19.5437 53.0222 19.6487 53.159 19.782C53.2958 19.9154 53.4049 20.0744 53.48 20.2501C53.6667 20.5714 53.7602 20.9385 53.75 21.3101C53.75 24.6401 53.75 27.9601 53.75 31.3101V31.5201L53.64 31.5901L52.02 32.8301L46.26 37.2201L40 42.0001Z" fill="#0876B9"/>
<path d="M26.7 42C26.95 42.21 27.21 42.42 27.45 42.64L30 44.91L31.77 46.54L32.64 47.32C32.6731 47.3575 32.7032 47.3977 32.73 47.44C31.84 48.13 30.94 48.81 30.04 49.49L24.63 53.6C24.2957 53.8686 23.8788 54.0135 23.45 54.01C23.169 53.9914 22.9035 53.8746 22.7 53.68L19.49 50.76C19.2404 50.5621 19.0358 50.3132 18.89 50.03C18.7988 49.8383 18.771 49.6226 18.8105 49.4141C18.8501 49.2055 18.955 49.015 19.11 48.87L23.44 44.94L26.58 42.08L26.7 42Z" fill="#106FB1"/>
</g>
<defs>
<clipPath id="clip0">
<rect width="84.09" height="84" fill="white"/>
</clipPath>
</defs>
</svg>
