<svg width="85" height="84" viewBox="0 0 85 84" fill="none" xmlns="http://www.w3.org/2000/svg">
<g clip-path="url(#clip0)">
<path d="M71.57 2.06006H12.59C6.76339 2.06006 2.03999 6.78345 2.03999 12.6101V71.5901C2.03999 77.4167 6.76339 82.1401 12.59 82.1401H71.57C77.3966 82.1401 82.12 77.4167 82.12 71.5901V12.6101C82.12 6.78345 77.3966 2.06006 71.57 2.06006Z" fill="#2E001E" stroke="#FE2BC2" stroke-width="4" stroke-miterlimit="10"/>
<path d="M63.13 55.53C63.1098 55.4411 63.1098 55.3489 63.13 55.26C63.13 54.42 63.13 53.58 63.13 52.75C63.13 44.2033 63.13 35.6567 63.13 27.11C63.13 26.5 62.91 26.45 61.91 26.59C60.8781 26.73 59.8319 26.73 58.8 26.59C58.11 26.5 57.93 26.59 57.93 27.12C57.93 28.97 57.93 30.82 57.93 32.66V34.17C56.0817 34.2358 54.2403 34.4329 52.42 34.76C52.1443 34.8191 51.8784 34.9167 51.63 35.05C49.7562 35.9608 48.1642 37.3622 47.0232 39.1054C45.8823 40.8486 45.2349 42.8683 45.15 44.95C44.966 46.8716 45.1562 48.8107 45.71 50.66C46.1472 52.1819 46.931 53.5818 48 54.75C48.9349 55.6998 50.0494 56.4542 51.2786 56.9692C52.5079 57.4843 53.8272 57.7497 55.16 57.75C56.2212 57.7325 57.2801 57.6457 58.33 57.49C59.8973 57.2875 61.4228 56.8387 62.85 56.16C63.12 56 63.28 55.85 63.13 55.53ZM57.86 45.82V52.12C57.86 52.96 57.86 52.98 57.07 53.12C55.8426 53.3851 54.5618 53.2338 53.43 52.69C52.7722 52.3576 52.1902 51.893 51.7204 51.3251C51.2506 50.7572 50.9032 50.0984 50.7 49.39C50.2182 47.9316 50.0546 46.3869 50.22 44.86C50.45 42.16 51.43 39.7 54.73 38.54C57.53 38.54 57.87 38.48 57.87 39.13C57.86 41.37 57.86 43.6 57.86 45.82Z" fill="#FD2BC2"/>
<path d="M32.3 38.23C32.57 37.64 32.8 37.15 33.02 36.66C34.14 34.25 35.26 31.83 36.37 29.42C36.74 28.62 37.13 27.83 37.49 27.02C37.85 26.21 38.38 26.32 40.34 27.1C42.44 26.4 42.19 26.48 42.96 26.54C42.9056 26.7452 42.8354 26.9457 42.75 27.14C41.39 29.72 40.02 32.3 38.67 34.89C37.93 36.3 37.22 37.73 36.5 39.14C36.1 39.91 35.69 40.67 35.31 41.44C36.85 44.48 38.4133 47.51 40 50.53C41.19 52.84 42.4 55.13 43.6 57.43H38.32C38.1485 57.4496 37.9754 57.4109 37.8285 57.3202C37.6816 57.2295 37.5694 57.0921 37.51 56.93C36.72 55.25 35.9 53.58 35.1 51.93C34.1 49.93 33.21 47.93 32.26 45.93C32.16 45.71 32.03 45.51 31.91 45.3C30.72 47.91 29.55 50.51 28.35 53.1C27.69 54.54 26.99 55.96 26.35 57.4C24.73 57.4 23.11 57.4 21.49 57.4C20.92 57.4 20.87 57.32 21.14 56.8L24.68 50L28.12 43.29C28.2373 43.0523 28.3745 42.8248 28.53 42.61C28.6671 42.4079 28.7405 42.1693 28.7405 41.925C28.7405 41.6808 28.6671 41.4422 28.53 41.24C26.87 38 25.24 34.74 23.59 31.5C22.82 29.97 22.02 28.5 21.24 26.93C21.05 26.56 21.35 26.54 21.58 26.53C22.09 26.53 22.58 26.53 23.1 26.53C24.33 26.53 25.55 26.53 26.78 26.53C28.4 29.9834 30.0233 33.4334 31.65 36.88C31.85 37.26 32 37.68 32.3 38.23Z" fill="#FD2AC1"/>
</g>
<defs>
<clipPath id="clip0">
<rect width="84.09" height="84" fill="white"/>
</clipPath>
</defs>
</svg>
