<svg width="69" height="51" viewBox="0 0 69 51" fill="none" xmlns="http://www.w3.org/2000/svg">
<path d="M60.09 0H8.65C6.35669 0.00264664 4.15807 0.914833 2.53645 2.53645C0.914833 4.15807 0.00264664 6.35669 0 8.65V42C0.00264664 44.2933 0.914833 46.4919 2.53645 48.1136C4.15807 49.7352 6.35669 50.6474 8.65 50.65H60.09C62.3833 50.6474 64.5819 49.7352 66.2036 48.1136C67.8252 46.4919 68.7374 44.2933 68.74 42V8.65C68.7374 6.35669 67.8252 4.15807 66.2036 2.53645C64.5819 0.914833 62.3833 0.00264664 60.09 0V0ZM60.09 4.5C60.4768 4.50298 60.8611 4.56365 61.23 4.68L34.23 31.5L7.24 4.76C7.69108 4.59119 8.16838 4.50318 8.65 4.5H60.09ZM32 34.87C32.2996 35.1688 32.6552 35.4056 33.0464 35.5669C33.4377 35.7282 33.8568 35.8108 34.28 35.81C35.137 35.8089 35.9593 35.4713 36.57 34.87L41.33 30.13L57.21 46.13H11.08L27.17 30.13L32 34.87ZM4.5 8.65C4.50248 8.35728 4.536 8.06565 4.6 7.78L24.33 27.31L6.22 45.31C5.69315 44.9325 5.2628 44.4359 4.96394 43.8608C4.66508 43.2857 4.50612 42.6481 4.5 42V8.65ZM64.24 42C64.2374 42.7119 64.0521 43.4112 63.702 44.031C63.3518 44.6508 62.8484 45.1704 62.24 45.54L44.15 27.31L64.06 7.51C64.1763 7.87894 64.237 8.26316 64.24 8.65V42Z" fill="#B72768"/>
</svg>
