<svg width="59" height="54" viewBox="0 0 59 54" fill="none" xmlns="http://www.w3.org/2000/svg">
<path d="M54.8317 0.13001C55.4212 0.125384 56.0049 0.246835 56.5436 0.48622C57.0823 0.725605 57.5636 1.07739 57.9553 1.518C58.3469 1.95861 58.6399 2.47785 58.8144 3.04092C58.989 3.60399 59.0412 4.19787 58.9675 4.78276C58.8434 6.02349 58.5642 7.25388 58.3264 8.48428L55.0798 25.3479C54.2251 29.6491 53.3842 33.9572 52.557 38.2722C51.8333 41.9634 51.1509 45.6752 50.3651 49.3561C50.204 50.064 49.8772 50.7237 49.4117 51.2809C48.9462 51.8381 48.3552 52.2769 47.6871 52.5613C46.8964 52.9457 46.0271 53.141 45.1479 53.1321C44.2687 53.1231 43.4036 52.91 42.6208 52.5096C42.025 52.1699 41.467 51.7679 40.9562 51.3102L31.8264 44.2898C31.7908 44.2426 31.7447 44.2044 31.6917 44.1781C31.6388 44.1518 31.5805 44.1381 31.5214 44.1381C31.4623 44.1381 31.404 44.1518 31.3511 44.1781C31.2982 44.2044 31.2521 44.2426 31.2164 44.2898C29.2106 46.1405 27.2047 47.9913 25.1678 49.8007C24.6485 50.2931 23.9923 50.6169 23.2855 50.7294C22.5788 50.842 21.8545 50.7381 21.2078 50.4314C20.5256 50.1114 19.9769 49.5627 19.6569 48.8805C19.084 47.7554 18.64 46.5692 18.3335 45.3444C17.1617 41.4981 15.9761 37.6484 14.7767 33.7952C14.7388 33.7158 14.6855 33.6447 14.6198 33.5861C14.5541 33.5275 14.4774 33.4826 14.3942 33.454C10.8994 32.2684 7.3978 31.0897 3.88928 29.9179C3.01012 29.6287 2.20041 29.1605 1.51121 28.5428C1.02314 28.1566 0.634643 27.6591 0.378212 27.092C0.121781 26.5249 0.00487314 25.9047 0.037266 25.2831C0.0696589 24.6616 0.250411 24.0569 0.564404 23.5195C0.878397 22.9821 1.3165 22.5277 1.84207 22.1944C2.61912 21.6791 3.45147 21.2525 4.32354 20.9226C9.33817 18.803 14.2804 16.6731 19.264 14.6052L38.6505 6.45775L52.2985 0.729698C53.0936 0.36031 53.9554 0.156288 54.8317 0.13001ZM31.2578 38.1585L31.5576 38.3756L41.6799 46.1405C42.6312 46.8746 43.5824 47.6087 44.5543 48.3325C45.247 48.8494 45.9088 48.6633 46.0535 47.9189C46.7428 44.2174 47.4597 40.5193 48.2041 36.8247L51.1198 21.9152L54.3457 5.44448C54.3457 5.23769 54.4078 5.04124 54.4491 4.73106L5.10933 25.503L5.32646 25.596L17.041 29.5457C17.4545 29.7691 17.9076 29.9096 18.3748 29.9593C18.8504 29.8163 19.2932 29.5809 19.6776 29.2666L45.6503 13.1577C45.9702 12.9577 46.3189 12.8077 46.6842 12.7131C46.7943 12.6918 46.9077 12.6947 47.0166 12.7214C47.1255 12.7482 47.2273 12.7983 47.3149 12.8682C47.4118 12.9822 47.465 13.127 47.465 13.2766C47.465 13.4262 47.4118 13.571 47.3149 13.685C47.1529 13.8869 46.9767 14.0769 46.7876 14.2537L42.4244 18.3171L25.2092 34.3329C24.9805 34.5373 24.8305 34.8153 24.7853 35.1187C24.351 37.9517 23.8961 40.7847 23.4515 43.6177C23.3584 44.2174 23.2654 44.8171 23.162 45.5305L31.2578 38.1585Z" fill="#B72768"/>
</svg>
