<svg width="85" height="84" viewBox="0 0 85 84" fill="none" xmlns="http://www.w3.org/2000/svg">
<g clip-path="url(#clip0)">
<path d="M71.57 2.06006H12.53C6.71997 2.06006 2.01001 6.77002 2.01001 12.5801V71.6201C2.01001 77.4301 6.71997 82.1401 12.53 82.1401H71.57C77.38 82.1401 82.09 77.4301 82.09 71.6201V12.5801C82.09 6.77002 77.38 2.06006 71.57 2.06006Z" fill="#343334" stroke="url(#paint0_linear)" stroke-width="4" stroke-miterlimit="10"/>
<path d="M42.24 43.81C42.1667 44.0887 42.1165 44.373 42.09 44.66C42.09 47 42.09 49.34 42.04 51.66C36.3 51.23 30.47 51.46 27.29 47.28C26.4712 46.2275 25.9237 44.9898 25.696 43.6759C25.4683 42.362 25.5673 41.0122 25.9843 39.7456C26.4012 38.4789 27.1233 37.3343 28.0869 36.4126C29.0505 35.4908 30.2261 34.8202 31.51 34.46C31.87 34.35 32.22 34.21 32.58 34.08H42.06C42.06 36.45 42.06 38.82 42.06 41.2L42.24 43.81Z" fill="#9E61F9"/>
<path d="M42.06 34.1H32.58C31.1729 33.7822 29.8522 33.1611 28.71 32.28C27.5982 31.4239 26.731 30.2904 26.1957 28.9933C25.6604 27.6962 25.4756 26.2811 25.66 24.89C26.17 21.19 28.45 18.77 32.27 17.74C32.4266 17.6973 32.5878 17.6738 32.75 17.67C35.86 17.58 38.97 17.67 42.08 17.67C42.08 23.1433 42.0733 28.62 42.06 34.1Z" fill="#EE4E2C"/>
<path d="M42.06 34.1C42.06 28.62 42.06 23.1334 42.06 17.64C44.81 17.64 47.55 17.54 50.29 17.64C53.88 17.79 56.64 19.44 57.95 22.86C58.3853 23.9339 58.5884 25.0877 58.5459 26.2457C58.5033 27.4036 58.2162 28.5394 57.7033 29.5785C57.1904 30.6175 56.4633 31.5362 55.57 32.2741C54.6766 33.0121 53.6372 33.5525 52.52 33.86C52.18 33.96 51.82 34.03 51.52 34.11L50.7 34.21H42.09L42.06 34.1Z" fill="#FB7164"/>
<path d="M32.55 50.62H42.05C42.05 53.46 42.17 56.3 42.05 59.13C41.982 61.2997 41.0626 63.3555 39.4906 64.8526C37.9186 66.3498 35.8205 67.1679 33.65 67.13C29.22 67.13 25.58 62.86 25.56 59.01C25.5846 57.0888 26.2579 55.2323 27.4705 53.7419C28.6831 52.2515 30.3639 51.2148 32.24 50.8C32.3513 50.755 32.4557 50.6944 32.55 50.62Z" fill="#00CE83"/>
<path d="M48.16 34.1499L51.43 34.0699C51.719 34.2212 52.0201 34.3483 52.33 34.4499C53.927 34.8038 55.3724 35.6507 56.4617 36.871C57.5509 38.0913 58.229 39.6232 58.4 41.2499C58.7408 43.3929 58.2164 45.5835 56.9421 47.3397C55.6678 49.096 53.748 50.2741 51.605 50.6149C49.4621 50.9558 47.2715 50.4313 45.5152 49.157C43.7589 47.8827 42.5808 45.9629 42.24 43.8199C42.19 42.9599 42.15 42.1099 42.1 41.2599C42.1 41.2599 42.16 41.2599 42.16 41.1899C42.3491 39.6605 42.9836 38.2205 43.9846 37.0488C44.9855 35.8771 46.3089 35.0255 47.79 34.5999C48 34.5499 48 34.3099 48.16 34.1499Z" fill="#2EBCF8"/>
<path d="M48.16 34.15C48.04 34.31 47.95 34.55 47.79 34.6C46.2412 35.0479 44.8663 35.9583 43.8493 37.2094C42.8324 38.4605 42.222 39.9924 42.1 41.6C42.1 39.12 42.1 36.64 42.1 34.16L48.16 34.15Z" fill="#323435"/>
</g>
<defs>
<linearGradient id="paint0_linear" x1="42.05" y1="0.0600586" x2="42.05" y2="84.1401" gradientUnits="userSpaceOnUse">
<stop stop-color="#EE4E2C"/>
<stop offset="0.25" stop-color="#FB7164"/>
<stop offset="0.5" stop-color="#9E61F9"/>
<stop offset="0.75" stop-color="#2EBCF8"/>
<stop offset="1" stop-color="#00CE83"/>
</linearGradient>
<clipPath id="clip0">
<rect width="84.09" height="84" fill="white"/>
</clipPath>
</defs>
</svg>
