<svg width="45" height="45" viewBox="0 0 33 31" fill="none" xmlns="http://www.w3.org/2000/svg"><path d="M16.518 30.036a15.689 15.689 0 01-6.212-1.345 14.788 14.788 0 01-5.393-4.066 15.19 15.19 0 01-2.8-5.102 1.096 1.096 0 01.638-1.39 1.101 1.101 0 011.258.264c.103.113.181.246.23.391.27.826.614 1.626 1.029 2.39.539.98 1.205 1.884 1.982 2.69a12.422 12.422 0 003.717 2.69 12.905 12.905 0 004.149 1.183 13.13 13.13 0 004.872-.381 12.15 12.15 0 003.497-1.551 12.803 12.803 0 003.685-3.55 12.495 12.495 0 001.875-4.314c.247-1.088.34-2.207.278-3.322a12.365 12.365 0 00-4.099-8.526 13.286 13.286 0 00-5.12-2.905 1.13 1.13 0 01-.867-.834 1.026 1.026 0 011.034-1.228c.316.015.629.07.93.166a13.943 13.943 0 015.43 3.035 14.59 14.59 0 014.944 10.194 14.337 14.337 0 01-1.276 6.76 14.796 14.796 0 01-3.749 5.012 14.162 14.162 0 01-3.146 2.125 14.733 14.733 0 01-4.895 1.475c-.66.072-1.326.103-1.991.14z" fill="#E4EAEA"/><path d="M20.064 21.67a6.12 6.12 0 01-2.072-.447 13.163 13.163 0 01-4.297-2.964 15.426 15.426 0 01-2.31-2.838 8.249 8.249 0 01-1.213-3.115 1.981 1.981 0 01.09-1.175c.062-.13.145-.25.247-.354.588-.6 1.186-1.188 1.797-1.793a.606.606 0 011.048.152c.229.408.45.825.66 1.238.212.412.5.959.756 1.43a.774.774 0 01-.1.964c-.206.233-.449.448-.656.668a.304.304 0 00-.085.34c.222.67.59 1.283 1.079 1.793.58.7 1.257 1.317 2.009 1.83.34.194.69.368 1.052.52a.279.279 0 00.341-.09c.207-.215.423-.422.63-.637a.9.9 0 011.186-.157l2.495 1.47a.615.615 0 01.125 1.068c-.561.56-1.137 1.107-1.69 1.677a1.35 1.35 0 01-1.092.42zM14.585 2.071a1.15 1.15 0 01-1.016 1.202c-1.197.238-2.35.662-3.415 1.255a15.223 15.223 0 00-2.85 1.986 11.052 11.052 0 00-1.798 2.174A12.424 12.424 0 003.578 13.1c-.03.2-.082.396-.157.583a1.168 1.168 0 01-1.439.583 1.173 1.173 0 01-.831-1.345 15.06 15.06 0 011.74-4.694 14.704 14.704 0 016.206-5.828A16.379 16.379 0 0113.035.991a1.257 1.257 0 011.137.197 1.103 1.103 0 01.413.883z" fill="#CC0C67"/></svg>