<svg width="344" height="804" viewBox="0 0 344 804" fill="none" xmlns="http://www.w3.org/2000/svg">
<g opacity="0.71">
<circle opacity="0.1" cx="45.547" cy="218.229" r="6.22917" fill="#B72768"/>
<circle opacity="0.1" cx="45.547" cy="319.813" r="6.22917" fill="#B72768"/>
<circle opacity="0.1" cx="45.547" cy="421.395" r="6.22917" fill="#B72768"/>
<circle opacity="0.1" cx="45.547" cy="522.979" r="6.22917" fill="#B72768"/>
<circle opacity="0.1" cx="45.547" cy="269.02" r="6.22917" fill="#B72768"/>
<circle opacity="0.1" cx="45.547" cy="370.604" r="6.22917" fill="#B72768"/>
<circle opacity="0.1" cx="45.547" cy="472.188" r="6.22917" fill="#B72768"/>
<circle opacity="0.1" cx="45.547" cy="573.77" r="6.22917" fill="#B72768"/>
<circle opacity="0.1" cx="96.339" cy="218.229" r="6.22917" fill="#B72768"/>
<circle opacity="0.1" cx="96.339" cy="319.813" r="6.22917" fill="#B72768"/>
<circle opacity="0.1" cx="96.339" cy="421.395" r="6.22917" fill="#B72768"/>
<circle opacity="0.1" cx="96.339" cy="522.979" r="6.22917" fill="#B72768"/>
<circle opacity="0.1" cx="96.339" cy="269.02" r="6.22917" fill="#B72768"/>
<circle opacity="0.1" cx="96.339" cy="370.604" r="6.22917" fill="#B72768"/>
<circle opacity="0.1" cx="96.339" cy="472.188" r="6.22917" fill="#B72768"/>
<circle opacity="0.1" cx="96.339" cy="573.77" r="6.22917" fill="#B72768"/>
<circle opacity="0.1" cx="147.13" cy="218.229" r="6.22917" fill="#B72768"/>
<circle opacity="0.1" cx="147.13" cy="319.813" r="6.22917" fill="#B72768"/>
<circle opacity="0.1" cx="147.13" cy="421.395" r="6.22917" fill="#B72768"/>
<circle opacity="0.1" cx="147.13" cy="522.979" r="6.22917" fill="#B72768"/>
<circle opacity="0.1" cx="147.13" cy="269.02" r="6.22917" fill="#B72768"/>
<circle opacity="0.1" cx="147.13" cy="370.604" r="6.22917" fill="#B72768"/>
<circle opacity="0.1" cx="147.13" cy="472.188" r="6.22917" fill="#B72768"/>
<circle opacity="0.1" cx="147.13" cy="573.77" r="6.22917" fill="#B72768"/>
<circle opacity="0.1" cx="197.922" cy="218.229" r="6.22917" fill="#B72768"/>
<circle opacity="0.1" cx="197.922" cy="319.813" r="6.22917" fill="#B72768"/>
<circle opacity="0.1" cx="197.922" cy="421.395" r="6.22917" fill="#B72768"/>
<circle opacity="0.1" cx="197.922" cy="522.979" r="6.22917" fill="#B72768"/>
<circle opacity="0.1" cx="197.922" cy="269.02" r="6.22917" fill="#B72768"/>
<circle opacity="0.1" cx="197.922" cy="370.604" r="6.22917" fill="#B72768"/>
<circle opacity="0.1" cx="197.922" cy="472.188" r="6.22917" fill="#B72768"/>
<circle opacity="0.1" cx="197.922" cy="573.77" r="6.22917" fill="#B72768"/>
<circle opacity="0.1" cx="248.714" cy="218.229" r="6.22917" fill="#B72768"/>
<circle opacity="0.1" cx="248.714" cy="319.813" r="6.22917" fill="#B72768"/>
<circle opacity="0.1" cx="248.714" cy="421.395" r="6.22917" fill="#B72768"/>
<circle opacity="0.1" cx="248.714" cy="522.979" r="6.22917" fill="#B72768"/>
<circle opacity="0.1" cx="248.714" cy="269.02" r="6.22917" fill="#B72768"/>
<circle opacity="0.1" cx="248.714" cy="370.604" r="6.22917" fill="#B72768"/>
<circle opacity="0.1" cx="248.714" cy="472.188" r="6.22917" fill="#B72768"/>
<circle opacity="0.1" cx="248.714" cy="573.77" r="6.22917" fill="#B72768"/>
<circle opacity="0.1" cx="299.506" cy="218.229" r="6.22917" fill="#B72768"/>
<circle opacity="0.1" cx="299.506" cy="319.813" r="6.22917" fill="#B72768"/>
<circle opacity="0.1" cx="299.506" cy="421.395" r="6.22917" fill="#B72768"/>
<circle opacity="0.1" cx="299.506" cy="522.979" r="6.22917" fill="#B72768"/>
<circle opacity="0.1" cx="299.506" cy="269.02" r="6.22917" fill="#B72768"/>
<circle opacity="0.1" cx="299.506" cy="370.604" r="6.22917" fill="#B72768"/>
<circle opacity="0.1" cx="299.506" cy="472.188" r="6.22917" fill="#B72768"/>
<circle opacity="0.1" cx="299.506" cy="573.77" r="6.22917" fill="#B72768"/>
</g>
<line opacity="0.3" x1="340.193" y1="3.63216" x2="276.632" y2="260.807" stroke="url(#paint0_linear)" stroke-width="6" stroke-linecap="round"/>
<line opacity="0.3" x1="3" y1="-3" x2="267.913" y2="-3" transform="matrix(0.239929 0.97079 0.97079 -0.239929 6 0)" stroke="url(#paint1_linear)" stroke-width="6" stroke-linecap="round"/>
<line opacity="0.33" x1="67" y1="801" x2="279" y2="801" stroke="url(#paint2_linear)" stroke-width="6" stroke-linecap="round"/>
<line opacity="0.33" x1="116" y1="751" x2="230" y2="751" stroke="url(#paint3_linear)" stroke-width="6" stroke-linecap="round"/>
<line opacity="0.33" x1="148" y1="701" x2="199" y2="701" stroke="url(#paint4_linear)" stroke-width="6" stroke-linecap="round"/>
<defs>
<linearGradient id="paint0_linear" x1="336.86" y1="4.61403" x2="273" y2="263" gradientUnits="userSpaceOnUse">
<stop stop-color="#070A0A"/>
<stop offset="0.494792" stop-color="#AB0566"/>
<stop offset="1" stop-color="#070A0A"/>
</linearGradient>
<linearGradient id="paint1_linear" x1="4.75287" y1="2.63611e-05" x2="270.913" y2="0.000438108" gradientUnits="userSpaceOnUse">
<stop stop-color="#070A0A"/>
<stop offset="0.494792" stop-color="#AB0566"/>
<stop offset="1" stop-color="#070A0A"/>
</linearGradient>
<linearGradient id="paint2_linear" x1="67.8246" y1="804" x2="282" y2="804" gradientUnits="userSpaceOnUse">
<stop stop-color="#070A0A"/>
<stop offset="0.494792" stop-color="#AB0566"/>
<stop offset="1" stop-color="#070A0A"/>
</linearGradient>
<linearGradient id="paint3_linear" x1="115.105" y1="754" x2="233" y2="754" gradientUnits="userSpaceOnUse">
<stop stop-color="#070A0A"/>
<stop offset="0.494792" stop-color="#AB0566"/>
<stop offset="1" stop-color="#070A0A"/>
</linearGradient>
<linearGradient id="paint4_linear" x1="146" y1="704" x2="202" y2="704" gradientUnits="userSpaceOnUse">
<stop stop-color="#070A0A"/>
<stop offset="0.494792" stop-color="#AB0566"/>
<stop offset="1" stop-color="#070A0A"/>
</linearGradient>
</defs>
</svg>
