<svg width="1845" height="907" viewBox="0 0 1845 907" fill="none" xmlns="http://www.w3.org/2000/svg">
<g opacity="0.71">
<circle opacity="0.1" cx="690.341" cy="146.341" r="11.3411" fill="#B72768"/>
<circle opacity="0.1" cx="690.341" cy="331.289" r="11.3411" fill="#B72768"/>
<circle opacity="0.1" cx="690.341" cy="516.237" r="11.3411" fill="#B72768"/>
<circle opacity="0.1" cx="690.341" cy="701.185" r="11.3411" fill="#B72768"/>
<circle opacity="0.1" cx="690.341" cy="238.815" r="11.3411" fill="#B72768"/>
<circle opacity="0.1" cx="690.341" cy="423.763" r="11.3411" fill="#B72768"/>
<circle opacity="0.1" cx="690.341" cy="608.711" r="11.3411" fill="#B72768"/>
<circle opacity="0.1" cx="690.341" cy="793.659" r="11.3411" fill="#B72768"/>
<circle opacity="0.1" cx="782.815" cy="146.341" r="11.3411" fill="#B72768"/>
<circle opacity="0.1" cx="782.815" cy="331.289" r="11.3411" fill="#B72768"/>
<circle opacity="0.1" cx="782.815" cy="516.237" r="11.3411" fill="#B72768"/>
<circle opacity="0.1" cx="782.815" cy="701.185" r="11.3411" fill="#B72768"/>
<circle opacity="0.1" cx="782.815" cy="238.815" r="11.3411" fill="#B72768"/>
<circle opacity="0.1" cx="782.815" cy="423.763" r="11.3411" fill="#B72768"/>
<circle opacity="0.1" cx="782.815" cy="608.711" r="11.3411" fill="#B72768"/>
<circle opacity="0.1" cx="782.815" cy="793.659" r="11.3411" fill="#B72768"/>
<circle opacity="0.1" cx="875.289" cy="146.341" r="11.3411" fill="#B72768"/>
<circle opacity="0.1" cx="875.289" cy="331.289" r="11.3411" fill="#B72768"/>
<circle opacity="0.1" cx="875.289" cy="516.237" r="11.3411" fill="#B72768"/>
<circle opacity="0.1" cx="875.289" cy="701.185" r="11.3411" fill="#B72768"/>
<circle opacity="0.1" cx="875.289" cy="238.815" r="11.3411" fill="#B72768"/>
<circle opacity="0.1" cx="875.289" cy="423.763" r="11.3411" fill="#B72768"/>
<circle opacity="0.1" cx="875.289" cy="608.711" r="11.3411" fill="#B72768"/>
<circle opacity="0.1" cx="875.289" cy="793.659" r="11.3411" fill="#B72768"/>
<circle opacity="0.1" cx="967.763" cy="146.341" r="11.3411" fill="#B72768"/>
<circle opacity="0.1" cx="967.763" cy="331.289" r="11.3411" fill="#B72768"/>
<circle opacity="0.1" cx="967.763" cy="516.237" r="11.3411" fill="#B72768"/>
<circle opacity="0.1" cx="967.763" cy="701.185" r="11.3411" fill="#B72768"/>
<circle opacity="0.1" cx="967.763" cy="238.815" r="11.3411" fill="#B72768"/>
<circle opacity="0.1" cx="967.763" cy="423.763" r="11.3411" fill="#B72768"/>
<circle opacity="0.1" cx="967.763" cy="608.711" r="11.3411" fill="#B72768"/>
<circle opacity="0.1" cx="967.763" cy="793.659" r="11.3411" fill="#B72768"/>
<circle opacity="0.1" cx="1060.24" cy="146.341" r="11.3411" fill="#B72768"/>
<circle opacity="0.1" cx="1060.24" cy="331.289" r="11.3411" fill="#B72768"/>
<circle opacity="0.1" cx="1060.24" cy="516.237" r="11.3411" fill="#B72768"/>
<circle opacity="0.1" cx="1060.24" cy="701.185" r="11.3411" fill="#B72768"/>
<circle opacity="0.1" cx="1060.24" cy="238.815" r="11.3411" fill="#B72768"/>
<circle opacity="0.1" cx="1060.24" cy="423.763" r="11.3411" fill="#B72768"/>
<circle opacity="0.1" cx="1060.24" cy="608.711" r="11.3411" fill="#B72768"/>
<circle opacity="0.1" cx="1060.24" cy="793.659" r="11.3411" fill="#B72768"/>
<circle opacity="0.1" cx="1152.71" cy="146.341" r="11.3411" fill="#B72768"/>
<circle opacity="0.1" cx="1152.71" cy="331.289" r="11.3411" fill="#B72768"/>
<circle opacity="0.1" cx="1152.71" cy="516.237" r="11.3411" fill="#B72768"/>
<circle opacity="0.1" cx="1152.71" cy="701.185" r="11.3411" fill="#B72768"/>
<circle opacity="0.1" cx="1152.71" cy="238.815" r="11.3411" fill="#B72768"/>
<circle opacity="0.1" cx="1152.71" cy="423.763" r="11.3411" fill="#B72768"/>
<circle opacity="0.1" cx="1152.71" cy="608.711" r="11.3411" fill="#B72768"/>
<circle opacity="0.1" cx="1152.71" cy="793.659" r="11.3411" fill="#B72768"/>
</g>
<line opacity="0.3" x1="4.23739" y1="4.78903" x2="368.789" y2="334.763" stroke="url(#paint0_linear)" stroke-width="6" stroke-linecap="round"/>
<line opacity="0.33" x1="141" y1="904" x2="353" y2="904" stroke="url(#paint1_linear)" stroke-width="6" stroke-linecap="round"/>
<line opacity="0.33" x1="817" y1="904" x2="1029" y2="904" stroke="url(#paint2_linear)" stroke-width="6" stroke-linecap="round"/>
<line opacity="0.3" x1="3" y1="-3" x2="494.712" y2="-3" transform="matrix(-0.741393 0.671071 0.671071 0.741393 1845 5)" stroke="url(#paint3_linear)" stroke-width="6" stroke-linecap="round"/>
<line opacity="0.33" x1="1493" y1="904" x2="1705" y2="904" stroke="url(#paint4_linear)" stroke-width="6" stroke-linecap="round"/>
<defs>
<linearGradient id="paint0_linear" x1="6.47367" y1="10.8597" x2="368.999" y2="339.001" gradientUnits="userSpaceOnUse">
<stop stop-color="#070A0A"/>
<stop offset="0.494792" stop-color="#AB0566"/>
<stop offset="1" stop-color="#070A0A"/>
</linearGradient>
<linearGradient id="paint1_linear" x1="141.825" y1="907" x2="356" y2="907" gradientUnits="userSpaceOnUse">
<stop stop-color="#070A0A"/>
<stop offset="0.494792" stop-color="#AB0566"/>
<stop offset="1" stop-color="#070A0A"/>
</linearGradient>
<linearGradient id="paint2_linear" x1="817.825" y1="907" x2="1032" y2="907" gradientUnits="userSpaceOnUse">
<stop stop-color="#070A0A"/>
<stop offset="0.494792" stop-color="#AB0566"/>
<stop offset="1" stop-color="#070A0A"/>
</linearGradient>
<linearGradient id="paint3_linear" x1="8.73179" y1="2.63611e-05" x2="497.712" y2="0.00141608" gradientUnits="userSpaceOnUse">
<stop stop-color="#070A0A"/>
<stop offset="0.494792" stop-color="#AB0566"/>
<stop offset="1" stop-color="#070A0A"/>
</linearGradient>
<linearGradient id="paint4_linear" x1="1493.82" y1="907" x2="1708" y2="907" gradientUnits="userSpaceOnUse">
<stop stop-color="#070A0A"/>
<stop offset="0.494792" stop-color="#AB0566"/>
<stop offset="1" stop-color="#070A0A"/>
</linearGradient>
</defs>
</svg>
