<svg width="1329" height="1000" viewBox="0 0 1329 1000" fill="none" xmlns="http://www.w3.org/2000/svg">
<path d="M513.999 395.86V400.835C512.498 400.124 510.87 399.717 509.211 399.639C508.348 399.606 507.492 399.813 506.74 400.237C506.178 400.536 505.739 401.022 505.498 401.611C505.263 402.987 505.178 404.384 505.243 405.778V411.108H513.489V415.54H505.243V450.645H500.156V415.54H494.97V411.108H500.156V404.935C500.046 402.899 500.309 400.86 500.932 398.918C501.478 397.684 502.407 396.658 503.581 395.993C504.963 395.228 506.524 394.845 508.103 394.885C510.104 394.934 512.088 395.262 513.999 395.86Z" fill="#E8E8E8"/>
<path d="M519.152 411.108H524.35V416.881C525.634 414.878 527.298 413.146 529.248 411.784C530.832 410.699 532.704 410.113 534.623 410.099C536.214 410.151 537.764 410.613 539.123 411.44L536.474 415.717C535.633 415.316 534.722 415.083 533.792 415.03C531.951 415.09 530.199 415.837 528.882 417.125C527.089 418.893 525.843 421.139 525.292 423.596C524.656 425.857 524.342 430.407 524.35 437.248V450.612H519.152V411.108Z" fill="#E8E8E8"/>
<path d="M562.152 410.099C565.007 410.035 567.84 410.597 570.454 411.746C573.067 412.895 575.398 414.602 577.28 416.748C580.849 420.7 582.799 425.851 582.741 431.175C582.684 436.499 580.623 441.607 576.97 445.481C575.029 447.444 572.718 449.002 570.171 450.065C567.624 451.129 564.891 451.676 562.13 451.676C559.37 451.676 556.637 451.129 554.09 450.065C551.542 449.002 549.231 447.444 547.291 445.481C543.644 441.61 541.588 436.509 541.531 431.192C541.473 425.874 543.419 420.73 546.98 416.781C548.865 414.623 551.201 412.906 553.822 411.751C556.444 410.597 559.288 410.033 562.152 410.099ZM562.152 415.064C560.11 415.043 558.086 415.45 556.21 416.257C554.334 417.064 552.647 418.254 551.258 419.751C549.779 421.233 548.611 422.997 547.825 424.939C547.039 426.88 546.65 428.959 546.681 431.054C546.664 433.852 547.378 436.606 548.754 439.043C550.059 441.433 552.005 443.413 554.372 444.761C556.744 446.083 559.415 446.778 562.13 446.778C564.846 446.778 567.516 446.083 569.888 444.761C572.256 443.413 574.201 441.433 575.507 439.043C576.882 436.606 577.597 433.852 577.579 431.054C577.608 428.957 577.215 426.876 576.423 424.934C575.631 422.992 574.456 421.229 572.969 419.751C571.584 418.263 569.906 417.078 568.041 416.272C566.175 415.465 564.163 415.054 562.13 415.064H562.152Z" fill="#E8E8E8"/>
<path d="M592.109 411.108H597.195V417.934C598.624 415.74 600.478 413.856 602.648 412.393C605.08 410.882 607.886 410.08 610.75 410.077C612.625 410.061 614.482 410.439 616.202 411.185C617.812 411.861 619.253 412.883 620.425 414.177C621.696 415.773 622.658 417.592 623.262 419.54C624.733 416.679 626.916 414.244 629.601 412.471C632.037 410.894 634.878 410.059 637.78 410.066C640.35 410.042 642.867 410.791 645.006 412.216C647.115 413.615 648.74 415.631 649.66 417.989C650.68 420.456 651.19 424.15 651.19 429.07V450.634H645.992V429.048C645.992 424.815 645.693 421.904 645.094 420.316C644.493 418.741 643.406 417.398 641.991 416.482C640.432 415.486 638.61 414.98 636.76 415.03C634.332 415.03 631.967 415.807 630.011 417.247C627.99 418.699 626.447 420.721 625.578 423.053C624.632 425.469 624.163 429.51 624.17 435.176V450.689H619.084V430.389C619.084 425.624 618.788 422.388 618.197 420.682C617.631 419.014 616.543 417.572 615.094 416.571C613.54 415.526 611.701 414.988 609.83 415.03C607.444 415.022 605.118 415.767 603.18 417.158C601.135 418.574 599.554 420.564 598.636 422.876C597.661 425.269 597.173 428.937 597.173 433.879V450.612H592.086L592.109 411.108Z" fill="#E8E8E8"/>
<path d="M682.565 397.201H687.895V450.612H682.565V397.201Z" fill="#D72872"/>
<path d="M700.141 450.612V397.201H711.224C719.218 397.201 725.014 397.844 728.613 399.129C733.631 400.8 737.931 404.129 740.803 408.57C743.832 413.352 745.375 418.924 745.237 424.582C745.343 429.511 744.147 434.381 741.768 438.7C739.714 442.518 736.585 445.65 732.769 447.708C729.074 449.651 723.903 450.619 717.253 450.612H700.141ZM705.262 445.57H711.435C718.823 445.57 723.939 445.108 726.784 444.185C730.661 442.986 734.009 440.495 736.271 437.126C738.656 433.42 739.858 429.076 739.717 424.671C739.852 419.992 738.545 415.384 735.971 411.473C733.486 407.826 729.799 405.167 725.554 403.96C722.222 402.941 716.714 402.431 709.03 402.431H705.262V445.57Z" fill="#D72872"/>
<path d="M755.51 397.201H786.12V402.431H760.852V419.175H785.91V424.405H760.852V445.392H785.91V450.623H755.51V397.201Z" fill="#D72872"/>
<path d="M817.173 397.201L842.076 450.612H836.313L827.868 433.037H804.905L796.582 450.612H790.631L815.866 397.201H817.173ZM816.497 408.548L807.343 427.884H825.652L816.497 408.548Z" fill="#D72872"/>
<path d="M641.914 487.722H647.001V502.416H655.069V506.848H647.001V541.997H641.914V506.815H634.965V502.382H641.914V487.722Z" fill="#E8E8E8"/>
<path d="M681.434 501.396C684.292 501.332 687.129 501.894 689.746 503.042C692.363 504.191 694.697 505.898 696.584 508.045C700.163 512.007 702.118 517.172 702.061 522.511C702.003 527.85 699.937 532.971 696.274 536.856C694.328 538.818 692.013 540.376 689.463 541.439C686.912 542.502 684.176 543.05 681.412 543.05C678.648 543.05 675.912 542.502 673.361 541.439C670.811 540.376 668.496 538.818 666.55 536.856C662.903 532.976 660.847 527.868 660.79 522.544C660.732 517.22 662.678 512.069 666.24 508.111C668.127 505.949 670.466 504.226 673.091 503.066C675.716 501.906 678.564 501.336 681.434 501.396V501.396ZM681.434 506.371C679.385 506.346 677.352 506.749 675.468 507.557C673.584 508.364 671.89 509.557 670.496 511.059C669.015 512.549 667.848 514.321 667.064 516.27C666.28 518.219 665.894 520.305 665.93 522.406C665.916 525.208 666.635 527.966 668.013 530.406C669.322 532.797 671.267 534.78 673.632 536.135C676.006 537.452 678.675 538.143 681.39 538.143C684.104 538.143 686.774 537.452 689.148 536.135C691.511 534.777 693.454 532.795 694.767 530.406C696.142 527.965 696.856 525.208 696.839 522.406C696.878 520.304 696.492 518.216 695.706 516.266C694.919 514.317 693.748 512.546 692.262 511.059C690.874 509.575 689.192 508.395 687.325 507.594C685.457 506.793 683.444 506.388 681.412 506.405L681.434 506.371Z" fill="#E8E8E8"/>
<path d="M94.4457 888.303H86.4441C85.1252 888.303 84.4492 887.693 84.5268 886.386C84.5771 884.267 83.9902 882.183 82.8422 880.402C81.734 878.463 80.5038 876.557 79.3845 874.607C77.8079 872.039 76.813 869.156 76.4698 866.163C76.0741 861.927 77.2012 857.69 79.6486 854.211C82.0961 850.731 85.7036 848.238 89.8238 847.179C93.944 846.119 98.307 846.562 102.13 848.429C105.952 850.296 108.984 853.464 110.682 857.364C111.708 859.555 112.232 861.947 112.217 864.367C112.202 866.786 111.647 869.171 110.593 871.349C109.485 873.676 108.188 875.903 106.958 878.164C105.882 879.878 105.075 881.746 104.564 883.704C104.387 884.557 104.442 885.466 104.342 886.341C104.317 886.773 104.204 887.196 104.01 887.582C103.846 887.829 103.615 888.025 103.344 888.147C103.074 888.268 102.774 888.311 102.481 888.269L94.4457 888.303ZM94.4457 885.122H100.763C101.106 885.122 101.217 885.034 101.25 884.69C101.301 884.087 101.39 883.487 101.516 882.895C102.142 880.608 103.09 878.422 104.331 876.402C105.44 874.418 106.548 872.446 107.567 870.429C108.395 868.844 108.882 867.104 108.997 865.321C109.185 862.558 108.553 859.802 107.18 857.398C105.507 854.297 102.742 851.928 99.4218 850.749C97.3599 849.937 95.1349 849.625 92.9291 849.838C90.7233 850.052 88.5996 850.786 86.7322 851.979C84.381 853.339 82.4673 855.342 81.2166 857.753C79.9658 860.164 79.4302 862.882 79.6726 865.587C79.9256 868.401 80.8656 871.11 82.41 873.476C83.5183 875.305 84.6265 877.089 85.7348 878.917C86.8497 880.711 87.5431 882.734 87.7629 884.834C87.7629 885.178 87.9956 885.145 88.2173 885.145L94.4457 885.122Z" fill="#E8E8E8"/>
<path d="M94.4235 894.963H87.5523C87.174 895.013 86.7899 894.93 86.4662 894.728C86.1425 894.525 85.8995 894.217 85.7791 893.854C85.7196 893.648 85.7032 893.432 85.7308 893.22C85.7585 893.007 85.8296 892.802 85.9398 892.618C86.05 892.434 86.1969 892.275 86.3714 892.15C86.5458 892.025 86.7441 891.938 86.9539 891.893C87.1535 891.845 87.358 891.819 87.5634 891.815H101.295C101.694 891.762 102.1 891.856 102.434 892.081C102.769 892.305 103.01 892.644 103.112 893.034C103.172 893.255 103.182 893.486 103.141 893.711C103.101 893.936 103.011 894.149 102.879 894.336C102.747 894.522 102.575 894.677 102.376 894.789C102.176 894.901 101.955 894.968 101.727 894.985C101.018 894.985 100.308 894.985 99.5991 894.985L94.4235 894.963Z" fill="#E8E8E8"/>
<path d="M94.4346 901.312H90.1457C89.9353 901.321 89.7253 901.288 89.5281 901.214C89.3309 901.14 89.1505 901.028 88.9976 900.883C88.8446 900.738 88.7223 900.564 88.6377 900.372C88.5532 900.179 88.5082 899.971 88.5055 899.761C88.498 899.554 88.5323 899.347 88.6064 899.154C88.6805 898.961 88.7928 898.784 88.9366 898.635C89.0804 898.486 89.2527 898.368 89.4433 898.287C89.6339 898.206 89.8389 898.165 90.0459 898.165C93.0013 898.165 95.9345 898.165 98.8455 898.165C99.0531 898.168 99.258 898.212 99.4481 898.295C99.6383 898.379 99.8097 898.5 99.9523 898.65C100.095 898.801 100.206 898.979 100.278 899.174C100.351 899.368 100.384 899.575 100.375 899.783C100.363 900.199 100.188 900.594 99.8874 900.882C99.5867 901.171 99.1845 901.329 98.7679 901.323L94.4346 901.312Z" fill="#E8E8E8"/>
<path d="M70.7622 890.032C70.4522 890.061 70.1406 889.996 69.8678 889.846C69.595 889.696 69.3738 889.467 69.2328 889.189C69.0702 888.929 68.9964 888.623 69.0224 888.318C69.0483 888.012 69.1727 887.723 69.3769 887.494C69.9643 886.818 70.596 886.175 71.2166 885.533C72.5908 884.092 73.954 882.652 75.3393 881.222C75.602 880.934 75.9616 880.753 76.3495 880.713C76.7373 880.674 77.1262 880.778 77.4416 881.007C77.7571 881.237 77.9771 881.574 78.0595 881.955C78.1419 882.336 78.081 882.734 77.8883 883.073C77.6663 883.398 77.4058 883.696 77.1125 883.959C75.3467 885.821 73.5772 887.668 71.804 889.5C71.6758 889.655 71.5173 889.782 71.3381 889.873C71.159 889.965 70.963 890.019 70.7622 890.032Z" fill="#E8E8E8"/>
<path d="M119.814 840.798C119.778 841.178 119.595 841.528 119.304 841.773L113.585 847.491C113.443 847.656 113.268 847.79 113.072 847.886C112.876 847.981 112.663 848.036 112.445 848.046C112.228 848.056 112.01 848.022 111.806 847.946C111.602 847.87 111.415 847.753 111.258 847.602C111.094 847.447 110.965 847.259 110.879 847.05C110.794 846.841 110.754 846.616 110.762 846.391C110.77 846.165 110.827 845.944 110.928 845.742C111.029 845.54 111.171 845.362 111.347 845.22L117.054 839.513C117.27 839.268 117.558 839.098 117.876 839.027C118.195 838.955 118.527 838.986 118.827 839.114C119.154 839.247 119.427 839.485 119.606 839.789C119.784 840.094 119.857 840.448 119.814 840.798V840.798Z" fill="#E8E8E8"/>
<path d="M92.7057 835.513C92.7057 834.194 92.7057 832.864 92.7057 831.545C92.6947 831.187 92.8062 830.836 93.0219 830.55C93.2375 830.264 93.5443 830.06 93.8916 829.972C94.2259 829.875 94.5834 829.896 94.9042 830.031C95.225 830.166 95.4896 830.407 95.6537 830.714C95.7943 830.973 95.8704 831.262 95.8754 831.557C95.8754 834.179 95.8754 836.813 95.8754 839.457C95.8754 839.878 95.7084 840.281 95.4112 840.578C95.114 840.875 94.7109 841.042 94.2905 841.042C93.8702 841.042 93.4671 840.875 93.1699 840.578C92.8727 840.281 92.7057 839.878 92.7057 839.457C92.6946 838.106 92.7057 836.798 92.7057 835.513Z" fill="#E8E8E8"/>
<path d="M119.692 888.092C119.678 888.405 119.572 888.706 119.388 888.959C119.205 889.212 118.951 889.405 118.658 889.515C118.365 889.625 118.046 889.646 117.742 889.576C117.437 889.507 117.159 889.349 116.943 889.123L111.934 884.092C111.622 883.805 111.347 883.482 111.114 883.128C110.944 882.83 110.883 882.483 110.942 882.145C111 881.807 111.175 881.5 111.435 881.277C111.694 881.033 112.027 880.884 112.382 880.854C112.736 880.824 113.09 880.915 113.386 881.111C113.542 881.218 113.687 881.34 113.818 881.477L119.104 886.751C119.287 886.924 119.433 887.132 119.534 887.363C119.635 887.593 119.688 887.841 119.692 888.092V888.092Z" fill="#E8E8E8"/>
<path d="M77.9548 846.594C77.9662 846.897 77.8842 847.197 77.7197 847.453C77.5552 847.709 77.3162 847.908 77.0349 848.023C76.7592 848.174 76.4415 848.229 76.131 848.181C75.8205 848.133 75.5344 847.984 75.3171 847.757C73.3888 845.851 71.4715 843.945 69.5653 842.017C69.2844 841.711 69.1361 841.306 69.1527 840.891C69.1693 840.476 69.3495 840.084 69.6539 839.801C69.9402 839.518 70.3265 839.359 70.729 839.359C71.1314 839.359 71.5177 839.518 71.804 839.801C73.012 840.975 74.1867 842.161 75.3836 843.347L77.4117 845.375C77.5832 845.528 77.7202 845.716 77.8138 845.926C77.9074 846.136 77.9555 846.364 77.9548 846.594V846.594Z" fill="#E8E8E8"/>
<path d="M123.648 862.927C124.934 862.927 126.208 862.927 127.494 862.927C127.833 862.928 128.162 863.039 128.433 863.242C128.704 863.445 128.902 863.731 128.998 864.055C129.094 864.38 129.082 864.727 128.965 865.045C128.848 865.363 128.631 865.635 128.347 865.819C128.073 865.987 127.76 866.079 127.438 866.085C124.889 866.085 122.34 866.085 119.792 866.085C119.571 866.104 119.35 866.076 119.141 866.005C118.932 865.933 118.741 865.819 118.578 865.67C118.416 865.52 118.286 865.339 118.197 865.136C118.109 864.934 118.063 864.716 118.063 864.495C118.063 864.274 118.109 864.056 118.197 863.854C118.286 863.652 118.416 863.47 118.578 863.321C118.741 863.171 118.932 863.057 119.141 862.986C119.35 862.914 119.571 862.887 119.792 862.905L123.648 862.927Z" fill="#E8E8E8"/>
<path d="M65.3872 862.927C66.6395 862.927 67.8919 862.927 69.1442 862.927C69.4926 862.922 69.8329 863.033 70.1116 863.242C70.3903 863.451 70.5918 863.747 70.6843 864.083C70.7769 864.418 70.7553 864.776 70.623 865.098C70.4907 865.42 70.2551 865.69 69.9532 865.864C69.7142 866.004 69.4433 866.08 69.1664 866.085C66.6543 866.085 64.1386 866.085 61.6191 866.085C61.404 866.091 61.1899 866.053 60.9901 865.974C60.7902 865.894 60.6089 865.774 60.4572 865.621C60.3056 865.469 60.1868 865.286 60.1084 865.086C60.0299 864.886 59.9934 864.671 60.0011 864.456C60.0007 864.245 60.0436 864.036 60.127 863.841C60.2105 863.647 60.3328 863.472 60.4864 863.327C60.64 863.181 60.8217 863.069 61.0203 862.997C61.2189 862.924 61.4302 862.893 61.6413 862.905L65.3872 862.927Z" fill="#E8E8E8"/>
<path d="M83.4296 864.988C83.4296 858.772 87.6521 854.04 93.1269 853.508C94.7242 853.322 96.3429 853.501 97.8613 854.031C99.3797 854.561 100.758 855.428 101.893 856.567C102.097 856.69 102.271 856.857 102.402 857.057C102.532 857.257 102.616 857.483 102.646 857.72C102.677 857.956 102.654 858.197 102.579 858.423C102.504 858.649 102.378 858.856 102.212 859.027C102.046 859.198 101.844 859.33 101.62 859.412C101.396 859.494 101.156 859.524 100.919 859.5C100.682 859.477 100.453 859.4 100.249 859.276C100.045 859.152 99.8725 858.983 99.7432 858.783C98.5149 857.637 96.9478 856.921 95.2775 856.742C93.6072 856.563 91.924 856.931 90.4808 857.79C89.0375 858.65 87.9124 859.955 87.2744 861.508C86.6364 863.062 86.52 864.781 86.9428 866.407C87.2968 867.656 87.9556 868.799 88.8601 869.731C89.014 869.88 89.1364 870.058 89.2199 870.255C89.3035 870.452 89.3465 870.664 89.3465 870.878C89.3464 871.092 89.3033 871.304 89.2196 871.501C89.1359 871.698 89.0135 871.877 88.8595 872.025C88.7055 872.174 88.5231 872.29 88.3233 872.367C88.1234 872.444 87.9101 872.48 87.6961 872.473C87.4821 872.465 87.2718 872.415 87.0776 872.325C86.8835 872.234 86.7095 872.106 86.566 871.947C84.684 870.103 83.5644 867.619 83.4296 864.988Z" fill="#E8E8E8"/>
<g opacity="0.75">
<path opacity="0.75" d="M94.5122 807.71C106.546 807.71 118.309 811.278 128.315 817.963C138.321 824.647 146.119 834.149 150.724 845.265C155.329 856.381 156.534 868.613 154.186 880.414C151.839 892.215 146.044 903.054 137.535 911.562C129.026 920.07 118.185 925.864 106.382 928.212C94.5797 930.559 82.3461 929.354 71.2285 924.75C60.1108 920.145 50.6084 912.348 43.9228 902.344C37.2373 892.339 33.6689 880.577 33.6689 868.545C33.6982 852.42 40.1178 836.963 51.5218 825.561C62.9258 814.158 78.3845 807.74 94.5122 807.71V807.71ZM94.5122 803.278C81.6013 803.276 68.9797 807.102 58.2436 814.272C47.5075 821.442 39.1391 831.635 34.1968 843.561C29.2545 855.487 27.9602 868.61 30.4777 881.272C32.9951 893.933 39.2112 905.564 48.3398 914.693C57.4685 923.822 69.0996 930.039 81.7623 932.558C94.4249 935.077 107.55 933.785 119.479 928.846C131.407 923.906 141.602 915.541 148.776 904.807C155.949 894.074 159.777 881.455 159.777 868.545C159.777 851.237 152.902 834.638 140.662 822.398C128.423 810.158 111.823 803.281 94.5122 803.278V803.278Z" fill="#B72768"/>
</g>
<g opacity="0.75">
<path opacity="0.75" d="M1239.73 807.71C1251.76 807.71 1263.53 811.278 1273.53 817.963C1283.54 824.647 1291.34 834.149 1295.94 845.265C1300.55 856.381 1301.75 868.613 1299.4 880.414C1297.06 892.215 1291.26 903.054 1282.75 911.562C1274.24 920.07 1263.4 925.864 1251.6 928.212C1239.8 930.559 1227.56 929.354 1216.45 924.75C1205.33 920.145 1195.83 912.348 1189.14 902.344C1182.46 892.339 1178.89 880.577 1178.89 868.545C1178.92 852.42 1185.34 836.963 1196.74 825.561C1208.14 814.158 1223.6 807.74 1239.73 807.71V807.71ZM1239.73 803.278C1226.82 803.278 1214.2 807.106 1203.46 814.277C1192.73 821.449 1184.36 831.643 1179.42 843.569C1174.48 855.495 1173.19 868.618 1175.71 881.279C1178.23 893.939 1184.44 905.569 1193.57 914.697C1202.7 923.824 1214.33 930.04 1227 932.559C1239.66 935.077 1252.78 933.785 1264.71 928.845C1276.64 923.905 1286.83 915.539 1294.01 904.806C1301.18 894.073 1305.01 881.454 1305.01 868.545C1305.01 851.235 1298.13 834.634 1285.89 822.394C1273.65 810.154 1257.04 803.278 1239.73 803.278V803.278Z" fill="#B528AB"/>
</g>
<g opacity="0.75">
<path opacity="0.75" d="M94.5122 547.571C106.546 547.571 118.309 551.139 128.315 557.824C138.321 564.508 146.119 574.009 150.724 585.126C155.329 596.242 156.534 608.474 154.186 620.274C151.839 632.075 146.044 642.915 137.535 651.423C129.026 659.931 118.185 665.725 106.382 668.072C94.5797 670.42 82.3461 669.215 71.2285 664.61C60.1108 660.006 50.6084 652.209 43.9228 642.204C37.2373 632.2 33.6689 620.438 33.6689 608.406C33.6835 592.276 40.0985 576.811 51.5057 565.405C62.9128 554 78.38 547.586 94.5122 547.571V547.571ZM94.5122 543.139C81.6013 543.136 68.9797 546.962 58.2436 554.133C47.5075 561.303 39.1391 571.496 34.1968 583.422C29.2545 595.348 27.9602 608.471 30.4777 621.132C32.9951 633.794 39.2112 645.424 48.3398 654.553C57.4685 663.682 69.0996 669.899 81.7623 672.419C94.4249 674.938 107.55 673.646 119.479 668.707C131.407 663.767 141.602 655.401 148.776 644.668C155.949 633.935 159.777 621.315 159.777 608.406C159.777 591.098 152.902 574.499 140.662 562.259C128.423 550.019 111.823 543.142 94.5122 543.139V543.139Z" fill="#B72770"/>
</g>
<g opacity="0.75">
<path opacity="0.75" d="M180.369 290.867C192.403 290.867 204.166 294.435 214.172 301.12C224.177 307.804 231.976 317.305 236.581 328.422C241.186 339.538 242.391 351.77 240.043 363.57C237.695 375.371 231.901 386.211 223.392 394.719C214.883 403.227 204.041 409.021 192.239 411.368C180.436 413.716 168.203 412.511 157.085 407.906C145.967 403.302 136.465 395.505 129.78 385.5C123.094 375.496 119.526 363.734 119.526 351.702C119.555 335.577 125.975 320.12 137.379 308.718C148.783 297.315 164.241 290.896 180.369 290.867ZM180.369 286.435C167.458 286.432 154.836 290.258 144.1 297.429C133.364 304.599 124.996 314.792 120.053 326.718C115.111 338.644 113.817 351.767 116.334 364.428C118.852 377.09 125.068 388.72 134.197 397.849C143.325 406.978 154.956 413.195 167.619 415.715C180.282 418.234 193.407 416.942 205.335 412.002C217.264 407.063 227.459 398.697 234.632 387.964C241.805 377.231 245.634 364.611 245.634 351.702C245.634 334.394 238.758 317.795 226.519 305.555C214.28 293.315 197.679 286.438 180.369 286.435Z" fill="#B72779"/>
</g>
<g opacity="0.75">
<path opacity="0.75" d="M399.981 109.703C412.015 109.703 423.778 113.27 433.784 119.955C443.789 126.64 451.588 136.141 456.193 147.257C460.798 158.373 462.003 170.605 459.655 182.406C457.308 194.207 451.513 205.047 443.004 213.555C434.495 222.062 423.654 227.856 411.851 230.204C400.049 232.551 387.815 231.346 376.697 226.742C365.58 222.137 356.077 214.34 349.392 204.336C342.706 194.332 339.138 182.57 339.138 170.538C339.167 154.412 345.587 138.956 356.991 127.553C368.395 116.151 383.853 109.732 399.981 109.703ZM399.981 105.27C387.071 105.27 374.45 109.098 363.716 116.27C352.981 123.441 344.614 133.635 339.674 145.561C334.733 157.487 333.44 170.61 335.959 183.271C338.478 195.931 344.695 207.561 353.824 216.689C362.953 225.817 374.584 232.033 387.246 234.551C399.909 237.069 413.034 235.777 424.961 230.837C436.889 225.897 447.084 217.532 454.256 206.798C461.429 196.065 465.257 183.446 465.257 170.538C465.257 153.228 458.38 136.627 446.138 124.387C433.897 112.147 417.293 105.27 399.981 105.27Z" fill="#B62781"/>
</g>
<g opacity="0.75">
<path opacity="0.75" d="M1239.73 547.571C1251.76 547.571 1263.53 551.139 1273.53 557.824C1283.54 564.508 1291.34 574.009 1295.94 585.126C1300.55 596.242 1301.75 608.474 1299.4 620.274C1297.06 632.075 1291.26 642.915 1282.75 651.423C1274.24 659.931 1263.4 665.725 1251.6 668.072C1239.8 670.42 1227.56 669.215 1216.45 664.61C1205.33 660.006 1195.83 652.209 1189.14 642.204C1182.46 632.2 1178.89 620.438 1178.89 608.406C1178.92 592.281 1185.34 576.824 1196.74 565.422C1208.14 554.019 1223.6 547.6 1239.73 547.571V547.571ZM1239.73 543.139C1226.82 543.139 1214.2 546.967 1203.46 554.138C1192.73 561.31 1184.36 571.503 1179.42 583.429C1174.48 595.355 1173.19 608.479 1175.71 621.139C1178.23 633.8 1184.44 645.429 1193.57 654.557C1202.7 663.685 1214.33 669.901 1227 672.42C1239.66 674.938 1252.78 673.645 1264.71 668.705C1276.64 663.766 1286.83 655.4 1294.01 644.667C1301.18 633.934 1305.01 621.315 1305.01 608.406C1305.01 591.096 1298.13 574.495 1285.89 562.255C1273.65 550.015 1257.04 543.139 1239.73 543.139V543.139Z" fill="#B528A3"/>
</g>
<g opacity="0.75">
<path opacity="0.75" d="M1153.87 290.867C1165.91 290.867 1177.67 294.435 1187.68 301.12C1197.68 307.804 1205.48 317.305 1210.09 328.422C1214.69 339.538 1215.9 351.77 1213.55 363.57C1211.2 375.371 1205.4 386.211 1196.9 394.719C1188.39 403.227 1177.55 409.021 1165.74 411.368C1153.94 413.716 1141.71 412.511 1130.59 407.906C1119.47 403.302 1109.97 395.505 1103.28 385.5C1096.6 375.496 1093.03 363.734 1093.03 351.702C1093.06 335.577 1099.48 320.12 1110.88 308.718C1122.29 297.315 1137.75 290.896 1153.87 290.867V290.867ZM1153.87 286.435C1140.96 286.435 1128.34 290.262 1117.61 297.434C1106.87 304.606 1098.51 314.799 1093.57 326.725C1088.63 338.651 1087.33 351.775 1089.85 364.435C1092.37 377.096 1098.59 388.725 1107.72 397.853C1116.84 406.981 1128.48 413.197 1141.14 415.716C1153.8 418.234 1166.93 416.941 1178.85 412.001C1190.78 407.061 1200.98 398.696 1208.15 387.963C1215.32 377.23 1219.15 364.611 1219.15 351.702C1219.15 343.131 1217.46 334.644 1214.18 326.725C1210.9 318.807 1206.09 311.612 1200.03 305.551C1193.97 299.49 1186.77 294.683 1178.85 291.403C1170.93 288.123 1162.45 286.435 1153.87 286.435Z" fill="#B6289A"/>
</g>
<g opacity="0.75">
<path opacity="0.75" d="M934.261 109.703C946.295 109.703 958.058 113.27 968.064 119.955C978.069 126.64 985.868 136.141 990.473 147.257C995.078 158.373 996.283 170.605 993.935 182.406C991.587 194.207 985.793 205.047 977.284 213.555C968.775 222.062 957.933 227.856 946.131 230.204C934.328 232.551 922.095 231.346 910.977 226.742C899.859 222.137 890.357 214.34 883.671 204.336C876.986 194.332 873.418 182.57 873.418 170.538C873.447 154.412 879.867 138.956 891.271 127.553C902.675 116.151 918.133 109.732 934.261 109.703ZM934.261 105.27C921.35 105.27 908.73 109.098 897.995 116.27C887.261 123.441 878.894 133.635 873.953 145.561C869.013 157.487 867.72 170.61 870.239 183.271C872.757 195.931 878.974 207.561 888.104 216.689C897.233 225.817 908.864 232.033 921.526 234.551C934.188 237.069 947.313 235.777 959.241 230.837C971.169 225.897 981.364 217.532 988.536 206.798C995.709 196.065 999.537 183.446 999.537 170.538C999.537 153.228 992.66 136.627 980.418 124.387C968.176 112.147 951.573 105.27 934.261 105.27V105.27Z" fill="#B62892"/>
</g>
<g opacity="0.75">
<path opacity="0.75" d="M668.512 23.9794C680.546 23.9794 692.309 27.5473 702.315 34.232C712.32 40.9166 720.119 50.4178 724.724 61.5339C729.329 72.6501 730.534 84.882 728.186 96.6828C725.838 108.484 720.044 119.323 711.535 127.831C703.025 136.339 692.184 142.133 680.382 144.481C668.579 146.828 656.346 145.623 645.228 141.019C634.11 136.414 624.608 128.617 617.922 118.613C611.237 108.608 607.669 96.8465 607.669 84.8145C607.698 68.689 614.117 53.2324 625.521 41.83C636.925 30.4275 652.384 24.0087 668.512 23.9794V23.9794ZM668.512 19.547C655.601 19.547 642.981 23.3749 632.246 30.5466C621.512 37.7182 613.145 47.9116 608.204 59.8377C603.264 71.7638 601.971 84.8869 604.49 97.5476C607.008 110.208 613.225 121.838 622.354 130.966C631.484 140.093 643.115 146.31 655.777 148.828C668.439 151.346 681.564 150.054 693.492 145.114C705.42 140.174 715.614 131.808 722.787 121.075C729.96 110.342 733.788 97.7232 733.788 84.8145C733.788 67.5045 726.911 50.9034 714.669 38.6634C702.428 26.4234 685.824 19.547 668.512 19.547V19.547Z" fill="#B6288A"/>
</g>
<path d="M375.888 581.036H386.272C390.209 580.902 394.149 581.14 398.042 581.745C401.01 582.365 403.681 583.97 405.622 586.299C407.594 588.727 408.625 591.784 408.526 594.909C408.579 597.544 407.888 600.141 406.531 602.4C405.166 604.574 403.166 606.276 400.801 607.276C397.519 608.516 394.023 609.089 390.517 608.96L409.268 633.172H402.829L384.078 608.96H381.13V633.172H375.921L375.888 581.036ZM381.096 586.133V603.863L390.073 603.94C392.698 604.07 395.325 603.733 397.831 602.943C399.441 602.334 400.813 601.223 401.743 599.774C402.674 598.319 403.159 596.625 403.14 594.898C403.154 593.204 402.66 591.544 401.721 590.133C400.824 588.752 399.524 587.681 397.997 587.064C395.512 586.324 392.918 586.013 390.328 586.144L381.096 586.133Z" fill="#D72872"/>
<path d="M419.697 581.036H449.62V586.189H424.906V602.478H449.365V607.575H424.906V628.064H449.365V633.172H419.697V581.036Z" fill="#D72872"/>
<path d="M479.875 581.036L504.191 633.117H498.561L490.371 615.963H467.917L459.794 633.117H453.975L478.612 581.036H479.875ZM479.222 592.117L470.289 610.955H488.11L479.222 592.117Z" fill="#D72872"/>
<path d="M512.292 633.172V581.091H523.097C530.9 581.091 536.559 581.716 540.076 582.964C544.962 584.599 549.145 587.851 551.934 592.183C554.87 596.856 556.359 602.292 556.212 607.808C556.314 612.624 555.145 617.383 552.821 621.604C550.811 625.327 547.756 628.381 544.032 630.391C540.434 632.275 535.384 633.22 528.882 633.228L512.292 633.172ZM517.29 628.241H523.308C530.519 628.241 535.517 627.794 538.303 626.9C542.087 625.734 545.355 623.3 547.557 620.008C549.881 616.378 551.041 612.126 550.881 607.819C551.012 603.251 549.74 598.754 547.235 594.932C544.808 591.373 541.207 588.781 537.061 587.607C533.825 586.661 528.461 586.189 520.97 586.189H517.29V628.241Z" fill="#D72872"/>
<path d="M562.197 581.036H568.192L581.491 602.533L594.624 581.036H600.675L584.151 608.251V633.172H579.02V608.251L562.197 581.036Z" fill="#D72872"/>
<path d="M623.949 623.454L628.382 620.795C631.507 626.542 635.113 629.416 639.198 629.416C640.916 629.423 642.607 629 644.119 628.186C645.584 627.436 646.803 626.282 647.632 624.862C648.421 623.546 648.839 622.041 648.84 620.507C648.803 618.649 648.182 616.851 647.067 615.365C645.434 613.045 642.457 610.257 638.135 606.999C633.812 603.741 631.104 601.366 630.011 599.874C628.248 597.607 627.286 594.822 627.274 591.951C627.248 589.773 627.811 587.63 628.903 585.745C629.99 583.87 631.579 582.335 633.491 581.313C635.466 580.238 637.681 579.681 639.93 579.695C642.349 579.686 644.727 580.317 646.823 581.523C649.517 583.277 651.825 585.562 653.606 588.239L649.35 591.463C647.995 589.469 646.299 587.728 644.341 586.322C642.975 585.503 641.411 585.074 639.819 585.08C638.876 585.044 637.935 585.195 637.051 585.524C636.166 585.853 635.356 586.354 634.666 586.997C634.016 587.598 633.502 588.329 633.156 589.143C632.81 589.956 632.641 590.834 632.66 591.718C632.654 592.864 632.896 593.998 633.369 595.042C634.016 596.343 634.891 597.518 635.951 598.511C636.638 599.176 638.884 600.915 642.689 603.73C647.204 607.054 650.299 610.009 651.977 612.595C653.565 614.899 654.44 617.62 654.492 620.418C654.502 622.271 654.125 624.105 653.384 625.803C652.644 627.502 651.557 629.026 650.192 630.28C648.812 631.641 647.173 632.712 645.373 633.429C643.572 634.147 641.646 634.496 639.708 634.458C636.649 634.489 633.65 633.605 631.097 631.92C628.063 629.72 625.61 626.814 623.949 623.454V623.454Z" fill="#D72872"/>
<path d="M690.367 579.717C694.035 579.622 697.685 580.275 701.094 581.635C704.502 582.995 707.598 585.034 710.193 587.629C714.047 591.461 716.674 596.352 717.741 601.681C718.809 607.009 718.269 612.534 716.189 617.555C714.109 622.576 710.584 626.865 706.062 629.878C701.539 632.892 696.223 634.493 690.788 634.48C687.156 634.558 683.546 633.894 680.179 632.53C676.812 631.166 673.758 629.13 671.205 626.546C668.629 624.06 666.592 621.072 665.219 617.767C663.846 614.462 663.168 610.91 663.225 607.331C663.188 602.449 664.442 597.644 666.861 593.402C669.207 589.237 672.622 585.772 676.754 583.367C680.886 580.961 685.585 579.701 690.367 579.717V579.717ZM690.588 584.792C686.726 584.79 682.935 585.831 679.617 587.806C676.239 589.737 673.444 592.543 671.526 595.929C669.568 599.399 668.563 603.325 668.612 607.309C668.582 610.212 669.129 613.091 670.221 615.781C671.313 618.471 672.927 620.917 674.971 622.979C677.016 625.04 679.448 626.675 682.129 627.79C684.81 628.904 687.685 629.476 690.588 629.471C694.529 629.5 698.407 628.483 701.826 626.524C705.205 624.631 707.997 621.844 709.894 618.468C711.839 615.005 712.837 611.091 712.787 607.121C712.839 603.188 711.841 599.313 709.894 595.895C707.944 592.535 705.127 589.76 701.737 587.862C698.362 585.861 694.512 584.801 690.588 584.792V584.792Z" fill="#D72872"/>
<path d="M728.624 581.036H733.844V628.13H753.903V633.172H728.624V581.036Z" fill="#D72872"/>
<path d="M762.337 581.036H767.546V612.506C767.491 614.836 767.565 617.166 767.767 619.487C767.941 621.326 768.561 623.095 769.574 624.64C770.689 626.168 772.193 627.37 773.929 628.119C775.772 629.023 777.795 629.5 779.847 629.516C781.564 629.515 783.259 629.136 784.812 628.407C786.35 627.707 787.707 626.665 788.78 625.36C789.89 623.977 790.688 622.371 791.118 620.651C791.58 617.958 791.759 615.225 791.65 612.495V581.025H796.837V612.495C796.948 616.307 796.485 620.113 795.463 623.787C794.46 626.786 792.556 629.402 790.01 631.278C787.17 633.443 783.673 634.569 780.102 634.469C776.276 634.576 772.506 633.525 769.286 631.455C766.397 629.593 764.264 626.766 763.268 623.476C762.625 621.452 762.304 617.792 762.304 612.495L762.337 581.036Z" fill="#D72872"/>
<path d="M804.528 586.189V581.091H833.099V586.189H821.462V633.172H816.154V586.189H804.528Z" fill="#D72872"/>
<path d="M839.859 581.036H845.079V633.117H839.859V581.036Z" fill="#D72872"/>
<path d="M881.851 579.717C885.52 579.621 889.17 580.273 892.579 581.633C895.988 582.994 899.084 585.034 901.678 587.629C905.536 591.459 908.168 596.349 909.239 601.678C910.31 607.007 909.771 612.534 907.692 617.557C905.613 622.579 902.087 626.87 897.563 629.883C893.038 632.897 887.72 634.497 882.284 634.48C878.651 634.558 875.042 633.895 871.675 632.531C868.307 631.166 865.254 629.13 862.701 626.546C860.125 624.061 858.088 621.073 856.715 617.767C855.342 614.462 854.664 610.91 854.721 607.331C854.684 602.449 855.938 597.644 858.356 593.402C860.689 589.218 864.113 585.744 868.264 583.352C872.388 580.95 877.079 579.695 881.851 579.717V579.717ZM882.084 584.792C878.218 584.823 874.426 585.862 871.083 587.805C867.74 589.748 864.962 592.529 863.022 595.873C861.059 599.342 860.053 603.269 860.107 607.254C860.077 610.157 860.623 613.037 861.714 615.728C862.805 618.418 864.42 620.865 866.464 622.927C868.508 624.988 870.942 626.623 873.623 627.737C876.305 628.851 879.18 629.422 882.084 629.416C886.024 629.441 889.901 628.424 893.322 626.468C896.697 624.574 899.485 621.787 901.379 618.412C903.324 614.95 904.321 611.036 904.271 607.065C904.324 603.133 903.325 599.258 901.379 595.84C899.437 592.478 896.622 589.702 893.233 587.807C889.852 585.827 886.003 584.786 882.084 584.792V584.792Z" fill="#D72872"/>
<path d="M920.153 633.172V581.091H921.261L955.961 621.05V581.036H961.103V633.117H959.928L925.506 593.635V633.172H920.153Z" fill="#D72872"/>
<path d="M83.1858 615.066C81.0592 612.676 79.4771 609.853 78.549 606.792C77.621 603.73 77.3691 600.504 77.8108 597.336C78.4876 591.77 81.301 586.684 85.6572 583.152C89.9549 579.598 95.4297 577.785 101 578.071C106.57 578.358 111.829 580.723 115.74 584.7C119.65 588.676 121.926 593.975 122.118 599.548C122.31 605.121 120.404 610.564 116.777 614.8C114.882 617.081 112.537 618.947 109.888 620.281C107.24 621.616 104.345 622.39 101.383 622.557C98.4331 622.777 95.4686 622.399 92.6675 621.447C89.8664 620.495 87.2861 618.988 85.0809 617.016L84.9147 617.238C84.4235 617.987 84.1024 618.834 83.9741 619.721C83.8458 620.607 83.9134 621.511 84.1722 622.368C84.2044 622.44 84.212 622.52 84.194 622.596C84.1759 622.672 84.1332 622.74 84.0724 622.789L71.8816 634.978C71.4552 635.458 70.9353 635.846 70.3537 636.117C69.7721 636.389 69.1411 636.539 68.4995 636.557C67.8579 636.576 67.2192 636.464 66.6227 636.227C66.0261 635.99 65.4842 635.634 65.0304 635.18C64.5765 634.726 64.2202 634.185 63.9833 633.588C63.7464 632.992 63.634 632.353 63.6529 631.711C63.6717 631.07 63.8216 630.439 64.0931 629.858C64.3647 629.276 64.7523 628.756 65.2321 628.33L70.8288 622.789L77.4783 616.141C77.5383 616.064 77.6212 616.009 77.715 615.983C77.8088 615.957 77.9084 615.962 77.9992 615.997C78.8554 616.246 79.7556 616.308 80.6377 616.176C81.5198 616.044 82.3627 615.722 83.1082 615.232L83.1858 615.066ZM116.888 600.273C116.888 596.907 115.89 593.616 114.02 590.818C112.15 588.019 109.492 585.837 106.382 584.549C103.272 583.26 99.85 582.922 96.5482 583.578C93.2464 584.234 90.2132 585.854 87.832 588.233C85.4509 590.613 83.8288 593.644 83.1707 596.945C82.5126 600.246 82.8482 603.668 84.1349 606.778C85.4216 609.889 87.6017 612.548 90.3997 614.419C93.1976 616.291 96.4877 617.291 99.854 617.293C104.369 617.29 108.698 615.496 111.892 612.305C115.085 609.114 116.882 604.787 116.888 600.273V600.273Z" fill="#E8E8E8"/>
<path d="M85.6904 599.885C85.7806 596.631 86.9873 593.507 89.1082 591.037C91.229 588.568 94.1349 586.903 97.3382 586.322C98.1344 586.197 98.9376 586.123 99.7431 586.1C100.018 586.08 100.295 586.117 100.555 586.209C100.815 586.301 101.054 586.446 101.256 586.634C101.457 586.822 101.618 587.05 101.728 587.303C101.838 587.556 101.894 587.83 101.893 588.106C101.89 588.382 101.832 588.655 101.722 588.909C101.611 589.162 101.451 589.391 101.25 589.581C101.05 589.771 100.813 589.919 100.554 590.016C100.295 590.113 100.019 590.156 99.7431 590.145C97.8973 590.157 96.0912 590.682 94.5259 591.66C92.9606 592.638 91.6974 594.032 90.8771 595.685C90.1368 597.092 89.7561 598.661 89.7688 600.25C89.7879 600.785 89.5937 601.306 89.229 601.698C88.8642 602.089 88.3588 602.32 87.8238 602.339C87.2889 602.358 86.7682 602.164 86.3765 601.8C85.9847 601.435 85.7539 600.929 85.7348 600.395L85.6904 599.885Z" fill="#E8E8E8"/>
<path d="M195.419 330.027H206.236C206.472 330.011 206.71 330.045 206.932 330.129C207.154 330.212 207.355 330.342 207.523 330.511C207.69 330.679 207.819 330.881 207.901 331.104C207.983 331.326 208.016 331.564 207.998 331.8C207.998 335.812 207.998 339.827 207.998 343.845C208.029 344.104 208.001 344.367 207.915 344.613C207.828 344.859 207.686 345.082 207.5 345.264C207.313 345.447 207.087 345.583 206.839 345.664C206.591 345.745 206.327 345.767 206.069 345.729H195.419C195.419 346.117 195.364 346.461 195.364 346.837C195.364 357.918 195.364 369 195.364 380.081C195.386 380.917 195.239 381.749 194.93 382.526C194.62 383.303 194.156 384.01 193.565 384.602C192.974 385.194 192.268 385.659 191.492 385.97C190.715 386.28 189.883 386.429 189.047 386.408C181.787 386.341 174.517 386.408 167.258 386.408C165.978 386.453 164.719 386.079 163.671 385.343C162.623 384.607 161.843 383.549 161.451 382.33C161.249 381.726 161.144 381.094 161.141 380.457C161.141 361.361 161.141 342.272 161.141 323.19C161.116 322.381 161.257 321.576 161.555 320.824C161.853 320.071 162.302 319.387 162.874 318.815C163.446 318.242 164.129 317.792 164.881 317.493C165.633 317.193 166.438 317.051 167.247 317.074C174.617 317.074 181.998 317.074 189.412 317.074C190.552 317.033 191.678 317.338 192.641 317.95C193.605 318.561 194.361 319.449 194.809 320.498C195.161 321.318 195.349 322.199 195.364 323.091C195.441 325.174 195.364 327.257 195.364 329.351C195.364 329.529 195.397 329.739 195.419 330.027ZM186.553 345.74H183.971C182.608 345.74 182.009 345.142 182.009 343.768V331.911C181.984 331.653 182.017 331.393 182.106 331.15C182.195 330.906 182.337 330.686 182.521 330.504C182.706 330.323 182.929 330.184 183.174 330.1C183.419 330.016 183.68 329.987 183.937 330.016H192.959H193.701C193.701 328.52 193.701 327.102 193.701 325.684C193.701 324.753 193.557 324.576 192.648 324.576H163.944C163.025 324.576 162.836 324.72 162.836 325.684C162.836 343.037 162.836 360.397 162.836 377.765C162.836 378.695 162.98 378.873 163.944 378.873H192.582C193.513 378.873 193.69 378.718 193.69 377.765V346.206C193.69 345.884 193.59 345.751 193.247 345.729C192.658 345.618 192.05 345.645 191.473 345.808C190.896 345.972 190.365 346.267 189.922 346.671C189.297 347.221 188.63 347.722 187.927 348.167L185.977 349.552L186.553 345.74ZM175.903 382.474C175.881 382.797 175.927 383.121 176.038 383.426C176.148 383.73 176.321 384.008 176.546 384.241C176.77 384.475 177.04 384.659 177.34 384.782C177.64 384.905 177.962 384.965 178.285 384.956C178.929 384.956 179.546 384.701 180.002 384.246C180.457 383.79 180.712 383.173 180.712 382.53C180.712 381.886 180.457 381.269 180.002 380.814C179.546 380.358 178.929 380.103 178.285 380.103C177.969 380.092 177.654 380.146 177.359 380.261C177.064 380.376 176.795 380.549 176.569 380.771C176.343 380.993 176.165 381.258 176.045 381.551C175.924 381.844 175.865 382.158 175.869 382.474H175.903ZM178.274 321.528C179.172 321.528 180.07 321.528 180.956 321.528C181.134 321.528 181.311 321.318 181.477 321.207C181.322 321.096 181.156 320.897 180.989 320.886C179.205 320.886 177.41 320.886 175.614 320.886C175.448 320.886 175.293 321.085 175.127 321.196C175.304 321.307 175.47 321.506 175.648 321.517C176.49 321.528 177.321 321.506 178.241 321.506L178.274 321.528ZM174.285 321.163C173.908 320.93 173.664 320.675 173.487 320.708C173.309 320.741 173.121 321.063 172.932 321.251C173.143 321.417 173.331 321.706 173.564 321.728C173.797 321.75 173.908 321.417 174.251 321.14L174.285 321.163Z" fill="#E8E8E8"/>
<path d="M382.249 188.29V179.513C381.939 179.513 381.695 179.513 381.44 179.513C379.223 179.513 377.062 179.513 374.89 179.403C373.318 179.266 371.853 178.554 370.775 177.402C369.696 176.25 369.082 174.741 369.05 173.164C368.994 165.673 369.05 158.193 369.05 150.703C369.036 149.272 369.513 147.88 370.402 146.758C371.033 145.914 371.858 145.234 372.807 144.775C373.756 144.316 374.801 144.091 375.854 144.12C378.692 144.12 381.529 144.12 384.366 144.12C391.647 144.12 398.917 144.12 406.187 144.12C407.283 144.06 408.377 144.266 409.375 144.721C410.373 145.177 411.245 145.868 411.917 146.736C412.771 147.773 413.244 149.071 413.258 150.414C413.258 157.44 413.258 164.458 413.258 171.468C413.304 172.49 413.225 173.513 413.025 174.516C412.647 175.996 411.771 177.301 410.544 178.211C409.317 179.121 407.814 179.581 406.287 179.513C402.43 179.513 398.529 179.513 394.695 179.513C394.298 179.537 393.915 179.667 393.586 179.89C389.974 182.561 386.383 185.264 382.781 187.957L382.249 188.29ZM386.682 179.425L387.181 179.081C388.81 177.873 390.428 176.643 392.068 175.458C392.396 175.231 392.779 175.097 393.176 175.07C397.488 175.07 401.788 175.07 406.099 175.07C408.027 175.07 408.825 174.316 408.825 172.41C408.825 165.259 408.825 158.119 408.825 150.991C408.863 150.656 408.825 150.317 408.712 149.999C408.6 149.682 408.416 149.394 408.176 149.158C407.936 148.922 407.645 148.743 407.325 148.637C407.005 148.53 406.666 148.497 406.331 148.542H375.921C375.588 148.499 375.249 148.533 374.931 148.641C374.613 148.748 374.323 148.927 374.084 149.163C373.845 149.398 373.662 149.686 373.551 150.002C373.439 150.319 373.4 150.657 373.438 150.991C373.438 151.19 373.438 151.39 373.438 151.578V172.477C373.438 174.272 374.247 175.092 376.032 175.092H386.682V179.425Z" fill="#E8E8E8"/>
<path d="M417.702 201.576C416.383 200.601 415.197 199.725 414.023 198.839C411.485 196.944 408.969 195.038 406.42 193.154C406.095 192.924 405.71 192.793 405.312 192.777C401.4 192.777 397.488 192.777 393.575 192.777C392.498 192.802 391.431 192.565 390.466 192.087C389.5 191.608 388.666 190.902 388.034 190.029C387.968 189.941 387.923 189.841 387.846 189.719L391.37 187.071C392.068 188.367 393.254 188.367 394.495 188.356C398.618 188.356 402.748 188.356 406.886 188.356C407.245 188.37 407.591 188.49 407.883 188.7C409.501 189.885 411.097 191.104 412.704 192.312C412.87 192.434 413.059 192.534 413.313 192.711V188.378H414.045H424.019C425.748 188.378 426.59 187.58 426.59 185.885C426.59 178.66 426.59 171.432 426.59 164.199C426.623 163.887 426.586 163.571 426.481 163.274C426.377 162.978 426.207 162.708 425.986 162.485C425.764 162.262 425.495 162.092 425.199 161.986C424.903 161.88 424.587 161.841 424.274 161.872H417.78V157.44C420.063 157.44 422.312 157.373 424.551 157.44C425.528 157.485 426.485 157.726 427.366 158.149C428.442 158.62 429.356 159.396 429.996 160.381C430.636 161.365 430.974 162.515 430.968 163.69C431.046 170.704 430.968 177.707 430.968 184.744C431.017 185.787 430.943 186.832 430.746 187.857C430.384 189.3 429.543 190.576 428.362 191.48C427.18 192.383 425.728 192.86 424.241 192.833C422.102 192.833 419.963 192.833 417.735 192.833L417.702 201.576Z" fill="#E8E8E8"/>
<path d="M417.724 166.216H422.091V170.648H417.724V166.216Z" fill="#E8E8E8"/>
<path d="M417.702 179.513V175.081H422.135V179.513H417.702Z" fill="#E8E8E8"/>
<path d="M404.392 152.985V157.351H377.916V152.996L404.392 152.985Z" fill="#E8E8E8"/>
<path d="M377.916 166.216V161.906H395.548V166.216H377.916Z" fill="#E8E8E8"/>
<path d="M668.512 108.794H643.277C642.416 108.849 641.56 108.625 640.835 108.156C640.111 107.687 639.556 106.998 639.254 106.19C639.063 105.607 638.966 104.997 638.966 104.384C638.966 99.2089 638.966 94.0451 638.966 88.8702V65.0459C638.943 64.0909 639.255 63.1579 639.848 62.409C640.441 61.6601 641.278 61.1424 642.213 60.9459C642.578 60.8742 642.95 60.8445 643.321 60.8573H693.326C693.918 60.8401 694.509 60.8959 695.088 61.0235C695.957 61.2627 696.72 61.7851 697.259 62.5077C697.797 63.2304 698.078 64.112 698.058 65.0127V104.495C698.09 105.067 698.001 105.639 697.797 106.174C697.593 106.71 697.278 107.196 696.873 107.602C696.469 108.007 695.983 108.323 695.448 108.529C694.913 108.734 694.341 108.824 693.769 108.794H668.512ZM694.434 90.7429H694.511V76.2267C694.511 73.0243 694.511 69.8219 694.511 66.6195C694.539 66.3216 694.5 66.0214 694.398 65.7401C694.297 65.4589 694.134 65.2034 693.923 64.9919C693.711 64.7804 693.456 64.6181 693.174 64.5163C692.893 64.4146 692.593 64.376 692.295 64.4032H644.64C644.095 64.3746 643.558 64.5482 643.133 64.8908C642.892 65.1026 642.702 65.366 642.577 65.6616C642.452 65.9571 642.396 66.277 642.412 66.5973C642.412 74.8638 642.412 83.1302 642.412 91.3967C642.412 91.4854 642.412 91.574 642.412 91.7291L643.277 91.0754L658.792 79.3848L658.937 79.274C659.163 79.0735 659.427 78.9212 659.714 78.8267C660.001 78.7321 660.305 78.6973 660.606 78.7243C660.907 78.7512 661.199 78.8395 661.465 78.9836C661.73 79.1277 661.964 79.3246 662.15 79.5621L675.449 92.66L676.447 93.6129L677.145 93.081L685.479 85.3243C685.696 85.0861 685.961 84.8957 686.256 84.7655C686.55 84.6353 686.869 84.568 687.191 84.568C687.514 84.568 687.833 84.6353 688.127 84.7655C688.422 84.8957 688.687 85.0861 688.904 85.3243L692.517 88.8592L694.434 90.7429ZM683.429 105.148V105.049L660.289 83.1081L659.978 83.3297L642.789 96.3167C642.699 96.3775 642.627 96.4604 642.578 96.5574C642.53 96.6545 642.507 96.7624 642.512 96.8708C642.512 98.8986 642.512 100.938 642.512 102.965C642.483 103.264 642.52 103.565 642.621 103.847C642.722 104.129 642.884 104.385 643.096 104.597C643.308 104.809 643.565 104.972 643.847 105.073C644.129 105.174 644.43 105.211 644.729 105.182H683.462L683.429 105.148ZM679.428 96.1283C679.434 96.1539 679.434 96.1803 679.428 96.2059L688.56 104.993C688.67 105.083 688.806 105.133 688.948 105.137C690.123 105.137 691.298 105.137 692.461 105.137C692.728 105.143 692.993 105.095 693.24 104.996C693.488 104.897 693.712 104.749 693.901 104.56C694.089 104.372 694.238 104.147 694.337 103.899C694.436 103.652 694.484 103.387 694.478 103.12C694.478 100.694 694.478 98.267 694.478 95.8513C694.47 95.7098 694.411 95.576 694.312 95.4746C692.554 93.8272 690.788 92.1798 689.015 90.5324L687.119 88.7373L679.428 96.1283Z" fill="#E8E8E8"/>
<path d="M678.774 69.578C679.926 69.5802 681.051 69.9234 682.008 70.5642C682.964 71.205 683.71 72.1148 684.15 73.1787C684.59 74.2427 684.705 75.4131 684.481 76.5424C684.256 77.6717 683.703 78.7093 682.889 79.5242C682.076 80.3391 681.039 80.8949 679.91 81.1214C678.781 81.3479 677.61 81.235 676.545 80.7969C675.48 80.3588 674.569 79.6152 673.926 78.6598C673.283 77.7045 672.938 76.5802 672.934 75.4288C672.931 74.6606 673.08 73.8994 673.372 73.1889C673.664 72.4785 674.094 71.8328 674.637 71.2891C675.18 70.7453 675.825 70.3143 676.535 70.0206C677.245 69.727 678.006 69.5765 678.774 69.578V69.578ZM678.774 78.5094C679.39 78.505 679.991 78.3188 680.501 77.9742C681.011 77.6297 681.408 77.1421 681.643 76.5726C681.877 76.0032 681.937 75.3773 681.817 74.7735C681.696 74.1697 681.4 73.615 680.966 73.1788C680.531 72.7427 679.977 72.4447 679.374 72.3222C678.77 72.1997 678.144 72.2581 677.574 72.4902C677.004 72.7223 676.514 73.1176 676.168 73.6266C675.822 74.1356 675.633 74.7356 675.627 75.3513C675.621 75.7639 675.697 76.1736 675.851 76.5565C676.005 76.9394 676.233 77.2879 676.523 77.5817C676.813 77.8756 677.158 78.1089 677.539 78.2682C677.92 78.4274 678.328 78.5094 678.741 78.5094H678.774Z" fill="#E8E8E8"/>
<path d="M948.668 144.597C949.145 144.663 949.632 144.708 950.12 144.796C952.599 145.229 954.874 146.447 956.608 148.271C958.342 150.094 959.444 152.427 959.751 154.924C960.008 156.625 959.892 158.361 959.412 160.012C958.931 161.663 958.098 163.19 956.969 164.487C955.87 165.79 954.493 166.831 952.94 167.535C951.387 168.239 949.697 168.587 947.992 168.554H928.298C925.55 168.554 922.757 168.621 920.042 168.554C917.325 168.472 914.723 167.446 912.682 165.652C910.641 163.858 909.289 161.408 908.86 158.725C908.804 158.36 908.76 157.983 908.704 157.617V155.623C908.704 155.224 908.804 154.825 908.871 154.426C909.275 152.037 910.407 149.832 912.113 148.112C913.82 146.392 916.016 145.242 918.402 144.819C918.889 144.741 919.388 144.686 919.887 144.619L948.668 144.597ZM934.261 147.81H920.596C919.183 147.772 917.783 148.093 916.527 148.742C915.271 149.391 914.2 150.348 913.415 151.523C912.746 152.513 912.285 153.628 912.058 154.801C911.831 155.974 911.844 157.181 912.096 158.349C912.419 160.141 913.308 161.783 914.632 163.033C915.956 164.283 917.646 165.077 919.455 165.296C920.408 165.385 921.361 165.363 922.314 165.363H947.948C949.173 165.388 950.389 165.138 951.505 164.631C953.357 163.818 954.871 162.392 955.792 160.592C956.714 158.793 956.987 156.731 956.565 154.753C956.144 152.776 955.053 151.005 953.477 149.738C951.901 148.471 949.937 147.787 947.915 147.799L934.261 147.81Z" fill="#E8E8E8"/>
<path d="M908.704 183.525C908.782 183.037 908.815 182.527 908.926 182.051C909.344 179.82 910.407 177.76 911.982 176.125C913.558 174.491 915.578 173.354 917.792 172.854C918.986 172.595 920.207 172.491 921.427 172.543H937.918C941.42 172.543 944.933 172.543 948.447 172.543C951.1 172.638 953.642 173.631 955.656 175.361C957.67 177.091 959.035 179.454 959.529 182.062C960.076 184.752 959.685 187.548 958.421 189.985C957.509 191.871 956.096 193.471 954.338 194.61C952.579 195.75 950.541 196.384 948.447 196.445C946.784 196.534 945.122 196.445 943.448 196.445H920.651C919.008 196.476 917.378 196.158 915.867 195.512C914.356 194.867 912.999 193.908 911.885 192.7C910.07 190.801 908.962 188.337 908.749 185.719C908.755 185.649 908.755 185.578 908.749 185.508L908.704 183.525ZM934.194 193.32H947.704C949.275 193.386 950.834 193.012 952.204 192.241C953.574 191.469 954.703 190.331 955.462 188.954C956.522 187.07 956.864 184.866 956.426 182.749C956.074 180.838 955.08 179.105 953.609 177.835C952.138 176.566 950.278 175.837 948.336 175.768C946.008 175.768 943.67 175.768 941.332 175.768H920.696C919.051 175.777 917.441 176.244 916.047 177.115C914.652 177.987 913.527 179.229 912.798 180.703C912.069 182.177 911.764 183.825 911.918 185.462C912.072 187.099 912.678 188.661 913.669 189.974C914.493 191.05 915.563 191.914 916.79 192.493C918.016 193.071 919.363 193.347 920.718 193.298L934.194 193.32Z" fill="#E8E8E8"/>
<path d="M928.143 156.298C928.148 157.674 927.744 159.019 926.983 160.165C926.222 161.31 925.138 162.204 923.869 162.733C922.6 163.262 921.202 163.403 919.853 163.138C918.503 162.872 917.263 162.212 916.289 161.241C915.315 160.271 914.651 159.033 914.381 157.684C914.111 156.336 914.247 154.938 914.773 153.667C915.298 152.396 916.189 151.31 917.332 150.545C918.475 149.781 919.819 149.373 921.195 149.373C923.033 149.376 924.795 150.106 926.097 151.403C927.399 152.701 928.134 154.461 928.143 156.298V156.298ZM924.951 156.298C924.958 155.554 924.743 154.825 924.335 154.202C923.926 153.58 923.341 153.094 922.655 152.804C921.97 152.515 921.213 152.436 920.482 152.577C919.751 152.718 919.079 153.073 918.55 153.597C918.021 154.121 917.66 154.79 917.512 155.52C917.365 156.25 917.437 157.007 917.72 157.695C918.004 158.383 918.485 158.972 919.104 159.386C919.722 159.801 920.45 160.022 921.195 160.022C922.179 160.025 923.124 159.641 923.827 158.952C924.53 158.264 924.934 157.326 924.951 156.343V156.298Z" fill="#E8E8E8"/>
<path d="M944.745 150.204C945.859 150.139 946.976 150.217 948.07 150.437C949.499 150.742 950.813 151.445 951.86 152.465C952.907 153.484 953.644 154.778 953.988 156.199C954.118 156.826 954.181 157.465 954.176 158.105C954.187 158.216 954.174 158.329 954.139 158.436C954.104 158.542 954.047 158.64 953.972 158.723C953.897 158.807 953.806 158.874 953.703 158.92C953.601 158.966 953.49 158.99 953.378 158.991C953.267 158.989 953.157 158.963 953.055 158.917C952.954 158.87 952.863 158.803 952.788 158.72C952.713 158.637 952.656 158.54 952.621 158.434C952.585 158.328 952.571 158.216 952.58 158.105C952.636 157.04 952.394 155.981 951.882 155.046C951.417 154.201 950.759 153.478 949.962 152.935C949.165 152.392 948.251 152.045 947.294 151.921C946.433 151.825 945.567 151.785 944.701 151.8C944.058 151.8 943.415 151.8 942.772 151.8C942.663 151.806 942.554 151.789 942.452 151.752C942.349 151.715 942.255 151.657 942.175 151.583C942.096 151.508 942.032 151.418 941.988 151.318C941.944 151.219 941.92 151.111 941.919 151.002C941.919 150.893 941.941 150.786 941.984 150.686C942.027 150.586 942.089 150.496 942.168 150.421C942.247 150.347 942.34 150.289 942.442 150.251C942.544 150.214 942.653 150.198 942.761 150.204H944.745Z" fill="#E8E8E8"/>
<path d="M938.694 151.811H937.907C937.701 151.802 937.507 151.714 937.364 151.566C937.222 151.417 937.142 151.219 937.142 151.013C937.139 150.911 937.157 150.811 937.193 150.716C937.229 150.621 937.284 150.535 937.354 150.462C937.425 150.389 937.509 150.33 937.602 150.29C937.694 150.249 937.795 150.228 937.896 150.226C938.45 150.226 939.004 150.226 939.569 150.226C939.671 150.229 939.772 150.252 939.865 150.294C939.958 150.335 940.042 150.395 940.112 150.469C940.182 150.543 940.236 150.63 940.273 150.725C940.309 150.821 940.326 150.922 940.323 151.024C940.32 151.23 940.238 151.427 940.093 151.573C939.949 151.72 939.753 151.805 939.547 151.811H938.694Z" fill="#E8E8E8"/>
<path d="M953.777 184.256C953.777 185.632 953.369 186.977 952.603 188.121C951.838 189.264 950.75 190.155 949.477 190.679C948.205 191.204 946.806 191.339 945.456 191.067C944.107 190.795 942.869 190.129 941.899 189.153C940.929 188.177 940.271 186.935 940.008 185.584C939.745 184.234 939.889 182.835 940.421 181.566C940.954 180.298 941.852 179.216 943 178.458C944.149 177.699 945.497 177.299 946.873 177.308C948.708 177.32 950.464 178.057 951.758 179.359C953.051 180.661 953.777 182.421 953.777 184.256V184.256ZM943.083 184.256C943.08 184.997 943.298 185.723 943.708 186.34C944.119 186.957 944.703 187.439 945.387 187.724C946.072 188.009 946.825 188.085 947.552 187.942C948.28 187.799 948.948 187.443 949.473 186.919C949.998 186.396 950.356 185.729 950.502 185.002C950.647 184.275 950.574 183.521 950.29 182.836C950.007 182.151 949.527 181.566 948.911 181.154C948.295 180.742 947.57 180.522 946.829 180.522C945.847 180.536 944.911 180.934 944.219 181.63C943.528 182.325 943.135 183.264 943.127 184.245L943.083 184.256Z" fill="#E8E8E8"/>
<path d="M921.527 177.873H921.871C921.984 177.86 922.099 177.871 922.208 177.905C922.317 177.939 922.417 177.996 922.503 178.072C922.588 178.148 922.656 178.241 922.703 178.345C922.75 178.45 922.774 178.563 922.774 178.677C922.774 178.791 922.75 178.904 922.703 179.008C922.656 179.112 922.588 179.205 922.503 179.281C922.417 179.357 922.317 179.414 922.208 179.448C922.099 179.483 921.984 179.493 921.871 179.48C920.806 179.486 919.76 179.764 918.833 180.288C917.906 180.812 917.128 181.563 916.573 182.472C916.502 182.634 916.383 182.77 916.233 182.863C916.082 182.956 915.907 183.001 915.731 182.993C915.594 182.981 915.462 182.933 915.349 182.855C915.235 182.777 915.144 182.671 915.084 182.547C915.023 182.423 914.996 182.286 915.005 182.149C915.013 182.011 915.057 181.878 915.132 181.763C915.611 180.934 916.243 180.205 916.994 179.613C918.285 178.572 919.871 177.963 921.527 177.873V177.873Z" fill="#E8E8E8"/>
<path d="M915.886 185.741C915.89 185.846 915.874 185.95 915.838 186.049C915.802 186.147 915.747 186.238 915.676 186.315C915.605 186.392 915.519 186.454 915.424 186.498C915.329 186.543 915.226 186.568 915.121 186.572C915.016 186.576 914.912 186.56 914.813 186.524C914.715 186.488 914.624 186.433 914.547 186.362C914.47 186.291 914.408 186.205 914.363 186.11C914.319 186.015 914.294 185.912 914.29 185.807C914.29 185.552 914.235 185.298 914.224 185.043C914.205 184.938 914.208 184.83 914.234 184.727C914.26 184.623 914.307 184.526 914.373 184.442C914.439 184.359 914.522 184.29 914.617 184.24C914.711 184.191 914.815 184.162 914.922 184.156C915.04 184.152 915.158 184.171 915.269 184.213C915.379 184.255 915.481 184.318 915.566 184.4C915.652 184.482 915.721 184.58 915.768 184.688C915.815 184.796 915.84 184.913 915.842 185.032C915.853 185.264 915.875 185.497 915.886 185.741Z" fill="#E8E8E8"/>
<path d="M1181.65 343.391C1181.62 343.544 1181.57 343.693 1181.51 343.835C1181.19 344.344 1180.87 344.854 1180.54 345.364L1178.75 348.034C1178.58 348.3 1178.37 348.555 1178.21 348.843C1178.15 349.011 1178.15 349.197 1178.21 349.364C1178.73 350.661 1179.32 351.946 1179.82 353.231C1179.88 353.456 1179.98 353.67 1180.12 353.863C1180.26 354.012 1180.44 354.116 1180.64 354.162L1183.96 354.805L1186.08 355.182C1186.27 355.199 1186.45 355.289 1186.57 355.434C1186.69 355.579 1186.76 355.767 1186.74 355.957V363.071C1186.76 363.244 1186.72 363.417 1186.61 363.556C1186.5 363.694 1186.35 363.786 1186.18 363.814C1185.07 364.035 1183.96 364.246 1182.85 364.445C1182.11 364.589 1181.37 364.733 1180.64 364.833C1179.91 364.933 1179.92 365.443 1179.74 365.853C1179.25 366.961 1178.82 368.135 1178.37 369.277C1178.37 369.376 1178.22 369.454 1178.21 369.554C1178.15 369.779 1178.15 370.016 1178.21 370.241C1178.74 371.083 1179.32 371.892 1179.87 372.723C1180.43 373.554 1180.8 374.208 1181.31 374.939C1181.82 375.67 1181.61 375.914 1181.14 376.391C1180.14 377.41 1179.13 378.408 1178.12 379.405C1177.51 380.014 1176.89 380.624 1176.26 381.222C1176.14 381.329 1175.99 381.388 1175.83 381.388C1175.68 381.388 1175.52 381.329 1175.41 381.222C1173.84 380.203 1172.26 379.216 1170.73 378.175C1170.56 378.034 1170.36 377.949 1170.14 377.931C1169.93 377.913 1169.71 377.964 1169.52 378.075C1168.41 378.574 1167.31 378.995 1166.2 379.46C1165.94 379.552 1165.69 379.667 1165.45 379.804C1165.04 380.059 1165.06 380.535 1164.98 380.912C1164.76 382.02 1164.56 383.128 1164.36 384.236C1164.3 384.754 1164.21 385.268 1164.09 385.776C1163.91 386.452 1163.8 386.497 1163.13 386.497H1156.21C1156.01 386.493 1155.81 386.415 1155.66 386.279C1155.51 386.143 1155.42 385.956 1155.39 385.754C1155.23 384.746 1155.04 383.749 1154.86 382.74C1154.72 381.965 1154.57 381.178 1154.44 380.391C1154.43 380.229 1154.38 380.072 1154.28 379.942C1154.18 379.811 1154.05 379.713 1153.9 379.66C1152.79 379.228 1151.68 378.74 1150.57 378.275C1150.21 378.118 1149.84 377.985 1149.46 377.876C1149.3 377.832 1149.13 377.852 1148.99 377.931C1147.64 378.806 1146.33 379.693 1144.98 380.579C1144.64 380.831 1144.27 381.05 1143.88 381.233C1143.66 381.321 1143.42 381.321 1143.2 381.233C1142.97 381.087 1142.75 380.908 1142.57 380.701L1138.21 376.346C1137.66 375.781 1137.64 375.571 1138.07 374.906C1139.04 373.432 1140.01 371.947 1141.01 370.473C1141.38 369.919 1141.14 369.454 1140.94 368.966C1140.74 368.479 1140.42 367.692 1140.15 367.049C1139.89 366.407 1139.69 365.941 1139.42 365.321C1139.36 365.176 1139.25 365.051 1139.13 364.957C1139 364.864 1138.85 364.806 1138.69 364.789C1136.95 364.49 1135.21 364.179 1133.48 363.847C1132.78 363.714 1132.65 363.526 1132.65 362.828V356.112C1132.65 355.448 1132.9 355.193 1133.55 355.093C1134.19 354.993 1135.09 354.838 1135.85 354.672C1136.3 354.572 1136.37 354.351 1136.26 353.918C1136.15 353.486 1136.14 353.276 1136.04 352.965C1135.98 352.76 1135.85 352.581 1135.68 352.456C1134.78 352.046 1133.87 351.625 1132.93 351.348C1132.69 351.27 1132.32 351.492 1132.06 351.669C1131.1 352.3 1130.16 352.965 1129.21 353.63C1129.1 353.724 1128.96 353.775 1128.82 353.775C1128.67 353.775 1128.53 353.724 1128.42 353.63C1128.35 353.59 1128.29 353.545 1128.23 353.497C1127.03 352.301 1125.82 351.093 1124.64 349.885C1124.53 349.762 1124.46 349.602 1124.46 349.436C1124.46 349.27 1124.53 349.11 1124.64 348.987L1126.85 345.829C1126.92 345.727 1126.96 345.608 1126.96 345.486C1126.96 345.363 1126.92 345.244 1126.85 345.142C1126.48 344.333 1126.14 343.513 1125.81 342.682C1125.76 342.554 1125.68 342.444 1125.56 342.365C1125.45 342.286 1125.32 342.243 1125.18 342.239C1123.96 342.051 1122.73 341.84 1121.51 341.618C1121.33 341.594 1121.17 341.498 1121.05 341.353C1120.94 341.208 1120.89 341.025 1120.91 340.843V335.978C1120.91 335.513 1121.05 335.313 1121.5 335.214L1124.66 334.582C1124.96 334.543 1125.25 334.469 1125.52 334.36C1125.71 334.215 1125.85 334.019 1125.92 333.795C1126.26 333.019 1126.58 332.233 1126.88 331.435C1126.91 331.344 1126.93 331.246 1126.93 331.147C1126.93 331.048 1126.91 330.95 1126.88 330.859C1126.16 329.751 1125.4 328.731 1124.66 327.667C1124.54 327.54 1124.48 327.374 1124.48 327.202C1124.48 327.029 1124.54 326.863 1124.66 326.736C1125.85 325.551 1127.02 324.365 1128.21 323.191C1128.34 323.035 1128.54 322.938 1128.74 322.921C1128.95 322.905 1129.15 322.97 1129.31 323.102L1132.32 325.174C1132.43 325.272 1132.57 325.335 1132.72 325.355C1132.87 325.375 1133.02 325.35 1133.16 325.285L1135.48 324.299C1135.62 324.253 1135.74 324.168 1135.84 324.055C1135.94 323.941 1136 323.803 1136.02 323.656C1136.21 322.47 1136.47 321.285 1136.7 320.11C1136.75 319.887 1136.88 319.689 1137.06 319.55C1137.25 319.411 1137.47 319.339 1137.7 319.345L1141.59 319.401C1141.79 319.412 1141.99 319.412 1142.18 319.401C1142.31 319.377 1142.44 319.379 1142.56 319.407C1142.68 319.435 1142.8 319.487 1142.91 319.562C1143.01 319.637 1143.1 319.732 1143.16 319.841C1143.23 319.95 1143.27 320.072 1143.29 320.199C1143.47 321.196 1143.63 322.204 1143.74 323.213C1143.73 323.488 1143.82 323.759 1143.98 323.984C1144.14 324.208 1144.37 324.373 1144.63 324.454C1145.39 324.709 1146.13 325.074 1146.85 325.362C1146.94 325.384 1147.04 325.387 1147.14 325.369C1147.24 325.352 1147.33 325.316 1147.41 325.263C1148.21 324.731 1148.99 324.155 1149.77 323.623C1149.98 323.468 1150.2 323.335 1150.43 323.191C1150.51 323.106 1150.61 323.041 1150.73 322.999C1150.84 322.958 1150.96 322.94 1151.08 322.949C1151.2 322.957 1151.31 322.991 1151.42 323.048C1151.53 323.105 1151.62 323.184 1151.69 323.279C1152.19 323.756 1152.67 324.265 1153.15 324.753L1154.45 326.049C1154.7 326.295 1154.94 326.554 1155.17 326.825C1155.28 326.957 1155.34 327.124 1155.34 327.296C1155.34 327.468 1155.28 327.635 1155.17 327.767C1154.83 328.266 1154.47 328.753 1154.13 329.241C1153.78 329.728 1153.35 330.349 1153.02 330.892C1152.94 331.094 1152.94 331.321 1153.02 331.523C1153.34 332.377 1153.66 333.241 1154.06 334.061C1154.14 334.182 1154.24 334.285 1154.36 334.364C1154.48 334.442 1154.62 334.494 1154.76 334.515C1155.09 334.571 1155.18 334.249 1155.23 333.961C1155.27 333.673 1155.23 333.651 1155.3 333.496C1155.3 333.366 1155.32 333.237 1155.37 333.117C1155.42 332.997 1155.49 332.889 1155.59 332.801C1155.68 332.712 1155.79 332.646 1155.92 332.605C1156.04 332.564 1156.17 332.551 1156.3 332.565H1163.02C1163.66 332.565 1163.94 332.765 1164.12 333.396C1164.31 334.028 1164.4 334.826 1164.53 335.546C1164.72 336.588 1164.91 337.629 1165.08 338.671C1165.1 338.828 1165.16 338.978 1165.25 339.105C1165.35 339.232 1165.47 339.331 1165.62 339.391L1168.95 340.732C1169.06 340.765 1169.17 340.809 1169.28 340.865C1169.56 341.045 1169.89 341.127 1170.22 341.097C1170.55 341.067 1170.86 340.926 1171.1 340.699C1172.31 339.845 1173.57 339.07 1174.81 338.261L1175.28 337.917C1175.45 337.786 1175.65 337.724 1175.86 337.742C1176.07 337.761 1176.26 337.859 1176.39 338.017L1179.8 341.419C1180.29 341.918 1180.8 342.416 1181.29 342.926C1181.43 343.067 1181.55 343.224 1181.65 343.391V343.391ZM1143.72 339.28C1143.6 339.352 1143.49 339.434 1143.38 339.524C1142.16 340.743 1140.94 341.984 1139.71 343.192C1139.65 343.232 1139.61 343.283 1139.57 343.342C1139.54 343.401 1139.52 343.467 1139.51 343.535C1139.5 343.603 1139.51 343.671 1139.53 343.736C1139.55 343.801 1139.59 343.861 1139.63 343.912C1140.63 345.39 1141.62 346.886 1142.61 348.4C1142.73 348.546 1142.8 348.72 1142.82 348.904C1142.84 349.087 1142.81 349.274 1142.74 349.442C1142.5 350.018 1142.27 350.55 1142.03 351.192C1141.54 352.378 1141.03 353.553 1140.55 354.738C1140.49 354.932 1140.37 355.103 1140.21 355.229C1140.05 355.355 1139.86 355.431 1139.65 355.448C1138.78 355.569 1137.9 355.736 1137.03 355.902C1136.15 356.068 1135.39 356.245 1134.57 356.356C1134.19 356.412 1134.06 356.567 1134.06 356.91V362.163C1134.05 362.221 1134.05 362.281 1134.07 362.338C1134.08 362.396 1134.11 362.449 1134.14 362.496C1134.18 362.543 1134.23 362.582 1134.28 362.61C1134.33 362.639 1134.39 362.656 1134.45 362.661L1136.75 363.093C1137.74 363.271 1138.73 363.426 1139.72 363.625C1140 363.672 1140.26 363.827 1140.43 364.058C1140.71 364.619 1140.95 365.196 1141.16 365.786C1141.45 366.473 1141.73 367.171 1142.01 367.858C1142.3 368.545 1142.49 368.966 1142.71 369.52C1142.79 369.699 1142.82 369.896 1142.8 370.091C1142.78 370.286 1142.71 370.471 1142.59 370.629C1142.31 370.983 1142.09 371.371 1141.85 371.737C1141.12 372.845 1140.4 373.953 1139.63 375.061C1139.58 375.113 1139.55 375.175 1139.52 375.243C1139.5 375.31 1139.49 375.382 1139.5 375.453C1139.5 375.524 1139.53 375.592 1139.56 375.655C1139.59 375.717 1139.64 375.772 1139.7 375.815C1140.81 376.923 1141.92 378.031 1143.02 379.139C1143.65 379.77 1143.66 379.77 1144.43 379.283H1144.5C1145.77 378.452 1147.04 377.621 1148.3 376.768C1148.5 376.588 1148.74 376.472 1149.01 376.436C1149.28 376.401 1149.55 376.447 1149.78 376.568C1150.66 377.011 1151.59 377.31 1152.5 377.676L1154.83 378.64C1155.04 378.714 1155.23 378.85 1155.37 379.031C1155.51 379.213 1155.6 379.431 1155.61 379.66C1155.72 380.502 1155.89 381.333 1156.05 382.164C1156.2 382.995 1156.36 383.704 1156.47 384.48C1156.54 385.023 1156.62 385.145 1157.18 385.145H1162.19C1162.67 385.145 1162.79 385.023 1162.87 384.535C1162.95 384.048 1163.02 383.582 1163.1 383.106C1163.29 381.998 1163.48 380.989 1163.66 379.926C1163.76 379.338 1163.9 378.818 1164.57 378.585C1165.23 378.352 1165.95 378.053 1166.65 377.765C1167.76 377.322 1168.87 376.856 1169.98 376.424C1170.07 376.386 1170.16 376.366 1170.26 376.366C1170.36 376.366 1170.45 376.386 1170.54 376.424C1171.06 376.723 1171.56 377.056 1172.07 377.388L1175.4 379.604C1175.43 379.636 1175.48 379.66 1175.52 379.674C1175.57 379.688 1175.62 379.692 1175.67 379.686C1175.71 379.679 1175.76 379.663 1175.8 379.637C1175.84 379.612 1175.88 379.578 1175.91 379.538L1179.78 375.648C1179.83 375.599 1179.86 375.54 1179.87 375.476C1179.89 375.413 1179.89 375.346 1179.87 375.283C1179.67 374.939 1179.43 374.607 1179.21 374.274C1178.34 372.967 1177.48 371.648 1176.63 370.329C1176.56 370.155 1176.56 369.961 1176.63 369.786C1176.73 369.432 1176.89 369.099 1177.02 368.756C1177.6 367.371 1178.2 365.986 1178.73 364.578C1178.79 364.283 1178.94 364.015 1179.17 363.815C1179.39 363.615 1179.67 363.494 1179.97 363.47L1180.39 363.393L1184.88 362.606C1184.96 362.599 1185.03 362.577 1185.1 362.541C1185.16 362.506 1185.22 362.457 1185.27 362.398C1185.32 362.339 1185.35 362.271 1185.37 362.198C1185.4 362.126 1185.4 362.049 1185.39 361.974C1185.39 360.456 1185.39 358.927 1185.39 357.398C1185.39 356.511 1185.6 356.29 1184.44 356.201H1184.36C1182.87 355.913 1181.38 355.603 1179.93 355.37C1179.69 355.351 1179.47 355.264 1179.29 355.12C1179.1 354.977 1178.96 354.782 1178.89 354.561L1176.96 349.841C1176.74 349.298 1176.47 348.832 1176.96 348.212C1178 346.76 1178.95 345.231 1179.96 343.779C1179.99 343.738 1180.02 343.69 1180.03 343.639C1180.05 343.589 1180.05 343.535 1180.05 343.483C1180.04 343.43 1180.02 343.379 1180 343.333C1179.97 343.287 1179.94 343.247 1179.9 343.214C1179.35 342.693 1178.79 342.172 1178.28 341.629L1176.06 339.413C1176.01 339.366 1175.96 339.329 1175.9 339.304C1175.84 339.278 1175.77 339.265 1175.71 339.265C1175.64 339.265 1175.57 339.278 1175.51 339.304C1175.45 339.329 1175.4 339.366 1175.35 339.413C1174.94 339.712 1174.51 339.989 1174.09 340.266L1171.34 342.095C1170.86 342.394 1170.42 342.793 1169.8 342.483C1169.69 342.411 1169.57 342.348 1169.46 342.294C1167.86 341.629 1166.26 340.954 1164.65 340.344C1164.43 340.28 1164.24 340.152 1164.1 339.978C1163.96 339.804 1163.88 339.592 1163.86 339.369L1163.66 338.128C1163.44 336.887 1163.2 335.635 1162.99 334.382C1162.99 334.304 1162.97 334.226 1162.94 334.155C1162.91 334.084 1162.86 334.021 1162.8 333.969C1162.74 333.917 1162.67 333.878 1162.59 333.853C1162.52 333.829 1162.44 333.821 1162.36 333.828H1157.19C1156.75 333.828 1156.67 333.95 1156.59 334.393C1156.47 335.213 1156.31 336.045 1156.17 336.865C1156.02 337.685 1155.86 338.482 1155.72 339.302C1155.72 339.511 1155.66 339.714 1155.54 339.888C1155.43 340.062 1155.27 340.201 1155.08 340.289L1149.71 342.505C1149.54 342.584 1149.36 342.614 1149.17 342.592C1148.99 342.571 1148.82 342.498 1148.68 342.383C1148.28 342.084 1147.84 341.829 1147.43 341.552L1144.22 339.424C1144.06 339.361 1143.89 339.313 1143.72 339.28V339.28ZM1132.71 338.327C1132.7 337.234 1132.94 336.153 1133.41 335.169C1133.81 334.297 1134.39 333.517 1135.1 332.878C1135.82 332.239 1136.66 331.756 1137.57 331.457C1139.28 330.863 1141.16 330.928 1142.83 331.641C1144.49 332.355 1145.84 333.664 1146.59 335.313C1147.16 336.588 1147.36 337.996 1147.18 339.38C1147.18 339.503 1147.21 339.625 1147.26 339.737C1147.31 339.85 1147.39 339.95 1147.48 340.034C1147.77 340.268 1148.09 340.476 1148.42 340.654C1148.85 340.931 1149.23 341.264 1149.84 340.987C1151.14 340.399 1152.48 339.879 1153.78 339.347C1153.91 339.296 1154.02 339.221 1154.12 339.126C1154.21 339.031 1154.29 338.917 1154.34 338.793C1154.5 338.106 1154.58 337.408 1154.68 336.709C1154.68 336.455 1154.83 336.122 1154.68 335.978C1154.54 335.834 1154.21 335.812 1153.96 335.756C1153.47 335.646 1153.05 335.491 1152.92 334.936C1152.85 334.696 1152.76 334.463 1152.65 334.238C1152.28 333.33 1151.86 332.443 1151.55 331.523C1151.48 331.377 1151.45 331.218 1151.45 331.058C1151.45 330.898 1151.48 330.74 1151.55 330.593C1152.18 329.584 1152.88 328.62 1153.56 327.645C1153.74 327.412 1153.76 327.235 1153.56 327.025L1151.35 324.808C1151.3 324.758 1151.24 324.718 1151.18 324.69C1151.12 324.663 1151.05 324.649 1150.98 324.649C1150.91 324.649 1150.84 324.663 1150.78 324.69C1150.72 324.718 1150.66 324.758 1150.61 324.808C1149.66 325.495 1148.69 326.171 1147.72 326.836C1147.6 326.918 1147.46 326.966 1147.32 326.976C1147.18 326.986 1147.03 326.956 1146.9 326.892C1145.74 326.393 1144.59 325.883 1143.41 325.44C1143.2 325.388 1143.01 325.273 1142.87 325.111C1142.73 324.948 1142.65 324.746 1142.62 324.531C1142.46 323.423 1142.29 322.415 1142.15 321.351C1142.15 321.063 1142.01 320.852 1141.72 320.841H1138.39C1138.33 320.837 1138.28 320.844 1138.22 320.861C1138.17 320.879 1138.12 320.907 1138.08 320.945C1138.04 320.982 1138 321.027 1137.98 321.078C1137.95 321.129 1137.94 321.184 1137.94 321.24C1137.73 322.348 1137.52 323.556 1137.27 324.709C1137.19 324.955 1137.03 325.167 1136.82 325.307C1136.52 325.473 1136.21 325.61 1135.89 325.717L1133.08 326.825C1132.94 326.912 1132.78 326.958 1132.62 326.958C1132.46 326.958 1132.3 326.912 1132.16 326.825C1131.2 326.138 1130.22 325.473 1129.26 324.797C1129.22 324.755 1129.17 324.722 1129.11 324.699C1129.06 324.677 1129 324.665 1128.94 324.665C1128.88 324.665 1128.83 324.677 1128.77 324.699C1128.72 324.722 1128.67 324.755 1128.63 324.797C1127.87 325.551 1127.14 326.326 1126.41 327.08C1126.16 327.324 1126.17 327.501 1126.41 327.778C1127.1 328.742 1127.77 329.728 1128.43 330.726C1128.47 330.834 1128.5 330.951 1128.5 331.069C1128.5 331.187 1128.47 331.304 1128.43 331.413C1127.97 332.621 1127.49 333.828 1126.98 335.025C1126.87 335.286 1126.68 335.503 1126.43 335.646C1126.08 335.781 1125.7 335.867 1125.32 335.901L1122.74 336.388C1122.68 336.394 1122.62 336.412 1122.56 336.441C1122.51 336.47 1122.46 336.51 1122.42 336.558C1122.38 336.607 1122.35 336.663 1122.33 336.723C1122.31 336.783 1122.3 336.846 1122.31 336.909C1122.31 337.951 1122.31 338.992 1122.31 340.034C1122.3 340.089 1122.31 340.145 1122.33 340.197C1122.34 340.25 1122.37 340.299 1122.41 340.341C1122.44 340.383 1122.49 340.416 1122.54 340.44C1122.59 340.463 1122.64 340.476 1122.7 340.477L1123.51 340.621C1124.32 340.754 1125.12 340.931 1125.95 341.02C1126.17 341.03 1126.38 341.106 1126.56 341.238C1126.74 341.37 1126.87 341.553 1126.94 341.762C1127.42 342.948 1127.88 344.134 1128.37 345.308C1128.44 345.446 1128.48 345.602 1128.46 345.758C1128.45 345.913 1128.39 346.061 1128.29 346.184C1127.62 347.137 1126.95 348.101 1126.28 349.043C1126.1 349.309 1126.09 349.475 1126.34 349.708C1127.09 350.406 1127.8 351.126 1128.56 351.857C1128.86 352.179 1129.03 352.234 1129.39 351.979L1131.92 350.184C1132.34 349.885 1132.76 349.641 1133.26 350.029H1133.33C1134.43 350.483 1135.62 350.926 1136.75 351.425C1137 351.557 1137.19 351.779 1137.28 352.046C1137.43 352.656 1137.55 353.273 1137.63 353.896C1137.69 354.273 1137.89 354.417 1138.26 354.328C1138.43 354.268 1138.62 354.235 1138.8 354.229C1138.96 354.239 1139.12 354.194 1139.25 354.101C1139.38 354.008 1139.47 353.873 1139.51 353.719C1140.09 352.312 1140.62 350.904 1141.24 349.508C1141.29 349.374 1141.31 349.227 1141.29 349.083C1141.27 348.939 1141.22 348.803 1141.13 348.688C1140.62 347.924 1140.12 347.137 1139.58 346.383C1139.33 346.051 1139.21 345.596 1138.68 345.519C1137.19 345.291 1135.81 344.574 1134.77 343.48C1134.1 342.8 1133.58 341.994 1133.23 341.109C1132.89 340.224 1132.72 339.278 1132.75 338.327H1132.71ZM1134.05 337.995C1134.02 338.935 1134.21 339.868 1134.58 340.732C1134.83 341.357 1135.21 341.926 1135.69 342.405C1136.21 342.843 1136.76 343.254 1137.33 343.635C1137.55 343.79 1137.75 343.713 1137.81 343.391C1137.84 343.225 1137.91 343.069 1138.01 342.937C1138.37 342.549 1138.73 342.184 1139.12 341.829L1141.34 339.613C1141.89 339.059 1142.45 338.505 1143.02 337.973C1143.13 337.849 1143.28 337.77 1143.45 337.752C1143.61 337.734 1143.78 337.777 1143.91 337.873C1144.33 338.139 1144.74 338.416 1145.17 338.671C1145.31 338.748 1145.55 338.837 1145.63 338.771C1145.69 338.707 1145.73 338.632 1145.76 338.55C1145.8 338.468 1145.81 338.381 1145.81 338.294C1145.75 337.286 1145.46 336.304 1144.96 335.424C1144.18 334.092 1142.91 333.12 1141.42 332.72C1140.56 332.477 1139.67 332.436 1138.8 332.6C1137.92 332.763 1137.1 333.127 1136.4 333.662C1135.72 334.171 1135.17 334.82 1134.77 335.564C1134.37 336.308 1134.14 337.13 1134.09 337.973L1134.05 337.995Z" fill="#E8E8E8"/>
<path d="M1159.72 369C1157.85 368.995 1156.01 368.431 1154.46 367.38C1152.9 366.329 1151.69 364.839 1150.99 363.099C1150.28 361.359 1150.11 359.449 1150.5 357.611C1150.88 355.773 1151.8 354.092 1153.15 352.781C1154.49 351.47 1156.2 350.589 1158.04 350.25C1159.89 349.912 1161.8 350.13 1163.52 350.879C1165.24 351.627 1166.7 352.871 1167.71 354.453C1168.72 356.034 1169.24 357.881 1169.2 359.758C1169.16 362.236 1168.14 364.596 1166.36 366.326C1164.59 368.057 1162.2 369.017 1159.72 369V369ZM1167.85 359.425C1167.8 357.282 1166.9 355.246 1165.35 353.76C1163.81 352.274 1161.74 351.459 1159.59 351.491C1157.45 351.483 1155.38 352.326 1153.86 353.837C1152.34 355.348 1151.48 357.402 1151.47 359.547C1151.46 361.693 1152.3 363.754 1153.81 365.277C1155.33 366.8 1157.38 367.661 1159.53 367.67C1160.62 367.697 1161.71 367.501 1162.73 367.095C1163.75 366.688 1164.68 366.079 1165.46 365.305C1166.24 364.53 1166.85 363.606 1167.26 362.588C1167.67 361.569 1167.87 360.479 1167.85 359.381V359.425Z" fill="#E8E8E8"/>
<path d="M1268.54 598.378C1268.54 603.076 1268.54 607.767 1268.54 612.451C1268.58 615.707 1267.96 618.938 1266.72 621.947C1265.47 624.848 1263.74 627.515 1261.6 629.837C1258.07 633.6 1253.95 636.756 1249.4 639.178C1246.65 640.672 1243.8 641.979 1240.87 643.09C1240.16 643.383 1239.36 643.383 1238.65 643.09C1232.31 640.803 1226.42 637.429 1221.23 633.117C1218.04 630.468 1215.4 627.21 1213.48 623.532C1211.89 620.568 1211.04 617.272 1210.97 613.913C1210.93 603.837 1210.9 593.768 1210.9 583.706C1210.9 582.51 1211.38 581.978 1212.58 581.812C1214.98 581.479 1217.41 581.246 1219.78 580.792C1225.05 579.718 1230.15 577.952 1234.95 575.54C1236.06 574.986 1237.23 574.432 1238.28 573.789C1238.7 573.497 1239.2 573.34 1239.72 573.34C1240.23 573.34 1240.74 573.497 1241.16 573.789C1244.22 575.52 1247.41 577.003 1250.7 578.221C1253.88 579.426 1257.17 580.35 1260.51 580.98C1262.4 581.335 1264.33 581.501 1266.24 581.745L1266.93 581.823C1267.15 581.823 1267.38 581.871 1267.58 581.964C1267.79 582.057 1267.98 582.192 1268.13 582.362C1268.28 582.532 1268.39 582.731 1268.46 582.948C1268.53 583.164 1268.55 583.392 1268.52 583.618C1268.52 584.116 1268.52 584.604 1268.52 585.103L1268.54 598.378ZM1214.02 599.929C1214.02 604.162 1214.02 608.395 1214.02 612.628C1214 617.824 1215.87 622.85 1219.28 626.767C1221.73 629.638 1224.58 632.129 1227.76 634.159C1231.35 636.529 1235.2 638.481 1239.23 639.976C1239.56 640.093 1239.92 640.093 1240.25 639.976C1244.26 638.485 1248.09 636.545 1251.67 634.192C1255.26 631.923 1258.44 629.043 1261.04 625.682C1263.91 621.993 1265.47 617.455 1265.47 612.783C1265.47 603.675 1265.47 594.562 1265.47 585.446C1265.47 585.025 1265.39 584.848 1264.92 584.815C1261.93 584.531 1258.96 583.997 1256.05 583.219C1250.65 581.797 1245.44 579.721 1240.54 577.036C1240.32 576.904 1240.08 576.835 1239.82 576.835C1239.57 576.835 1239.32 576.904 1239.11 577.036C1236.57 578.277 1234.04 579.551 1231.44 580.637C1226.11 582.868 1220.47 584.291 1214.72 584.859C1214.2 584.914 1214.06 585.069 1214.06 585.579C1214.03 590.355 1214.02 595.153 1214.02 599.962V599.929Z" fill="#E8E8E8"/>
<path d="M1220.28 590.366V590.953C1220.28 598.289 1220.28 605.621 1220.28 612.949C1220.29 615.972 1221.24 618.917 1223.01 621.371C1225.3 624.51 1228.19 627.169 1231.51 629.194C1234 630.827 1236.64 632.225 1239.4 633.372C1239.62 633.449 1239.86 633.449 1240.08 633.372C1241.27 632.84 1242.45 632.264 1243.62 631.732C1243.92 631.54 1244.27 631.449 1244.63 631.473C1244.98 631.497 1245.32 631.634 1245.59 631.865C1245.79 632.037 1245.94 632.256 1246.03 632.502C1246.12 632.748 1246.14 633.013 1246.1 633.271C1246.05 633.529 1245.94 633.771 1245.78 633.975C1245.62 634.179 1245.4 634.338 1245.16 634.436C1243.61 635.211 1242.02 635.943 1240.42 636.652C1239.96 636.829 1239.45 636.829 1238.99 636.652C1234.76 634.957 1230.78 632.722 1227.13 630.003C1224.65 628.178 1222.46 625.989 1220.63 623.51C1218.32 620.352 1217.09 616.531 1217.13 612.617C1217.13 604.916 1217.13 597.225 1217.13 589.524C1217.13 588.239 1217.54 587.74 1218.84 587.518C1223.09 586.756 1227.26 585.568 1231.27 583.972C1233.81 582.975 1236.27 581.756 1238.75 580.648C1239.04 580.498 1239.36 580.419 1239.69 580.419C1240.01 580.419 1240.33 580.498 1240.62 580.648C1245.41 583.104 1250.47 585.018 1255.69 586.355C1257.35 586.765 1259.01 587.075 1260.73 587.463C1260.95 587.472 1261.17 587.527 1261.37 587.624C1261.57 587.72 1261.75 587.857 1261.89 588.025C1262.04 588.193 1262.15 588.39 1262.22 588.602C1262.28 588.814 1262.31 589.037 1262.28 589.258C1262.28 597.247 1262.28 605.226 1262.28 613.215C1262.21 617.442 1260.63 621.504 1257.85 624.684C1257.18 625.493 1256.45 626.247 1255.71 626.989C1255.5 627.193 1255.23 627.326 1254.95 627.368C1254.66 627.41 1254.36 627.359 1254.1 627.222C1253.85 627.118 1253.64 626.947 1253.48 626.728C1253.32 626.509 1253.23 626.25 1253.21 625.981C1253.19 625.713 1253.24 625.445 1253.34 625.198C1253.45 624.95 1253.6 624.729 1253.8 624.551C1254.54 623.72 1255.3 622.911 1256.02 622.036C1258.04 619.518 1259.17 616.399 1259.22 613.171C1259.22 605.758 1259.22 598.356 1259.22 590.942C1259.22 590.477 1259.07 590.322 1258.64 590.244C1252.35 589.023 1246.25 586.954 1240.52 584.094C1240.29 583.969 1240.03 583.904 1239.77 583.904C1239.51 583.904 1239.25 583.969 1239.02 584.094C1233.28 586.952 1227.19 589.028 1220.9 590.266L1220.28 590.366Z" fill="#E8E8E8"/>
<path d="M1239.71 624.152H1234.6C1233.22 624.152 1232.57 623.421 1232.77 622.08C1233.32 618.257 1233.88 614.445 1234.5 610.622C1234.53 610.478 1234.52 610.327 1234.47 610.19C1234.41 610.053 1234.31 609.937 1234.19 609.858C1232.74 608.795 1231.63 607.338 1230.99 605.66C1230.35 603.983 1230.21 602.156 1230.59 600.401C1230.96 598.645 1231.84 597.035 1233.1 595.764C1234.37 594.493 1235.98 593.615 1237.73 593.236C1238.97 592.957 1240.26 592.935 1241.5 593.172C1242.75 593.409 1243.93 593.899 1244.98 594.613C1246.03 595.327 1246.93 596.249 1247.6 597.321C1248.28 598.394 1248.73 599.595 1248.93 600.849C1249.24 602.544 1249.05 604.292 1248.4 605.887C1247.74 607.481 1246.65 608.855 1245.24 609.847C1245.12 609.924 1245.03 610.036 1244.98 610.167C1244.93 610.299 1244.92 610.442 1244.96 610.578C1245.55 614.39 1246.12 618.213 1246.69 622.025C1246.89 623.377 1246.25 624.108 1244.87 624.119L1239.71 624.152ZM1243.4 621.005C1243.41 620.895 1243.41 620.783 1243.4 620.673C1242.86 617.127 1242.29 613.57 1241.76 610.024C1241.68 609.801 1241.65 609.565 1241.66 609.33C1241.67 609.094 1241.73 608.863 1241.84 608.651C1241.94 608.439 1242.08 608.249 1242.26 608.093C1242.44 607.937 1242.64 607.817 1242.87 607.741C1244.21 606.968 1245.22 605.718 1245.69 604.237C1246.16 602.757 1246.06 601.155 1245.4 599.746C1244.75 598.338 1243.59 597.225 1242.16 596.63C1240.72 596.034 1239.12 595.997 1237.66 596.527C1236.28 597.027 1235.13 597.99 1234.39 599.25C1233.65 600.511 1233.38 601.989 1233.61 603.431C1233.76 604.36 1234.12 605.243 1234.66 606.011C1235.2 606.78 1235.91 607.414 1236.74 607.863C1237.13 608.015 1237.45 608.304 1237.64 608.676C1237.83 609.047 1237.87 609.476 1237.77 609.88C1237.39 612.251 1236.99 614.634 1236.66 617.005C1236.45 618.346 1236.26 619.675 1236.06 621.061L1243.4 621.005Z" fill="#E8E8E8"/>
<path d="M1249.83 631.399C1249.41 631.391 1249.02 631.22 1248.73 630.923C1248.44 630.626 1248.28 630.228 1248.29 629.815C1248.33 629.388 1248.52 628.99 1248.83 628.691C1249.14 628.391 1249.54 628.209 1249.97 628.175C1250.38 628.175 1250.78 628.338 1251.07 628.628C1251.36 628.919 1251.53 629.314 1251.53 629.726C1251.5 630.165 1251.31 630.577 1251 630.885C1250.68 631.193 1250.27 631.376 1249.83 631.399V631.399Z" fill="#E8E8E8"/>
<path d="M1211.77 868.146C1211.85 867.312 1212.21 866.53 1212.8 865.93C1213.11 865.585 1213.5 865.308 1213.92 865.117C1214.35 864.927 1214.81 864.826 1215.28 864.822H1222C1222.87 864.826 1223.71 865.172 1224.33 865.786C1224.4 865.86 1224.49 865.914 1224.59 865.945C1224.69 865.976 1224.8 865.982 1224.9 865.963C1225.57 865.838 1226.18 865.495 1226.64 864.988C1227.51 864.069 1228.25 863.041 1228.86 861.93C1230.05 859.783 1231.1 857.562 1232.01 855.281C1232.66 853.745 1233.69 852.397 1235 851.359C1235.6 850.86 1236.16 850.339 1236.75 849.829C1237.6 848.944 1238.2 847.851 1238.49 846.66C1238.94 845.188 1239.24 843.673 1239.38 842.139C1239.5 841.031 1239.61 839.834 1239.73 838.682C1239.76 838.411 1239.85 838.15 1239.99 837.921C1240.14 837.692 1240.34 837.501 1240.57 837.363C1241.3 836.912 1242.17 836.728 1243.02 836.842C1244.56 837.019 1246.01 837.663 1247.17 838.687C1248.34 839.711 1249.16 841.067 1249.53 842.571C1250.11 844.826 1250.07 847.195 1249.42 849.43C1249 850.831 1248.44 852.183 1247.74 853.464C1247.02 854.77 1246.43 856.143 1245.98 857.564C1245.91 857.786 1245.89 858.018 1245.84 858.273H1246.46C1249.04 858.129 1251.61 858.273 1254.21 858.273C1255.5 858.273 1256.77 858.45 1258.06 858.572C1258.96 858.695 1259.83 859.014 1260.6 859.508C1261.36 860.002 1262.01 860.659 1262.49 861.431C1263.23 862.469 1263.76 863.639 1264.06 864.878C1264.17 865.521 1264.07 866.186 1263.76 866.761C1263.5 867.249 1263.21 867.722 1262.9 868.18L1262.47 868.9C1262.41 868.995 1262.38 869.111 1262.4 869.225C1262.42 869.339 1262.48 869.441 1262.57 869.509C1263.15 870.052 1263.56 870.742 1263.77 871.504C1263.94 872.102 1263.97 872.73 1263.86 873.342C1263.75 873.954 1263.51 874.534 1263.15 875.039C1262.82 875.507 1262.45 875.945 1262.04 876.346C1261.96 876.407 1261.9 876.491 1261.87 876.587C1261.85 876.683 1261.85 876.785 1261.88 876.878C1262.07 877.366 1262.27 877.842 1262.45 878.341C1262.63 878.836 1262.78 879.343 1262.89 879.859C1262.97 880.341 1262.94 880.834 1262.81 881.303C1262.67 881.772 1262.44 882.206 1262.12 882.574C1261.62 883.15 1261.07 883.682 1260.57 884.258L1260.06 884.857C1259.93 885.009 1259.84 885.188 1259.8 885.38C1259.75 885.573 1259.75 885.773 1259.8 885.965C1259.92 886.615 1259.89 887.283 1259.71 887.921C1259.54 888.559 1259.23 889.151 1258.8 889.655C1258.12 890.487 1257.32 891.215 1256.42 891.816C1255.11 892.731 1253.58 893.285 1251.99 893.422C1250.2 893.622 1248.41 893.677 1246.61 893.589C1244.65 893.589 1242.68 893.5 1240.72 893.422C1237.65 893.292 1234.59 892.921 1231.58 892.314C1229.37 891.871 1227.15 891.472 1224.93 891.04C1224.87 891.02 1224.8 891.021 1224.73 891.042C1224.67 891.064 1224.61 891.106 1224.57 891.162C1224.24 891.557 1223.83 891.875 1223.37 892.091C1222.91 892.308 1222.4 892.418 1221.89 892.414H1215.24C1214.37 892.414 1213.54 892.096 1212.89 891.519C1212.24 890.943 1211.83 890.149 1211.74 889.289C1211.75 889.234 1211.75 889.178 1211.74 889.123L1211.77 868.146ZM1225.57 868.789C1225.56 868.826 1225.56 868.863 1225.57 868.9V879.039C1225.57 882.031 1225.57 885.023 1225.57 888.015C1225.57 888.225 1225.57 888.314 1225.84 888.347C1227.67 888.68 1229.5 888.979 1231.31 889.367C1233.74 889.901 1236.2 890.249 1238.69 890.408C1240.56 890.53 1242.45 890.597 1244.32 890.663C1246.74 890.794 1249.16 890.754 1251.58 890.541C1252.73 890.488 1253.83 890.103 1254.77 889.433C1255.46 888.955 1256.09 888.384 1256.63 887.738C1256.78 887.554 1256.89 887.34 1256.95 887.11C1257.01 886.881 1257.02 886.641 1256.97 886.408C1256.87 885.877 1256.88 885.332 1257 884.804C1257.11 884.277 1257.34 883.778 1257.65 883.339C1258.19 882.632 1258.77 881.955 1259.38 881.311C1260.23 880.369 1260.2 880.535 1259.74 879.316C1259.47 878.679 1259.25 878.024 1259.07 877.355C1258.94 876.801 1258.97 876.222 1259.15 875.683C1259.33 875.143 1259.65 874.664 1260.09 874.296C1260.42 873.969 1260.71 873.596 1260.94 873.188C1261.03 873.069 1261.1 872.933 1261.13 872.789C1261.17 872.644 1261.17 872.494 1261.15 872.347C1261.12 872.201 1261.07 872.06 1260.99 871.934C1260.91 871.808 1260.81 871.7 1260.69 871.615C1260.09 871.09 1259.71 870.371 1259.6 869.587C1259.49 868.802 1259.66 868.005 1260.09 867.337C1260.43 866.728 1260.8 866.141 1261.2 865.531C1261.23 865.428 1261.23 865.314 1261.2 865.21C1260.83 863.894 1260.05 862.729 1258.98 861.886C1258.77 861.709 1258.52 861.58 1258.25 861.509C1257.02 861.23 1255.76 861.089 1254.5 861.088C1251.96 861.088 1249.43 860.933 1246.9 861.088C1245.97 861.155 1245.03 861.065 1244.13 860.822C1243.85 860.762 1243.59 860.617 1243.39 860.408C1243.19 860.198 1243.06 859.933 1243.02 859.647C1242.82 858.597 1242.88 857.515 1243.18 856.489C1243.66 854.969 1244.32 853.505 1245.12 852.123C1246.61 849.678 1247.23 846.798 1246.87 843.956C1246.77 843.147 1246.47 842.373 1246.02 841.699C1245.56 841.025 1244.95 840.469 1244.23 840.078C1243.69 839.763 1243.07 839.591 1242.45 839.579C1242.45 839.712 1242.45 839.823 1242.45 839.934C1242.35 840.876 1242.26 841.818 1242.16 842.76C1241.98 844.546 1241.61 846.307 1241.05 848.012C1240.6 849.463 1239.79 850.778 1238.7 851.835C1237.99 852.467 1237.27 853.076 1236.56 853.719C1235.98 854.162 1235.5 854.716 1235.13 855.348C1234.62 856.456 1234.13 857.564 1233.65 858.672C1232.63 861.145 1231.34 863.494 1229.8 865.675C1229.13 866.663 1228.24 867.482 1227.2 868.069C1226.67 868.327 1226.12 868.556 1225.57 868.756V868.789ZM1222.6 878.618V868.523C1222.6 867.88 1222.39 867.67 1221.75 867.67H1215.47C1214.85 867.67 1214.63 867.903 1214.63 868.512C1214.63 875.249 1214.63 881.987 1214.63 888.724C1214.63 889.367 1214.86 889.599 1215.49 889.599H1221.69C1222.39 889.599 1222.6 889.4 1222.6 888.713V878.618Z" fill="#E8E8E8"/>
<g opacity="0.75">
<path opacity="0.75" d="M92.6946 936.106V942.755" stroke="#B72768" stroke-width="0.25" stroke-miterlimit="10"/>
<path opacity="0.75" d="M92.6946 956.917V978.159" stroke="#B72768" stroke-width="0.25" stroke-miterlimit="10" stroke-dasharray="12.78 12.78"/>
<path opacity="0.75" d="M92.6946 985.24V991.888H99.3442" stroke="#B72768" stroke-width="0.25" stroke-miterlimit="10"/>
<path opacity="0.75" d="M112.311 991.889H416.926" stroke="#B72768" stroke-width="0.25" stroke-miterlimit="10" stroke-dasharray="11.7 11.7"/>
<path opacity="0.75" d="M423.399 991.888H430.048V985.24" stroke="#B72768" stroke-width="0.25" stroke-miterlimit="10"/>
<path opacity="0.75" d="M430.048 972.408V696.633" stroke="#B72768" stroke-width="0.25" stroke-miterlimit="10" stroke-dasharray="11.58 11.58"/>
<path opacity="0.75" d="M430.048 690.217V683.569" stroke="#B72768" stroke-width="0.25" stroke-miterlimit="10"/>
</g>
<g opacity="0.75">
<path opacity="0.75" d="M1240.55 936.107V942.755" stroke="#B528AB" stroke-width="0.25" stroke-miterlimit="10"/>
<path opacity="0.75" d="M1240.55 956.917V978.159" stroke="#B528AB" stroke-width="0.25" stroke-miterlimit="10" stroke-dasharray="12.78 12.78"/>
<path opacity="0.75" d="M1240.55 985.24V991.889H1233.9" stroke="#B528AB" stroke-width="0.25" stroke-miterlimit="10"/>
<path opacity="0.75" d="M1220.94 991.889H916.329" stroke="#B528AB" stroke-width="0.25" stroke-miterlimit="10" stroke-dasharray="11.7 11.7"/>
<path opacity="0.75" d="M909.846 991.889H903.196V985.24" stroke="#B528AB" stroke-width="0.25" stroke-miterlimit="10"/>
<path opacity="0.75" d="M903.196 972.32V694.65" stroke="#B528AB" stroke-width="0.25" stroke-miterlimit="10" stroke-dasharray="11.66 11.66"/>
<path opacity="0.75" d="M903.196 688.19V681.541" stroke="#B528AB" stroke-width="0.25" stroke-miterlimit="10"/>
</g>
<path d="M94.5122 673.674V729.544H313.061V610.977H344.513" stroke="#B72770" stroke-width="0.25" stroke-miterlimit="10" stroke-dasharray="12 12"/>
<path opacity="0.75" d="M1249.05 673.674V729.544H1030.49V610.977H1003.94" stroke="#B528A3" stroke-width="0.25" stroke-miterlimit="10" stroke-dasharray="12 12"/>
<path opacity="0.75" d="M180.369 416.969V450.612H464.559" stroke="#B72779" stroke-width="0.25" stroke-miterlimit="10" stroke-dasharray="12 12"/>
<path opacity="0.75" d="M1162.47 416.969V450.612H887.515" stroke="#B6289A" stroke-width="0.25" stroke-miterlimit="10" stroke-dasharray="12 12"/>
<path opacity="0.75" d="M399.981 235.827V301.217H529.137V359.37" stroke="#B62781" stroke-width="0.25" stroke-miterlimit="10" stroke-dasharray="12 12"/>
<path opacity="0.75" d="M936.5 235.827V301.217H807.343V359.37" stroke="#B62892" stroke-width="0.25" stroke-miterlimit="10" stroke-dasharray="12 12"/>
<path opacity="0.75" d="M668.512 150.082V360.6" stroke="#B6288A" stroke-width="0.25" stroke-miterlimit="10" stroke-dasharray="12 12"/>
<g opacity="0.4">
<path opacity="0.4" d="M696.218 907.806H690.123L665.376 946.39L640.639 907.806H634.544L665.376 955.898L696.218 907.806Z" fill="url(#paint0_linear)"/>
</g>
<g opacity="0.4">
<path opacity="0.4" d="M696.218 939.675H690.123L665.376 978.259L640.639 939.675H634.544L665.376 987.767L696.218 939.675Z" fill="url(#paint1_linear)"/>
</g>
<defs>
<linearGradient id="paint0_linear" x1="665.376" y1="955.898" x2="665.376" y2="907.806" gradientUnits="userSpaceOnUse">
<stop stop-color="#900E6B"/>
<stop offset="1" stop-color="#070A0A"/>
</linearGradient>
<linearGradient id="paint1_linear" x1="665.376" y1="987.767" x2="665.376" y2="939.675" gradientUnits="userSpaceOnUse">
<stop stop-color="#900E6B"/>
<stop offset="1" stop-color="#070A0A"/>
</linearGradient>
</defs>
</svg>
