<svg width="317" height="47" fill="none" xmlns="http://www.w3.org/2000/svg"><g clip-path="url(#clip0)"><path d="M90.45 41.34H65.9v3.82h24.55v-3.82zM90.45 1.57H65.9v3.82h24.55V1.57zM250.83 41.34h-24.55v3.82h24.55v-3.82zM250.83 1.57h-24.55v3.82h24.55V1.57zM3.45 8.86l.3 14.53v21.39H.65V2.18h1.22L31 38l-.3-15.44V2.18h3.1v42.6h-1L3.45 8.86zM141 39.31l6.81-17.38 8-19.69H159v.42L141.53 44.9h-1.28L122.69 2.66v-.42H126l6.81 16.83c.335.972.719 1.927 1.15 2.86l7 17.38h.04zM285.75 8.86l.31 14.53v21.39H283V2.18h1.21L313.29 38 313 22.54V2.18h3.1v42.6h-1L285.75 8.86z" fill="#E4EAEA"/><path d="M90.45 21.66H65.9v3.82h24.55v-3.82zM250.83 21.66h-24.55v3.82h24.55v-3.82z" fill="#D72872"/><path d="M194.17 1.71v42.94H191V1.71h3.17z" fill="#E4EAEA"/></g><defs><clipPath id="clip0"><path fill="#fff" d="M0 0h316.68v46.47H0z"/></clipPath></defs></svg>