<svg width="244" height="577" viewBox="0 0 244 577" fill="none" xmlns="http://www.w3.org/2000/svg">
<path d="M21.3047 553.848L19.3535 555.061C17.666 552.822 15.3633 551.703 12.4453 551.703C10.1133 551.703 8.17383 552.453 6.62695 553.953C5.0918 555.453 4.32422 557.275 4.32422 559.42C4.32422 560.814 4.67578 562.127 5.37891 563.357C6.09375 564.588 7.06641 565.543 8.29688 566.223C9.53906 566.902 10.9277 567.242 12.4629 567.242C15.2754 567.242 17.5723 566.123 19.3535 563.885L21.3047 565.168C20.3906 566.539 19.1602 567.605 17.6133 568.367C16.0781 569.117 14.3262 569.492 12.3574 569.492C9.33398 569.492 6.82617 568.531 4.83398 566.609C2.8418 564.688 1.8457 562.35 1.8457 559.596C1.8457 557.744 2.30859 556.027 3.23438 554.445C4.17188 552.852 5.45508 551.609 7.08398 550.719C8.71289 549.828 10.5352 549.383 12.5508 549.383C13.8164 549.383 15.0352 549.576 16.207 549.963C17.3906 550.35 18.3926 550.854 19.2129 551.475C20.0332 552.096 20.7305 552.887 21.3047 553.848ZM25.1191 549.875H27.6328V552.67C28.3828 551.568 29.1738 550.748 30.0059 550.209C30.8379 549.658 31.7051 549.383 32.6074 549.383C33.2871 549.383 34.0137 549.6 34.7871 550.033L33.5039 552.107C32.9883 551.885 32.5547 551.773 32.2031 551.773C31.3828 551.773 30.5918 552.113 29.8301 552.793C29.0684 553.461 28.4883 554.504 28.0898 555.922C27.7852 557.012 27.6328 559.215 27.6328 562.531V569H25.1191V549.875ZM52.9805 562.654L55.0547 563.744C54.375 565.08 53.5898 566.158 52.6992 566.979C51.8086 567.799 50.8066 568.426 49.6934 568.859C48.5801 569.281 47.3203 569.492 45.9141 569.492C42.7969 569.492 40.3594 568.473 38.6016 566.434C36.8438 564.383 35.9648 562.068 35.9648 559.49C35.9648 557.064 36.709 554.902 38.1973 553.004C40.084 550.59 42.6094 549.383 45.7734 549.383C49.0312 549.383 51.6328 550.619 53.5781 553.092C54.9609 554.838 55.6641 557.018 55.6875 559.631H38.4961C38.543 561.857 39.252 563.686 40.623 565.115C41.9941 566.533 43.6875 567.242 45.7031 567.242C46.6758 567.242 47.6191 567.072 48.5332 566.732C49.459 566.393 50.2441 565.941 50.8887 565.379C51.5332 564.816 52.2305 563.908 52.9805 562.654ZM52.9805 557.504C52.6523 556.191 52.1719 555.143 51.5391 554.357C50.918 553.572 50.0918 552.939 49.0605 552.459C48.0293 551.979 46.9453 551.738 45.8086 551.738C43.9336 551.738 42.3223 552.342 40.9746 553.549C39.9902 554.428 39.2461 555.746 38.7422 557.504H52.9805ZM79.3477 549.875V569H76.9219V565.713C75.8906 566.967 74.7305 567.91 73.4414 568.543C72.1641 569.176 70.7637 569.492 69.2402 569.492C66.5332 569.492 64.2188 568.514 62.2969 566.557C60.3867 564.588 59.4316 562.197 59.4316 559.385C59.4316 556.631 60.3984 554.275 62.332 552.318C64.2656 550.361 66.5918 549.383 69.3105 549.383C70.8809 549.383 72.2988 549.717 73.5645 550.385C74.8418 551.053 75.9609 552.055 76.9219 553.391V549.875H79.3477ZM69.5039 551.756C68.1328 551.756 66.8672 552.096 65.707 552.775C64.5469 553.443 63.6211 554.387 62.9297 555.605C62.25 556.824 61.9102 558.113 61.9102 559.473C61.9102 560.82 62.2559 562.109 62.9473 563.34C63.6387 564.57 64.5645 565.531 65.7246 566.223C66.8965 566.902 68.1504 567.242 69.4863 567.242C70.834 567.242 72.1113 566.902 73.3184 566.223C74.5254 565.543 75.4512 564.623 76.0957 563.463C76.752 562.303 77.0801 560.996 77.0801 559.543C77.0801 557.328 76.3477 555.477 74.8828 553.988C73.4297 552.5 71.6367 551.756 69.5039 551.756ZM87.0469 542.773H89.5254V549.875H93.4277V551.984H89.5254V569H87.0469V551.984H83.6895V549.875H87.0469V542.773ZM113.203 562.654L115.277 563.744C114.598 565.08 113.812 566.158 112.922 566.979C112.031 567.799 111.029 568.426 109.916 568.859C108.803 569.281 107.543 569.492 106.137 569.492C103.02 569.492 100.582 568.473 98.8242 566.434C97.0664 564.383 96.1875 562.068 96.1875 559.49C96.1875 557.064 96.9316 554.902 98.4199 553.004C100.307 550.59 102.832 549.383 105.996 549.383C109.254 549.383 111.855 550.619 113.801 553.092C115.184 554.838 115.887 557.018 115.91 559.631H98.7188C98.7656 561.857 99.4746 563.686 100.846 565.115C102.217 566.533 103.91 567.242 105.926 567.242C106.898 567.242 107.842 567.072 108.756 566.732C109.682 566.393 110.467 565.941 111.111 565.379C111.756 564.816 112.453 563.908 113.203 562.654ZM113.203 557.504C112.875 556.191 112.395 555.143 111.762 554.357C111.141 553.572 110.314 552.939 109.283 552.459C108.252 551.979 107.168 551.738 106.031 551.738C104.156 551.738 102.545 552.342 101.197 553.549C100.213 554.428 99.4688 555.746 98.9648 557.504H113.203ZM149.59 542.492V569H147.164V565.713C146.133 566.967 144.973 567.91 143.684 568.543C142.406 569.176 141.006 569.492 139.482 569.492C136.775 569.492 134.461 568.514 132.539 566.557C130.629 564.588 129.674 562.197 129.674 559.385C129.674 556.631 130.641 554.275 132.574 552.318C134.508 550.361 136.834 549.383 139.553 549.383C141.123 549.383 142.541 549.717 143.807 550.385C145.084 551.053 146.203 552.055 147.164 553.391V542.492H149.59ZM139.746 551.756C138.375 551.756 137.109 552.096 135.949 552.775C134.789 553.443 133.863 554.387 133.172 555.605C132.492 556.824 132.152 558.113 132.152 559.473C132.152 560.82 132.498 562.109 133.189 563.34C133.881 564.57 134.807 565.531 135.967 566.223C137.139 566.902 138.393 567.242 139.729 567.242C141.076 567.242 142.354 566.902 143.561 566.223C144.768 565.543 145.693 564.623 146.338 563.463C146.994 562.303 147.322 560.996 147.322 559.543C147.322 557.328 146.59 555.477 145.125 553.988C143.672 552.5 141.879 551.756 139.746 551.756ZM171.281 562.654L173.355 563.744C172.676 565.08 171.891 566.158 171 566.979C170.109 567.799 169.107 568.426 167.994 568.859C166.881 569.281 165.621 569.492 164.215 569.492C161.098 569.492 158.66 568.473 156.902 566.434C155.145 564.383 154.266 562.068 154.266 559.49C154.266 557.064 155.01 554.902 156.498 553.004C158.385 550.59 160.91 549.383 164.074 549.383C167.332 549.383 169.934 550.619 171.879 553.092C173.262 554.838 173.965 557.018 173.988 559.631H156.797C156.844 561.857 157.553 563.686 158.924 565.115C160.295 566.533 161.988 567.242 164.004 567.242C164.977 567.242 165.92 567.072 166.834 566.732C167.76 566.393 168.545 565.941 169.189 565.379C169.834 564.816 170.531 563.908 171.281 562.654ZM171.281 557.504C170.953 556.191 170.473 555.143 169.84 554.357C169.219 553.572 168.393 552.939 167.361 552.459C166.33 551.979 165.246 551.738 164.109 551.738C162.234 551.738 160.623 552.342 159.275 553.549C158.291 554.428 157.547 555.746 157.043 557.504H171.281ZM188.209 551.967L186.627 553.602C185.314 552.324 184.031 551.686 182.777 551.686C181.98 551.686 181.295 551.949 180.721 552.477C180.158 553.004 179.877 553.619 179.877 554.322C179.877 554.943 180.111 555.535 180.58 556.098C181.049 556.672 182.033 557.346 183.533 558.119C185.361 559.068 186.604 559.982 187.26 560.861C187.904 561.752 188.227 562.754 188.227 563.867C188.227 565.438 187.676 566.768 186.574 567.857C185.473 568.947 184.096 569.492 182.443 569.492C181.342 569.492 180.287 569.252 179.279 568.771C178.283 568.291 177.457 567.629 176.801 566.785L178.348 565.027C179.602 566.445 180.932 567.154 182.338 567.154C183.322 567.154 184.16 566.838 184.852 566.205C185.543 565.572 185.889 564.828 185.889 563.973C185.889 563.27 185.66 562.643 185.203 562.092C184.746 561.553 183.715 560.873 182.109 560.053C180.387 559.162 179.215 558.283 178.594 557.416C177.973 556.549 177.662 555.559 177.662 554.445C177.662 552.992 178.154 551.785 179.139 550.824C180.135 549.863 181.389 549.383 182.9 549.383C184.658 549.383 186.428 550.244 188.209 551.967ZM193.447 542C194.01 542 194.49 542.199 194.889 542.598C195.287 542.996 195.486 543.477 195.486 544.039C195.486 544.59 195.287 545.064 194.889 545.463C194.49 545.861 194.01 546.061 193.447 546.061C192.896 546.061 192.422 545.861 192.023 545.463C191.625 545.064 191.426 544.59 191.426 544.039C191.426 543.477 191.625 542.996 192.023 542.598C192.422 542.199 192.896 542 193.447 542ZM192.217 549.875H194.695V569H192.217V549.875ZM216.264 549.875H218.742V565.115C218.742 567.799 218.508 569.762 218.039 571.004C217.395 572.762 216.275 574.115 214.682 575.064C213.088 576.014 211.172 576.488 208.934 576.488C207.293 576.488 205.816 576.254 204.504 575.785C203.203 575.328 202.143 574.707 201.322 573.922C200.502 573.148 199.746 572.012 199.055 570.512H201.727C202.453 571.777 203.391 572.715 204.539 573.324C205.688 573.934 207.111 574.238 208.811 574.238C210.486 574.238 211.898 573.922 213.047 573.289C214.207 572.668 215.033 571.883 215.525 570.934C216.018 569.984 216.264 568.455 216.264 566.346V565.361C215.338 566.533 214.207 567.436 212.871 568.068C211.535 568.689 210.117 569 208.617 569C206.859 569 205.207 568.566 203.66 567.699C202.113 566.82 200.918 565.643 200.074 564.166C199.23 562.689 198.809 561.066 198.809 559.297C198.809 557.527 199.248 555.881 200.127 554.357C201.006 552.822 202.219 551.609 203.766 550.719C205.324 549.828 206.965 549.383 208.688 549.383C210.117 549.383 211.447 549.682 212.678 550.279C213.92 550.865 215.115 551.838 216.264 553.197V549.875ZM209.004 551.756C207.609 551.756 206.314 552.096 205.119 552.775C203.924 553.443 202.986 554.375 202.307 555.57C201.627 556.754 201.287 558.037 201.287 559.42C201.287 561.518 201.99 563.252 203.396 564.623C204.803 565.994 206.625 566.68 208.863 566.68C211.125 566.68 212.941 566 214.312 564.641C215.695 563.281 216.387 561.494 216.387 559.279C216.387 557.838 216.07 556.555 215.438 555.43C214.805 554.293 213.908 553.396 212.748 552.74C211.588 552.084 210.34 551.756 209.004 551.756ZM224.016 549.875H226.477V553.303C227.461 551.99 228.551 551.012 229.746 550.367C230.941 549.711 232.242 549.383 233.648 549.383C235.078 549.383 236.344 549.746 237.445 550.473C238.559 551.199 239.379 552.178 239.906 553.408C240.434 554.639 240.697 556.555 240.697 559.156V569H238.254V559.877C238.254 557.674 238.16 556.203 237.973 555.465C237.68 554.199 237.129 553.25 236.32 552.617C235.512 551.973 234.457 551.65 233.156 551.65C231.668 551.65 230.332 552.143 229.148 553.127C227.977 554.111 227.203 555.33 226.828 556.783C226.594 557.732 226.477 559.467 226.477 561.986V569H224.016V549.875Z" fill="#D72872"/>
<path d="M108.479 14.9857L108.792 30.1806V52.5754H105.536V7.98468H106.81L137.188 45.4489L136.875 29.3016V7.98468H140.11V52.5754H139.067L108.479 14.9857Z" fill="#E4EAEA"/>
<path d="M122.985 212.081L130.082 193.893L138.43 173.288H141.801V173.717L123.549 217.941H122.223L103.888 173.717V173.277H107.311L114.417 190.889C114.766 191.909 115.17 192.908 115.628 193.882L122.933 212.07L122.985 212.081Z" fill="#E4EAEA"/>
<path d="M108.479 423.555L108.792 438.75V461.144H105.536V416.554H106.81L137.188 454.018L136.875 437.86V416.554H140.11V461.144H139.067L108.479 423.555Z" fill="#E4EAEA"/>
<path d="M135.634 375.008H110.014V379.006H135.634V375.008Z" fill="#E4EAEA"/>
<path d="M135.634 333.389H110.014V337.387H135.634V333.389Z" fill="#E4EAEA"/>
<path d="M135.634 354.413H110.014V358.411H135.634V354.413Z" fill="#D72872"/>
<path d="M135.634 131.742H110.014V135.74H135.634V131.742Z" fill="#E4EAEA"/>
<path d="M135.634 90.1234H110.014V94.1209H135.634V90.1234Z" fill="#E4EAEA"/>
<path d="M135.634 111.147H110.014V115.145H135.634V111.147Z" fill="#D72872"/>
<path d="M124.457 255.342V300.341H121.19V255.342H124.457Z" fill="#E4EAEA"/>
</svg>
