<svg width="1217" height="339" viewBox="0 0 1217 339" fill="none" xmlns="http://www.w3.org/2000/svg">
<path d="M13.73 38.73L14.89 94.47V176.56H3V13.08H7.67L119.37 150.44L118.21 91.21V13.08H130.1V176.56H126.1L13.73 38.73Z" fill="#E4EAEA"/>
<path d="M541.43 155.57L567.55 88.8701L598.1 13.3101H610.5V15.0001L543.5 177H538.6L471.24 15.0001V13.3101H483.83L509.95 77.9101C511.35 81.9101 512.75 85.3801 514.38 88.9101L541.2 155.61L541.43 155.57Z" fill="#E4EAEA"/>
<path d="M1096.9 38.73L1098.07 94.47V176.56H1086.18V13.08H1090.84L1202.5 150.44L1201.34 91.21V13.08H1213.23V176.56H1209.23L1096.9 38.73Z" fill="#E4EAEA"/>
<path d="M347.56 163.33H253.34V177.98H347.56V163.33Z" fill="#E4EAEA"/>
<path d="M347.56 10.76H253.34V25.41H347.56V10.76Z" fill="#E4EAEA"/>
<path d="M347.56 87.84H253.34V102.49H347.56V87.84Z" fill="#D72872"/>
<path d="M962.94 163.33H868.72V177.98H962.94V163.33Z" fill="#E4EAEA"/>
<path d="M962.94 10.76H868.72V25.41H962.94V10.76Z" fill="#E4EAEA"/>
<path d="M962.94 87.84H868.72V102.49H962.94V87.84Z" fill="#D72872"/>
<path d="M745.5 11.28V176.06H733.5V11.28H745.5Z" fill="#E4EAEA"/>
<path d="M340.812 256.594L335.609 259.828C331.109 253.859 324.969 250.875 317.188 250.875C310.969 250.875 305.797 252.875 301.672 256.875C297.578 260.875 295.531 265.734 295.531 271.453C295.531 275.172 296.469 278.672 298.344 281.953C300.25 285.234 302.844 287.781 306.125 289.594C309.438 291.406 313.141 292.312 317.234 292.312C324.734 292.312 330.859 289.328 335.609 283.359L340.812 286.781C338.375 290.438 335.094 293.281 330.969 295.312C326.875 297.312 322.203 298.312 316.953 298.312C308.891 298.312 302.203 295.75 296.891 290.625C291.578 285.5 288.922 279.266 288.922 271.922C288.922 266.984 290.156 262.406 292.625 258.188C295.125 253.938 298.547 250.625 302.891 248.25C307.234 245.875 312.094 244.688 317.469 244.688C320.844 244.688 324.094 245.203 327.219 246.234C330.375 247.266 333.047 248.609 335.234 250.266C337.422 251.922 339.281 254.031 340.812 256.594ZM350.984 246H357.688V253.453C359.688 250.516 361.797 248.328 364.016 246.891C366.234 245.422 368.547 244.688 370.953 244.688C372.766 244.688 374.703 245.266 376.766 246.422L373.344 251.953C371.969 251.359 370.812 251.062 369.875 251.062C367.688 251.062 365.578 251.969 363.547 253.781C361.516 255.562 359.969 258.344 358.906 262.125C358.094 265.031 357.688 270.906 357.688 279.75V297H350.984V246ZM425.281 280.078L430.812 282.984C429 286.547 426.906 289.422 424.531 291.609C422.156 293.797 419.484 295.469 416.516 296.625C413.547 297.75 410.188 298.312 406.438 298.312C398.125 298.312 391.625 295.594 386.938 290.156C382.25 284.688 379.906 278.516 379.906 271.641C379.906 265.172 381.891 259.406 385.859 254.344C390.891 247.906 397.625 244.688 406.062 244.688C414.75 244.688 421.688 247.984 426.875 254.578C430.562 259.234 432.438 265.047 432.5 272.016H386.656C386.781 277.953 388.672 282.828 392.328 286.641C395.984 290.422 400.5 292.312 405.875 292.312C408.469 292.312 410.984 291.859 413.422 290.953C415.891 290.047 417.984 288.844 419.703 287.344C421.422 285.844 423.281 283.422 425.281 280.078ZM425.281 266.344C424.406 262.844 423.125 260.047 421.438 257.953C419.781 255.859 417.578 254.172 414.828 252.891C412.078 251.609 409.188 250.969 406.156 250.969C401.156 250.969 396.859 252.578 393.266 255.797C390.641 258.141 388.656 261.656 387.312 266.344H425.281ZM495.594 246V297H489.125V288.234C486.375 291.578 483.281 294.094 479.844 295.781C476.438 297.469 472.703 298.312 468.641 298.312C461.422 298.312 455.25 295.703 450.125 290.484C445.031 285.234 442.484 278.859 442.484 271.359C442.484 264.016 445.062 257.734 450.219 252.516C455.375 247.297 461.578 244.688 468.828 244.688C473.016 244.688 476.797 245.578 480.172 247.359C483.578 249.141 486.562 251.812 489.125 255.375V246H495.594ZM469.344 251.016C465.688 251.016 462.312 251.922 459.219 253.734C456.125 255.516 453.656 258.031 451.812 261.281C450 264.531 449.094 267.969 449.094 271.594C449.094 275.188 450.016 278.625 451.859 281.906C453.703 285.188 456.172 287.75 459.266 289.594C462.391 291.406 465.734 292.312 469.297 292.312C472.891 292.312 476.297 291.406 479.516 289.594C482.734 287.781 485.203 285.328 486.922 282.234C488.672 279.141 489.547 275.656 489.547 271.781C489.547 265.875 487.594 260.938 483.688 256.969C479.812 253 475.031 251.016 469.344 251.016ZM516.125 227.062H522.734V246H533.141V251.625H522.734V297H516.125V251.625H507.172V246H516.125V227.062ZM585.875 280.078L591.406 282.984C589.594 286.547 587.5 289.422 585.125 291.609C582.75 293.797 580.078 295.469 577.109 296.625C574.141 297.75 570.781 298.312 567.031 298.312C558.719 298.312 552.219 295.594 547.531 290.156C542.844 284.688 540.5 278.516 540.5 271.641C540.5 265.172 542.484 259.406 546.453 254.344C551.484 247.906 558.219 244.688 566.656 244.688C575.344 244.688 582.281 247.984 587.469 254.578C591.156 259.234 593.031 265.047 593.094 272.016H547.25C547.375 277.953 549.266 282.828 552.922 286.641C556.578 290.422 561.094 292.312 566.469 292.312C569.062 292.312 571.578 291.859 574.016 290.953C576.484 290.047 578.578 288.844 580.297 287.344C582.016 285.844 583.875 283.422 585.875 280.078ZM585.875 266.344C585 262.844 583.719 260.047 582.031 257.953C580.375 255.859 578.172 254.172 575.422 252.891C572.672 251.609 569.781 250.969 566.75 250.969C561.75 250.969 557.453 252.578 553.859 255.797C551.234 258.141 549.25 261.656 547.906 266.344H585.875ZM682.906 226.312V297H676.438V288.234C673.688 291.578 670.594 294.094 667.156 295.781C663.75 297.469 660.016 298.312 655.953 298.312C648.734 298.312 642.562 295.703 637.438 290.484C632.344 285.234 629.797 278.859 629.797 271.359C629.797 264.016 632.375 257.734 637.531 252.516C642.688 247.297 648.891 244.688 656.141 244.688C660.328 244.688 664.109 245.578 667.484 247.359C670.891 249.141 673.875 251.812 676.438 255.375V226.312H682.906ZM656.656 251.016C653 251.016 649.625 251.922 646.531 253.734C643.438 255.516 640.969 258.031 639.125 261.281C637.312 264.531 636.406 267.969 636.406 271.594C636.406 275.188 637.328 278.625 639.172 281.906C641.016 285.188 643.484 287.75 646.578 289.594C649.703 291.406 653.047 292.312 656.609 292.312C660.203 292.312 663.609 291.406 666.828 289.594C670.047 287.781 672.516 285.328 674.234 282.234C675.984 279.141 676.859 275.656 676.859 271.781C676.859 265.875 674.906 260.938 671 256.969C667.125 253 662.344 251.016 656.656 251.016ZM740.75 280.078L746.281 282.984C744.469 286.547 742.375 289.422 740 291.609C737.625 293.797 734.953 295.469 731.984 296.625C729.016 297.75 725.656 298.312 721.906 298.312C713.594 298.312 707.094 295.594 702.406 290.156C697.719 284.688 695.375 278.516 695.375 271.641C695.375 265.172 697.359 259.406 701.328 254.344C706.359 247.906 713.094 244.688 721.531 244.688C730.219 244.688 737.156 247.984 742.344 254.578C746.031 259.234 747.906 265.047 747.969 272.016H702.125C702.25 277.953 704.141 282.828 707.797 286.641C711.453 290.422 715.969 292.312 721.344 292.312C723.938 292.312 726.453 291.859 728.891 290.953C731.359 290.047 733.453 288.844 735.172 287.344C736.891 285.844 738.75 283.422 740.75 280.078ZM740.75 266.344C739.875 262.844 738.594 260.047 736.906 257.953C735.25 255.859 733.047 254.172 730.297 252.891C727.547 251.609 724.656 250.969 721.625 250.969C716.625 250.969 712.328 252.578 708.734 255.797C706.109 258.141 704.125 261.656 702.781 266.344H740.75ZM785.891 251.578L781.672 255.938C778.172 252.531 774.75 250.828 771.406 250.828C769.281 250.828 767.453 251.531 765.922 252.938C764.422 254.344 763.672 255.984 763.672 257.859C763.672 259.516 764.297 261.094 765.547 262.594C766.797 264.125 769.422 265.922 773.422 267.984C778.297 270.516 781.609 272.953 783.359 275.297C785.078 277.672 785.938 280.344 785.938 283.312C785.938 287.5 784.469 291.047 781.531 293.953C778.594 296.859 774.922 298.312 770.516 298.312C767.578 298.312 764.766 297.672 762.078 296.391C759.422 295.109 757.219 293.344 755.469 291.094L759.594 286.406C762.938 290.188 766.484 292.078 770.234 292.078C772.859 292.078 775.094 291.234 776.938 289.547C778.781 287.859 779.703 285.875 779.703 283.594C779.703 281.719 779.094 280.047 777.875 278.578C776.656 277.141 773.906 275.328 769.625 273.141C765.031 270.766 761.906 268.422 760.25 266.109C758.594 263.797 757.766 261.156 757.766 258.188C757.766 254.312 759.078 251.094 761.703 248.531C764.359 245.969 767.703 244.688 771.734 244.688C776.422 244.688 781.141 246.984 785.891 251.578ZM799.859 225C801.359 225 802.641 225.531 803.703 226.594C804.766 227.656 805.297 228.938 805.297 230.438C805.297 231.906 804.766 233.172 803.703 234.234C802.641 235.297 801.359 235.828 799.859 235.828C798.391 235.828 797.125 235.297 796.062 234.234C795 233.172 794.469 231.906 794.469 230.438C794.469 228.938 795 227.656 796.062 226.594C797.125 225.531 798.391 225 799.859 225ZM796.578 246H803.188V297H796.578V246ZM860.703 246H867.312V286.641C867.312 293.797 866.688 299.031 865.438 302.344C863.719 307.031 860.734 310.641 856.484 313.172C852.234 315.703 847.125 316.969 841.156 316.969C836.781 316.969 832.844 316.344 829.344 315.094C825.875 313.875 823.047 312.219 820.859 310.125C818.672 308.062 816.656 305.031 814.812 301.031H821.938C823.875 304.406 826.375 306.906 829.438 308.531C832.5 310.156 836.297 310.969 840.828 310.969C845.297 310.969 849.062 310.125 852.125 308.438C855.219 306.781 857.422 304.688 858.734 302.156C860.047 299.625 860.703 295.547 860.703 289.922V287.297C858.234 290.422 855.219 292.828 851.656 294.516C848.094 296.172 844.312 297 840.312 297C835.625 297 831.219 295.844 827.094 293.531C822.969 291.188 819.781 288.047 817.531 284.109C815.281 280.172 814.156 275.844 814.156 271.125C814.156 266.406 815.328 262.016 817.672 257.953C820.016 253.859 823.25 250.625 827.375 248.25C831.531 245.875 835.906 244.688 840.5 244.688C844.312 244.688 847.859 245.484 851.141 247.078C854.453 248.641 857.641 251.234 860.703 254.859V246ZM841.344 251.016C837.625 251.016 834.172 251.922 830.984 253.734C827.797 255.516 825.297 258 823.484 261.188C821.672 264.344 820.766 267.766 820.766 271.453C820.766 277.047 822.641 281.672 826.391 285.328C830.141 288.984 835 290.812 840.969 290.812C847 290.812 851.844 289 855.5 285.375C859.188 281.75 861.031 276.984 861.031 271.078C861.031 267.234 860.188 263.812 858.5 260.812C856.812 257.781 854.422 255.391 851.328 253.641C848.234 251.891 844.906 251.016 841.344 251.016ZM881.375 246H887.938V255.141C890.562 251.641 893.469 249.031 896.656 247.312C899.844 245.562 903.312 244.688 907.062 244.688C910.875 244.688 914.25 245.656 917.188 247.594C920.156 249.531 922.344 252.141 923.75 255.422C925.156 258.703 925.859 263.812 925.859 270.75V297H919.344V272.672C919.344 266.797 919.094 262.875 918.594 260.906C917.812 257.531 916.344 255 914.188 253.312C912.031 251.594 909.219 250.734 905.75 250.734C901.781 250.734 898.219 252.047 895.062 254.672C891.938 257.297 889.875 260.547 888.875 264.422C888.25 266.953 887.938 271.578 887.938 278.297V297H881.375V246Z" fill="#D72872"/>
</svg>
