<svg xmlns="http://www.w3.org/2000/svg" viewBox="0 0 532.91 1360.66"><g id="Слой_2" data-name="Слой 2"><g id="Слой_2-2" data-name="Слой 2"><path d="M80.65,61.43H74.87c-1,0-1.44-.44-1.38-1.38a7.62,7.62,0,0,0-1.22-4.33c-.82-1.4-1.69-2.77-2.5-4.18a15.07,15.07,0,0,1-2.09-6.11,12.92,12.92,0,0,1,24.71-6.35,11.76,11.76,0,0,1-.06,10.1c-.8,1.68-1.74,3.29-2.63,4.93a14.6,14.6,0,0,0-1.73,4c-.12.62-.09,1.27-.16,1.91a2.54,2.54,0,0,1-.23.9,1.14,1.14,0,0,1-1.11.49Zm0-2.3H85.2c.24,0,.32-.07.34-.32a11.16,11.16,0,0,1,.2-1.29,17.77,17.77,0,0,1,2-4.69c.8-1.44,1.6-2.86,2.34-4.32a9.48,9.48,0,0,0,1-3.69,10.65,10.65,0,0,0-6.93-10.55,10.14,10.14,0,0,0-9.16.89A10.31,10.31,0,0,0,70,45a12.46,12.46,0,0,0,2,5.7c.77,1.32,1.59,2.61,2.36,3.94a10.11,10.11,0,0,1,1.46,4.27c0,.25.17.22.33.22Z" style="fill:#e8e8e8"/><path d="M80.64,66.24h-5a1.16,1.16,0,0,1-1.28-.84A1.13,1.13,0,0,1,75.22,64a2.28,2.28,0,0,1,.44,0H85.6a1.21,1.21,0,0,1,1.32.88,1.13,1.13,0,0,1-1,1.41c-.51,0-1,0-1.53,0Z" style="fill:#e8e8e8"/><path d="M80.64,70.83h-3.1a1.13,1.13,0,0,1-1.18-1.12,1.1,1.1,0,0,1,1.11-1.15q3.18,0,6.36,0a1.12,1.12,0,0,1,1.11,1.16,1.15,1.15,0,0,1-1.17,1.11Z" style="fill:#e8e8e8"/><path d="M63.54,62.68a1.11,1.11,0,0,1-1.1-.61,1,1,0,0,1,.11-1.22c.42-.49.87-1,1.32-1.42q1.49-1.56,3-3.11a1.13,1.13,0,0,1,1.56-.13,1.12,1.12,0,0,1,.28,1.46,3.78,3.78,0,0,1-.56.65c-1.27,1.34-2.55,2.67-3.83,4A1.07,1.07,0,0,1,63.54,62.68Z" style="fill:#e8e8e8"/><path d="M99,27.11a1.1,1.1,0,0,1-.37.7l-4.13,4.13a1.16,1.16,0,1,1-1.62-1.64L97,26.18a1.12,1.12,0,0,1,1.28-.29A1.16,1.16,0,0,1,99,27.11Z" style="fill:#e8e8e8"/><path d="M79.39,23.27c0-1,0-1.92,0-2.87a1.14,1.14,0,0,1,.85-1.14,1.11,1.11,0,0,1,1.28.54,1.28,1.28,0,0,1,.16.6c0,1.91,0,3.81,0,5.71a1.15,1.15,0,1,1-2.29,0C79.39,25.16,79.39,24.21,79.39,23.27Z" style="fill:#e8e8e8"/><path d="M98.89,61.28a1.15,1.15,0,0,1-2,.75l-3.64-3.64a4.38,4.38,0,0,1-.59-.7,1.07,1.07,0,0,1,.23-1.33,1.14,1.14,0,0,1,1.41-.13,2.73,2.73,0,0,1,.31.27l3.82,3.82A1.27,1.27,0,0,1,98.89,61.28Z" style="fill:#e8e8e8"/><path d="M68.74,31.3a1.1,1.1,0,0,1-.66,1,1.06,1.06,0,0,1-1.25-.2Q64.75,30.09,62.68,28a1.11,1.11,0,0,1,.07-1.55,1.09,1.09,0,0,1,1.55,0c.87.84,1.72,1.7,2.58,2.56l1.47,1.46A1.2,1.2,0,0,1,68.74,31.3Z" style="fill:#e8e8e8"/><path d="M101.75,43.1h2.78a1.14,1.14,0,0,1,.61,2.1,1.33,1.33,0,0,1-.65.19H99a1.15,1.15,0,1,1,0-2.29Z" style="fill:#e8e8e8"/><path d="M59.62,43.1h2.72a1.12,1.12,0,0,1,1.1.84,1.1,1.1,0,0,1-.52,1.29,1.25,1.25,0,0,1-.57.16c-1.82,0-3.64,0-5.46,0a1.15,1.15,0,1,1,0-2.29Z" style="fill:#e8e8e8"/><path d="M72.69,44.58c0-4.49,3-7.9,7-8.29A7.66,7.66,0,0,1,86,38.48a1.14,1.14,0,1,1-1.58,1.65,5.57,5.57,0,0,0-9.25,5.51A5.81,5.81,0,0,0,76.59,48a1.15,1.15,0,1,1-1.66,1.6A7.6,7.6,0,0,1,72.69,44.58Z" style="fill:#e8e8e8"/><g style="opacity:0.75"><path d="M80.7,4A43.16,43.16,0,1,1,37.54,47.16,43.21,43.21,0,0,1,80.7,4m0-4a47.16,47.16,0,1,0,47.16,47.16A47.15,47.15,0,0,0,80.7,0Z" style="fill:#b72768"/></g><path d="M15.85,530.84V535a10.56,10.56,0,0,0-4-1,3.93,3.93,0,0,0-2.06.5,2.21,2.21,0,0,0-1,1.15,15.94,15.94,0,0,0-.21,3.46v4.44h6.86v3.65H8.57l0,29.2H4.32v-29.2H0v-3.65H4.32v-5.14a13.79,13.79,0,0,1,.65-5,5.1,5.1,0,0,1,2.2-2.43,7.3,7.3,0,0,1,3.76-.92A17.94,17.94,0,0,1,15.85,530.84Z" style="fill:#e8e8e8"/><path d="M20.14,543.53h4.32v4.8a15.28,15.28,0,0,1,4.07-4.25,8.09,8.09,0,0,1,4.47-1.4,7.68,7.68,0,0,1,3.75,1.12l-2.21,3.56a5.88,5.88,0,0,0-2.23-.57,6.15,6.15,0,0,0-4.08,1.73,11,11,0,0,0-3,5.39q-.78,2.82-.78,11.36v11.11H20.14Z" style="fill:#e8e8e8"/><path d="M55.89,542.68a16.27,16.27,0,0,1,12.59,5.5,17.66,17.66,0,0,1-.26,23.9,16.1,16.1,0,0,1-12.33,5.14,16.1,16.1,0,0,1-12.35-5.14,17.59,17.59,0,0,1-.26-23.87A16.25,16.25,0,0,1,55.89,542.68Zm0,4.14a12.2,12.2,0,0,0-9.06,3.89A13,13,0,0,0,43,560.13a13.31,13.31,0,0,0,1.73,6.65,12.23,12.23,0,0,0,4.66,4.75,13.24,13.24,0,0,0,12.91,0A12.26,12.26,0,0,0,67,566.78a13.4,13.4,0,0,0,1.72-6.65,13,13,0,0,0-3.8-9.42A12.22,12.22,0,0,0,55.88,546.82Z" style="fill:#e8e8e8"/><path d="M80.8,543.53H85v5.67a16.47,16.47,0,0,1,4.53-4.59,12.87,12.87,0,0,1,6.75-1.93,11.11,11.11,0,0,1,4.53.94,9.71,9.71,0,0,1,3.51,2.49,13.51,13.51,0,0,1,2.36,4.45,15.52,15.52,0,0,1,5.27-5.87,12.47,12.47,0,0,1,6.81-2,10.64,10.64,0,0,1,6,1.72,10.37,10.37,0,0,1,3.87,4.8q1.26,3.09,1.26,9.24v17.94h-4.32V558.44q0-5.28-.75-7.26a6.57,6.57,0,0,0-2.57-3.19,7.75,7.75,0,0,0-4.35-1.2,9.41,9.41,0,0,0-5.61,1.81,10.41,10.41,0,0,0-3.72,4.83q-1.17,3-1.17,10.09v12.86h-4.23V559.56q0-6-.74-8.08a6.8,6.8,0,0,0-2.58-3.41,7.44,7.44,0,0,0-4.38-1.28A9.5,9.5,0,0,0,90,548.55a10.55,10.55,0,0,0-3.78,4.76q-1.22,3-1.22,9.15v13.92H80.8Z" style="fill:#e8e8e8"/><path d="M47.5,603.55h4.44V648H47.5Z" style="fill:#d72872"/><path d="M62.11,648V603.55h9.21q10,0,14.47,1.6A19.33,19.33,0,0,1,95.89,613a23.88,23.88,0,0,1,3.64,13.31,23.39,23.39,0,0,1-2.89,11.75,18.48,18.48,0,0,1-7.49,7.49Q84.54,648,76.25,648Zm4.26-4.2H71.5q9.21,0,12.78-1.14a14.73,14.73,0,0,0,7.88-5.87A18.08,18.08,0,0,0,95,626.4a19,19,0,0,0-3.11-11,15.72,15.72,0,0,0-8.67-6.25q-4.17-1.27-13.74-1.27H66.37Z" style="fill:#d72872"/><path d="M108.16,603.55h25.46v4.35h-21v13.92h20.84v4.35H112.6v17.45h20.84V648H108.16Z" style="fill:#d72872"/><path d="M159.43,603.55,180.15,648h-4.8l-7-14.61H149.23L142.31,648h-4.95l21-44.42Zm-.56,9.44-7.61,16.08h15.19Z" style="fill:#d72872"/><path d="M5.77,662.1H10v12.21h6.71V678H10v29.24H5.77V678H0v-3.66H5.77Z" style="fill:#e8e8e8"/><path d="M38.64,673.47a16.28,16.28,0,0,1,12.6,5.5A17.67,17.67,0,0,1,51,702.9a16.08,16.08,0,0,1-12.34,5.15,16.12,16.12,0,0,1-12.37-5.15A17.63,17.63,0,0,1,26,679,16.27,16.27,0,0,1,38.64,673.47Zm0,4.14a12.23,12.23,0,0,0-9.08,3.9,13.06,13.06,0,0,0-3.79,9.43,13.38,13.38,0,0,0,1.73,6.65,12.24,12.24,0,0,0,4.67,4.77,13.35,13.35,0,0,0,12.93,0,12.24,12.24,0,0,0,4.67-4.77,13.38,13.38,0,0,0,1.73-6.65,13,13,0,0,0-3.81-9.43A12.21,12.21,0,0,0,38.63,677.61Z" style="fill:#e8e8e8"/><path d="M43.89,729.45h8.64a52.61,52.61,0,0,1,9.78.59,11.19,11.19,0,0,1,6.28,3.79A10.85,10.85,0,0,1,71,741a11.59,11.59,0,0,1-1.67,6.23,10.39,10.39,0,0,1-4.76,4.06,22,22,0,0,1-8.55,1.4l15.6,20.13H66.27l-15.6-20.13H48.22v20.13H43.89Zm4.33,4.25v14.73l7.47.06a18.54,18.54,0,0,0,6.42-.82A6.68,6.68,0,0,0,65.36,745a7.32,7.32,0,0,0,1.17-4,7.09,7.09,0,0,0-1.18-4,6.58,6.58,0,0,0-3.1-2.55,18.93,18.93,0,0,0-6.38-.76Z" style="fill:#d72872"/><path d="M80.32,729.45h24.85v4.25H84.66v13.58H105v4.25H84.66v17H105v4.24H80.32Z" style="fill:#d72872"/><path d="M130.38,729.45l20.22,43.36h-4.68l-6.82-14.27H120.42l-6.76,14.27h-4.83l20.48-43.36Zm-.55,9.21-7.43,15.7h14.82Z" style="fill:#d72872"/><path d="M157.32,772.81V729.45h9q9.72,0,14.12,1.56a18.92,18.92,0,0,1,9.86,7.67,23.34,23.34,0,0,1,3.55,13A22.75,22.75,0,0,1,191,763.14a18,18,0,0,1-7.31,7.31q-4.49,2.37-12.6,2.36Zm4.15-4.1h5q9,0,12.47-1.12a14.31,14.31,0,0,0,7.7-5.72,17.71,17.71,0,0,0,2.8-10.12,18.58,18.58,0,0,0-3-10.72,15.29,15.29,0,0,0-8.46-6.1q-4.06-1.23-13.41-1.23h-3.07Z" style="fill:#d72872"/><path d="M198.82,729.45h5l11.09,17.88,10.92-17.88h5L217.1,752.09v20.72h-4.28V752.09Z" style="fill:#d72872"/><path d="M40,830.58l3.69-2.21q3.89,7.17,9,7.16a8.54,8.54,0,0,0,4.09-1,7.21,7.21,0,0,0,2.92-2.73,7,7,0,0,0,1-3.62,7.38,7.38,0,0,0-1.47-4.28,35.71,35.71,0,0,0-7.43-7Q46.35,812.84,45,811a10.83,10.83,0,0,1-2.3-6.63,10,10,0,0,1,1.36-5.16,9.58,9.58,0,0,1,3.82-3.67,11,11,0,0,1,5.35-1.34A11.33,11.33,0,0,1,59,795.73a19.54,19.54,0,0,1,5.64,5.58L61.08,804a17.32,17.32,0,0,0-4.17-4.27,7.19,7.19,0,0,0-3.76-1,6,6,0,0,0-4.29,1.59,5.22,5.22,0,0,0-1.67,3.92,6.72,6.72,0,0,0,.59,2.74,10,10,0,0,0,2.15,2.89c.57.55,2.44,2,5.6,4.33q5.64,4.15,7.73,7.4a12,12,0,0,1,2.09,6.52,11,11,0,0,1-3.58,8.19,12,12,0,0,1-8.71,3.48,12.74,12.74,0,0,1-7.16-2.11A19.21,19.21,0,0,1,40,830.58Z" style="fill:#d72872"/><path d="M95.17,794.21a22.49,22.49,0,0,1,16.48,6.57,22.79,22.79,0,0,1-16.13,39,22.19,22.19,0,0,1-16.28-6.6,21.69,21.69,0,0,1-6.64-16,23,23,0,0,1,3-11.58,21.91,21.91,0,0,1,8.24-8.36A22.22,22.22,0,0,1,95.17,794.21Zm.19,4.21a18.51,18.51,0,0,0-15.86,9.27,18.82,18.82,0,0,0-2.42,9.47,18.23,18.23,0,0,0,18.28,18.37,18.55,18.55,0,0,0,9.34-2.44,17.53,17.53,0,0,0,6.7-6.7,18.76,18.76,0,0,0,2.41-9.44,18.34,18.34,0,0,0-2.41-9.34,18,18,0,0,0-6.77-6.68A18.39,18.39,0,0,0,95.36,798.42Z" style="fill:#d72872"/><path d="M127,795.3h4.33v39.17H148v4.19H127Z" style="fill:#d72872"/><path d="M155,795.3h4.33v26.17a53.27,53.27,0,0,0,.18,5.81,9.75,9.75,0,0,0,1.5,4.29,8.94,8.94,0,0,0,3.63,2.89,11.29,11.29,0,0,0,4.92,1.16,9.71,9.71,0,0,0,4.13-.91,9.2,9.2,0,0,0,3.3-2.54,10.3,10.3,0,0,0,1.94-3.92,31.89,31.89,0,0,0,.45-6.78V795.3h4.33v26.17a31.68,31.68,0,0,1-1.14,9.39,12.71,12.71,0,0,1-4.53,6.24,13,13,0,0,1-8.24,2.65,15.77,15.77,0,0,1-9-2.51,12.08,12.08,0,0,1-5-6.63c-.53-1.69-.79-4.73-.79-9.14Z" style="fill:#d72872"/><path d="M190.1,799.54V795.3h23.76v4.24h-9.67v39.12h-4.42V799.54Z" style="fill:#d72872"/><path d="M219.49,795.3h4.33v43.36h-4.33Z" style="fill:#d72872"/><path d="M254.4,794.21a22.51,22.51,0,0,1,16.49,6.57,22.8,22.8,0,0,1-16.14,39,22.21,22.21,0,0,1-16.28-6.6,21.72,21.72,0,0,1-6.63-16,23,23,0,0,1,3-11.58,21.91,21.91,0,0,1,8.24-8.36A22.22,22.22,0,0,1,254.4,794.21Zm.19,4.21a18.51,18.51,0,0,0-15.85,9.27,18.72,18.72,0,0,0-2.42,9.47,18.23,18.23,0,0,0,18.27,18.37,18.59,18.59,0,0,0,9.35-2.44,17.67,17.67,0,0,0,6.7-6.7A18.85,18.85,0,0,0,273,817a18.43,18.43,0,0,0-2.4-9.34,18,18,0,0,0-6.78-6.68A18.34,18.34,0,0,0,254.59,798.42Z" style="fill:#d72872"/><path d="M286.25,838.66V795.3h.94l28.86,33.24V795.3h4.28v43.36h-1l-28.62-32.83v32.83Z" style="fill:#d72872"/><g style="opacity:0.75"><path d="M251.09,112a43.16,43.16,0,1,1-43.15,43.16A43.21,43.21,0,0,1,251.09,112m0-4a47.16,47.16,0,1,0,47.16,47.16A47.15,47.15,0,0,0,251.09,108Z" style="fill:#b72770"/></g><path d="M242.91,159.92A16,16,0,0,1,239,147.09a15.62,15.62,0,0,1,5.67-10.25,16.09,16.09,0,0,1,22.48,22.86,15.56,15.56,0,0,1-11.11,5.57,15.92,15.92,0,0,1-11.79-4l-.11.16a4.43,4.43,0,0,0-.54,3.71.28.28,0,0,1-.08.31l-8.83,8.82a3.4,3.4,0,1,1-4.83-4.78l4-4,4.77-4.78a.34.34,0,0,1,.38-.1,4.42,4.42,0,0,0,3.69-.56Zm24.35-10.69a12.3,12.3,0,1,0-12.3,12.3A12.31,12.31,0,0,0,267.26,149.23Z" style="fill:#e8e8e8"/><path d="M244.73,149a10.24,10.24,0,0,1,8.41-9.8,14.42,14.42,0,0,1,1.74-.16,1.45,1.45,0,0,1,1.55,1.45,1.48,1.48,0,0,1-1.54,1.47,7.21,7.21,0,0,0-6.44,4,7.08,7.08,0,0,0-.81,3.29,1.46,1.46,0,0,1-2.91.11C244.72,149.18,244.73,149.07,244.73,149Z" style="fill:#e8e8e8"/><g style="opacity:0.75"><path d="M378.05,252.57a43.16,43.16,0,1,1-43.16,43.16,43.21,43.21,0,0,1,43.16-43.16m0-4a47.16,47.16,0,1,0,47.16,47.16,47.17,47.17,0,0,0-47.16-47.16Z" style="fill:#b72779"/></g><path d="M388.93,280.08h7.81a1.2,1.2,0,0,1,1.28,1.28v8.7a1.22,1.22,0,0,1-1.39,1.36h-7.71c0,.27,0,.52,0,.77,0,8,0,16,0,24a4.46,4.46,0,0,1-4.56,4.57c-5.25-.05-10.5,0-15.75,0a4.24,4.24,0,0,1-4.19-2.95,4.15,4.15,0,0,1-.22-1.35q0-20.7,0-41.38a4.3,4.3,0,0,1,4.41-4.42c5.33,0,10.65,0,16,0a4.08,4.08,0,0,1,3.9,2.47,5,5,0,0,1,.4,1.88c.06,1.5,0,3,0,4.52C388.89,279.71,388.91,279.86,388.93,280.08Zm-6.43,11.35h-1.88c-1,0-1.42-.44-1.42-1.43v-8.57a1.26,1.26,0,0,1,1.4-1.37h6.51l.54,0v-3.13c0-.66-.11-.77-.77-.77H366.19c-.67,0-.77.1-.77.78v37.62c0,.67.12.78.77.78h20.69c.67,0,.77-.11.77-.77V292a1.92,1.92,0,0,1,0-.24c0-.23-.07-.33-.32-.34a2.81,2.81,0,0,0-2.37.68,11.9,11.9,0,0,1-1.43,1.08l-1.42,1ZM374.8,318a1.68,1.68,0,0,0,1.73,1.79,1.75,1.75,0,1,0,0-3.5A1.69,1.69,0,0,0,374.8,318Zm1.71-44.05c.65,0,1.3,0,1.95,0,.13,0,.25-.16.37-.24-.11-.08-.23-.22-.35-.23-1.29,0-2.59,0-3.88,0-.12,0-.24.14-.36.22.13.08.25.23.38.24C375.25,273.93,375.88,273.92,376.51,273.92Zm-2.88-.27c-.27-.16-.44-.35-.57-.32s-.27.25-.4.38c.15.13.29.33.45.35S373.39,273.85,373.63,273.65Z" style="fill:#e8e8e8"/><g style="opacity:0.75"><path d="M455.13,434.09A43.16,43.16,0,1,1,412,477.25a43.21,43.21,0,0,1,43.16-43.16m0-4a47.16,47.16,0,1,0,47.16,47.16,47.16,47.16,0,0,0-47.16-47.16Z" style="fill:#b62781"/></g><path d="M442.32,490.06v-6.32l-.59,0c-1.57,0-3.16,0-4.73-.08a4.62,4.62,0,0,1-4.22-4.51c0-5.41,0-10.82,0-16.23a4.52,4.52,0,0,1,1-2.85,4.73,4.73,0,0,1,3.93-1.91h6.16c5.25,0,10.51,0,15.77,0a4.92,4.92,0,0,1,4.13,1.89,4.26,4.26,0,0,1,1,2.66q0,7.62,0,15.24a9,9,0,0,1-.16,2.2,4.78,4.78,0,0,1-4.85,3.59c-2.79,0-5.59,0-8.38,0a1.41,1.41,0,0,0-.82.27c-2.61,1.93-5.2,3.88-7.8,5.82Zm3.19-6.4c.19-.13.28-.18.36-.25,1.18-.87,2.35-1.76,3.54-2.62a1.55,1.55,0,0,1,.81-.28c3.11,0,6.22,0,9.33,0,1.4,0,2-.55,2-1.93V463.09a1.6,1.6,0,0,0-1.79-1.77h-22a1.6,1.6,0,0,0-1.8,1.77v15.52c0,1.3.58,1.89,1.87,1.89h7.69Z" style="fill:#e8e8e8"/><path d="M467.93,499.66l-2.66-2c-1.83-1.37-3.65-2.75-5.49-4.11a1.48,1.48,0,0,0-.81-.27c-2.82,0-5.65,0-8.48,0a4.76,4.76,0,0,1-4-2c0-.06-.08-.13-.14-.22l2.55-1.91c.5.93,1.36.93,2.25.93q4.49,0,8.95,0a1.35,1.35,0,0,1,.73.24c1.17.86,2.32,1.74,3.48,2.61.12.09.26.17.44.29V490.1l.53,0h7.2c1.25,0,1.85-.57,1.86-1.8V472.61a1.54,1.54,0,0,0-1.68-1.68h-4.69v-3.19c1.65,0,3.27-.05,4.89,0a5.24,5.24,0,0,1,2,.51,4.35,4.35,0,0,1,2.61,4c0,5.07,0,10.13,0,15.2a9.37,9.37,0,0,1-.16,2.25,4.75,4.75,0,0,1-4.7,3.59c-1.54,0-3.09,0-4.7,0Z" style="fill:#e8e8e8"/><path d="M468,474.12h3.15v3.15H468Z" style="fill:#e8e8e8"/><path d="M467.93,483.67v-3.13h3.17v3.13Z" style="fill:#e8e8e8"/><path d="M458.31,464.55v3.14H439.16v-3.14Z" style="fill:#e8e8e8"/><path d="M439.15,474.07V471h12.74v3.11Z" style="fill:#e8e8e8"/><g style="opacity:0.75"><path d="M485.75,637.33a43.16,43.16,0,1,1-43.16,43.16,43.21,43.21,0,0,1,43.16-43.16m0-4a47.16,47.16,0,1,0,47.16,47.16,47.16,47.16,0,0,0-47.16-47.16Z" style="fill:#b6288a"/></g><path d="M485.75,697.81H467.52a2.89,2.89,0,0,1-2.9-1.88,3.87,3.87,0,0,1-.21-1.31c0-3.73,0-7.47,0-11.21V666.2a3,3,0,0,1,2.35-3,4,4,0,0,1,.77-.07h36.16a4.85,4.85,0,0,1,1.27.13,2.91,2.91,0,0,1,2.15,2.88V694.7a3,3,0,0,1-3.09,3.11Zm18.73-13,.06,0v-17.4a1.47,1.47,0,0,0-1.57-1.57H468.56a1.61,1.61,0,0,0-1.09.36,1.54,1.54,0,0,0-.51,1.23v17.92c0,.06,0,.13,0,.24l.62-.47,11.18-8.45.11-.08a1.58,1.58,0,0,1,2.31.21l9.64,9.46.71.69.43-.41,6-5.63a1.68,1.68,0,0,1,2.48,0l2.61,2.55Zm-8,10.43,0-.07-16.74-15.88-.22.16-12.44,9.39a.44.44,0,0,0-.2.39c0,1.47,0,2.94,0,4.41a1.46,1.46,0,0,0,1.59,1.6h28Zm-2.89-6.52,0,.06c2.2,2.12,4.39,4.23,6.6,6.34a.39.39,0,0,0,.28.11c.84,0,1.69,0,2.53,0a1.42,1.42,0,0,0,1.46-1.45c0-1.76,0-3.51,0-5.26a.4.4,0,0,0-.12-.27l-3.82-3.58-1.41-1.31Z" style="fill:#e8e8e8"/><path d="M493.16,669.47A4.21,4.21,0,1,1,489,673.7,4.2,4.2,0,0,1,493.16,669.47Zm0,6.46a2.26,2.26,0,0,0,.08-4.51,2.26,2.26,0,1,0-.08,4.51Z" style="fill:#e8e8e8"/><g style="opacity:0.75"><path d="M455.13,837.31a40.27,40.27,0,1,1-40.26,40.26,40.3,40.3,0,0,1,40.26-40.26m0-4a44.27,44.27,0,1,0,44.26,44.26,44.26,44.26,0,0,0-44.26-44.26Z" style="fill:#b62892"/></g><path d="M464.86,860c.33,0,.66.08,1,.14a8.18,8.18,0,0,1,4.64,13.35,7.79,7.79,0,0,1-6.09,2.77H451.09c-1.87,0-3.73,0-5.6,0a7.93,7.93,0,0,1-7.58-6.66c0-.26-.07-.51-.11-.76v-1.35c0-.27.07-.54.12-.81a8,8,0,0,1,6.46-6.52l1-.14Zm-9.74,2.18h-9.25a5.67,5.67,0,0,0-4.87,2.51,6,6,0,0,0-.93,4.63,5.78,5.78,0,0,0,5,4.71,18,18,0,0,0,1.94,0h17.38a5.52,5.52,0,0,0,2.41-.5,6,6,0,0,0-2.43-11.42Z" style="fill:#e8e8e8"/><path d="M437.8,886.37c.05-.34.08-.68.16-1a7.87,7.87,0,0,1,6-6.24,9.63,9.63,0,0,1,2.46-.21h11.16c2.38,0,4.76,0,7.14,0a7.94,7.94,0,0,1,7.55,6.46,8.17,8.17,0,0,1-.71,5.37,7.78,7.78,0,0,1-6.79,4.38c-1.13.07-2.26,0-3.39,0H445.9a7.86,7.86,0,0,1-5.94-2.53,7.74,7.74,0,0,1-2.12-4.74s0-.1,0-.15ZM455.12,893h9.16a5.74,5.74,0,0,0,5.24-3,6.11,6.11,0,0,0,.66-4.21,5.82,5.82,0,0,0-5.49-4.74c-1.58,0-3.16,0-4.75,0h-14a6,6,0,0,0-4.77,9.63A5.76,5.76,0,0,0,446,893Z" style="fill:#e8e8e8"/><path d="M451,867.9a4.71,4.71,0,1,1-4.71-4.69A4.71,4.71,0,0,1,451,867.9Zm-2.16,0a2.55,2.55,0,1,0-2.55,2.53A2.55,2.55,0,0,0,448.82,867.93Z" style="fill:#e8e8e8"/><path d="M462.24,863.77a8.22,8.22,0,0,1,2.27.16,5.21,5.21,0,0,1,4,3.9,6.23,6.23,0,0,1,.13,1.3.53.53,0,0,1-.54.59.54.54,0,0,1-.54-.59,3.84,3.84,0,0,0-.47-2.08,4.17,4.17,0,0,0-3.11-2.12,14.88,14.88,0,0,0-1.77-.08h-1.3a.54.54,0,1,1,0-1.08Z" style="fill:#e8e8e8"/><path d="M458.15,864.85h-.54a.54.54,0,0,1-.52-.54.53.53,0,0,1,.51-.54h1.14a.53.53,0,0,1,.51.55.54.54,0,0,1-.53.53Z" style="fill:#e8e8e8"/><path d="M468.36,886.86a4.71,4.71,0,1,1-4.68-4.71A4.71,4.71,0,0,1,468.36,886.86Zm-7.24,0a2.54,2.54,0,1,0,2.53-2.54A2.53,2.53,0,0,0,461.12,886.86Z" style="fill:#e8e8e8"/><path d="M446.5,882.54h.23a.53.53,0,0,1,.55.54.53.53,0,0,1-.55.54A4.28,4.28,0,0,0,445,884a4.2,4.2,0,0,0-1.86,1.65.6.6,0,0,1-.57.36.54.54,0,0,1-.41-.83,5.23,5.23,0,0,1,1.26-1.47A5.37,5.37,0,0,1,446.5,882.54Z" style="fill:#e8e8e8"/><path d="M442.67,887.87a.55.55,0,0,1-.51.62.56.56,0,0,1-.57-.57c0-.18,0-.35,0-.52a.53.53,0,0,1,.48-.61.61.61,0,0,1,.62.6Z" style="fill:#e8e8e8"/><g style="opacity:0.75"><path d="M378.21,1008.9A40.23,40.23,0,1,1,338,1049.13a40.3,40.3,0,0,1,40.26-40.23m0-4a44.23,44.23,0,1,0,44.27,44.23,44.25,44.25,0,0,0-44.27-44.23Z" style="fill:#b6289a"/></g><path d="M397.05,1043.49a1,1,0,0,1-.1.3c-.21.35-.43.7-.65,1l-1.22,1.81a6.49,6.49,0,0,0-.36.55.48.48,0,0,0,0,.35c.35.88.72,1.75,1.09,2.63a1.48,1.48,0,0,0,.2.42.59.59,0,0,0,.35.2c.76.16,1.53.3,2.29.44l1.44.26a.48.48,0,0,1,.45.52v4.82a.44.44,0,0,1-.38.5c-.74.16-1.49.3-2.24.44-.51.09-1,.19-1.52.26s-.49.41-.61.69c-.33.76-.62,1.55-.93,2.32,0,.06-.1.12-.1.18a.83.83,0,0,0,0,.47c.36.57.75,1.12,1.13,1.68s.63,1,1,1.49.21.66-.11,1c-.68.69-1.36,1.37-2,2l-1.26,1.24a.42.42,0,0,1-.58,0c-1.06-.68-2.13-1.35-3.17-2.06a.71.71,0,0,0-.82-.07c-.75.34-1.52.63-2.28.94a3.38,3.38,0,0,0-.51.24c-.28.17-.27.49-.32.76-.15.75-.28,1.51-.42,2.27-.06.35-.09.71-.18,1s-.2.48-.65.48h-4.69a.57.57,0,0,1-.56-.5l-.36-2c-.1-.53-.2-1.06-.29-1.6a.53.53,0,0,0-.36-.49c-.75-.29-1.49-.63-2.24-.94a5.62,5.62,0,0,0-.72-.27.42.42,0,0,0-.31,0l-2.72,1.79a4.83,4.83,0,0,1-.72.45.62.62,0,0,1-.46,0,1.78,1.78,0,0,1-.42-.36c-1-1-2-2-3-3-.38-.38-.39-.52-.09-1,.65-1,1.3-2,2-3,.26-.38.09-.69,0-1s-.36-.87-.53-1.3-.32-.79-.5-1.18a.63.63,0,0,0-.5-.35l-3.53-.64c-.47-.09-.56-.22-.56-.69v-4.56c0-.44.17-.61.61-.68s1-.18,1.56-.29c.3-.07.35-.22.27-.51a4.58,4.58,0,0,0-.15-.64.6.6,0,0,0-.24-.35c-.61-.28-1.23-.56-1.87-.78-.15-.06-.41.1-.58.21-.65.43-1.29.88-1.93,1.33a.42.42,0,0,1-.54,0s-.1-.06-.13-.09l-2.44-2.45a.45.45,0,0,1,0-.61l1.49-2.14a.4.4,0,0,0,0-.47c-.26-.54-.48-1.1-.71-1.66a.47.47,0,0,0-.42-.3c-.83-.13-1.66-.28-2.49-.43a.47.47,0,0,1-.41-.52v-3.29c0-.32.09-.45.4-.52l2.14-.43a2.22,2.22,0,0,0,.59-.15.83.83,0,0,0,.27-.38c.23-.53.44-1.06.64-1.6a.52.52,0,0,0,0-.39c-.49-.73-1-1.45-1.51-2.16a.46.46,0,0,1,0-.63l2.41-2.41a.54.54,0,0,1,.75-.06c.68.47,1.36.93,2,1.41a.54.54,0,0,0,.57.07l1.58-.67a.52.52,0,0,0,.36-.44c.14-.8.31-1.6.46-2.4a.68.68,0,0,1,.69-.51l2.64,0,.4,0a.62.62,0,0,1,.73.53c.12.68.23,1.36.31,2a.83.83,0,0,0,.6.83c.52.18,1,.43,1.53.62a.5.5,0,0,0,.39-.07c.54-.36,1.06-.74,1.59-1.11l.45-.29c.36-.23.55-.23.85.06s.67.67,1,1l.88.88c.16.17.33.33.49.52a.51.51,0,0,1,0,.64c-.23.34-.47.67-.71,1s-.53.73-.76,1.12a.55.55,0,0,0,0,.42c.22.59.44,1.17.7,1.73a.7.7,0,0,0,.48.3c.23,0,.28-.18.31-.37s0-.21.06-.32a.59.59,0,0,1,.67-.62c1,0,2,0,2.93,0h1.63a.61.61,0,0,1,.71.56c.11.49.19,1,.28,1.46.13.71.26,1.41.37,2.12a.58.58,0,0,0,.37.49l2.24.91a2,2,0,0,1,.22.08,1,1,0,0,0,1.24-.11c.82-.57,1.67-1.1,2.51-1.65l.33-.23a.52.52,0,0,1,.78.07l2.31,2.3c.34.34.69.68,1,1A2.17,2.17,0,0,1,397.05,1043.49Zm-25.69-2.78a1.37,1.37,0,0,0-.23.17l-2.49,2.48a.33.33,0,0,0-.06.49l2,3a.72.72,0,0,1,.08.71l-.48,1.18c-.33.8-.68,1.6-1,2.41a.7.7,0,0,1-.61.47c-.6.09-1.19.2-1.78.31s-1.11.23-1.67.31c-.25,0-.35.14-.35.38,0,1.18,0,2.37,0,3.56a.3.3,0,0,0,.27.34l1.56.29c.67.12,1.35.22,2,.36a.69.69,0,0,1,.47.29,10,10,0,0,1,.5,1.17c.19.47.38.94.58,1.41s.32.74.48,1.12a.74.74,0,0,1-.09.78c-.18.24-.34.5-.5.76-.5.74-1,1.49-1.49,2.24a.34.34,0,0,0,0,.51c.76.74,1.5,1.5,2.26,2.25.43.43.43.43.95.1l.05,0,2.57-1.7a.89.89,0,0,1,1-.14c.59.3,1.23.51,1.84.76l1.58.65a.79.79,0,0,1,.53.69c.08.57.2,1.14.3,1.7s.21,1,.28,1.57.11.45.48.45h3.4c.33,0,.41-.08.46-.41s.11-.65.16-1c.13-.71.26-1.43.38-2.15.07-.4.17-.75.61-.9s.95-.37,1.42-.56c.74-.3,1.47-.62,2.22-.91a.56.56,0,0,1,.38,0c.35.2.69.43,1,.65l2.28,1.52a.24.24,0,0,0,.35,0l2.63-2.64a.28.28,0,0,0,.06-.24c-.14-.24-.3-.46-.46-.69-.58-.89-1.17-1.78-1.74-2.67a.48.48,0,0,1,0-.37,6,6,0,0,1,.27-.7c.39-.94.79-1.88,1.15-2.83a1,1,0,0,1,.85-.72l.29-.05,3-.54a.37.37,0,0,0,.34-.42c0-1,0-2.07,0-3.11,0-.6.15-.75-.64-.8h-.06c-1-.2-2-.41-3-.57a.8.8,0,0,1-.71-.54c-.43-1.07-.87-2.14-1.31-3.21-.15-.36-.32-.68,0-1.1.71-1,1.36-2,2-3a.25.25,0,0,0,0-.37l-1.11-1.08-1.47-1.49a.33.33,0,0,0-.48,0c-.28.2-.58.38-.86.58l-1.87,1.23c-.31.21-.62.48-1,.26l-.23-.13c-1.09-.44-2.17-.9-3.26-1.32a.77.77,0,0,1-.54-.65c0-.28-.08-.56-.13-.84-.15-.85-.31-1.7-.46-2.54a.38.38,0,0,0-.42-.38h-3.51c-.3,0-.36.08-.4.38-.09.56-.2,1.12-.3,1.68s-.2,1.1-.29,1.65a.74.74,0,0,1-.44.67l-3.64,1.49a.66.66,0,0,1-.7-.08c-.27-.2-.56-.37-.85-.56l-2.17-1.44Zm-7.47-.65a4.77,4.77,0,0,1,.48-2.13,4.71,4.71,0,0,1,2.82-2.52,4.81,4.81,0,0,1,3.63.16,4.75,4.75,0,0,1,2.48,2.45,5.12,5.12,0,0,1,.4,2.76.64.64,0,0,0,.2.44,4.41,4.41,0,0,0,.64.42c.3.19.55.41,1,.22.88-.39,1.79-.73,2.67-1.11a.61.61,0,0,0,.37-.37,13.14,13.14,0,0,0,.24-1.42c0-.16.1-.39,0-.48s-.32-.12-.49-.16-.61-.18-.7-.56a3.66,3.66,0,0,0-.18-.46c-.26-.62-.54-1.22-.77-1.85a.81.81,0,0,1,0-.63c.42-.68.9-1.34,1.37-2,.11-.16.13-.28,0-.42-.51-.51-1-1-1.53-1.54a.34.34,0,0,0-.5,0l-2,1.37a.54.54,0,0,1-.56,0c-.79-.33-1.57-.68-2.36-1a.71.71,0,0,1-.54-.61c-.11-.72-.22-1.44-.32-2.16,0-.2-.09-.34-.29-.34h-2.23a.28.28,0,0,0-.31.26c-.14.79-.28,1.58-.45,2.36a.71.71,0,0,1-.31.4,3.55,3.55,0,0,1-.63.28l-1.9.78a.6.6,0,0,1-.63,0c-.64-.46-1.31-.91-2-1.37a.3.3,0,0,0-.43,0c-.51.51-1,1-1.52,1.54-.17.17-.16.29,0,.48.47.66.93,1.32,1.37,2a.61.61,0,0,1,0,.46c-.32.82-.64,1.64-1,2.45a.93.93,0,0,1-.36.42,2.92,2.92,0,0,1-.72.18l-1.76.32a.33.33,0,0,0-.29.36c0,.7,0,1.41,0,2.11a.28.28,0,0,0,.26.31l.55.09c.55.09,1.1.21,1.65.28a.72.72,0,0,1,.68.5c.32.8.64,1.6,1,2.4a.53.53,0,0,1-.06.59c-.46.65-.9,1.3-1.36,1.94-.12.18-.13.29.05.45l1.46,1.46c.21.22.32.25.56.08l1.71-1.22c.29-.2.57-.36.91-.1h.05c.78.31,1.56.61,2.32,1a.71.71,0,0,1,.36.42,10.6,10.6,0,0,1,.24,1.25c0,.26.18.36.43.3a1.15,1.15,0,0,1,.36-.07.45.45,0,0,0,.48-.34c.4-1,.78-1.91,1.18-2.86a.54.54,0,0,0-.08-.55c-.35-.53-.68-1.06-1-1.57-.16-.22-.25-.53-.61-.58a4.62,4.62,0,0,1-2.65-1.38A4.78,4.78,0,0,1,363.89,1040.06Zm.91-.22a4.44,4.44,0,0,0,.36,1.86,3.37,3.37,0,0,0,.78,1.12,12.93,12.93,0,0,0,1.11.84c.15.1.29,0,.33-.16a.68.68,0,0,1,.14-.31c.23-.26.48-.51.73-.77l1.55-1.54,1.13-1.11a.46.46,0,0,1,.61-.06c.28.18.56.36.85.53.09.06.26.12.31.07a.4.4,0,0,0,.12-.32,4.32,4.32,0,0,0-.57-1.94,4,4,0,0,0-2.41-1.84,3.87,3.87,0,0,0-3.4.64A3.92,3.92,0,0,0,364.8,1039.84Z" style="fill:#e8e8e8"/><path d="M382.18,1060.82a6.4,6.4,0,1,1,6.43-6.26A6.38,6.38,0,0,1,382.18,1060.82Zm5.51-6.49a5.49,5.49,0,1,0-11,.34,5.45,5.45,0,0,0,5.33,5.25A5.52,5.52,0,0,0,387.69,1054.33Z" style="fill:#e8e8e8"/><g style="opacity:0.75"><path d="M251.08,1163.15a38.31,38.31,0,1,1-38.3,38.3,38.34,38.34,0,0,1,38.3-38.3m0-4a42.31,42.31,0,1,0,42.31,42.3,42.3,42.3,0,0,0-42.31-42.3Z" style="fill:#b528a3"/></g><path d="M269.76,1195v9.12a15.67,15.67,0,0,1-1.18,6.16,18.34,18.34,0,0,1-3.32,5.11,30,30,0,0,1-7.89,6.05,43.16,43.16,0,0,1-5.53,2.54,1.89,1.89,0,0,1-1.44,0,37.57,37.57,0,0,1-11.28-6.45,20.26,20.26,0,0,1-5.05-6.22,13.89,13.89,0,0,1-1.62-6.24q0-9.78,0-19.57a1.07,1.07,0,0,1,1.09-1.23c1.56-.22,3.13-.37,4.67-.67a39.1,39.1,0,0,0,9.83-3.4c.73-.36,1.47-.71,2.17-1.14a1.64,1.64,0,0,1,1.86,0,42.93,42.93,0,0,0,6.19,2.88,37,37,0,0,0,6.35,1.78c1.23.23,2.48.34,3.72.5l.45,0a1,1,0,0,1,1,1.16c0,.32,0,.65,0,1Zm-35.34,1c0,2.75,0,5.49,0,8.23a13.85,13.85,0,0,0,3.41,9.17,24.9,24.9,0,0,0,5.49,4.8,36.85,36.85,0,0,0,7.44,3.76,1,1,0,0,0,.66,0,36.76,36.76,0,0,0,7.4-3.75,23.84,23.84,0,0,0,6.07-5.52,13.61,13.61,0,0,0,2.85-8.36q0-8.86,0-17.72c0-.27-.06-.39-.36-.41a35,35,0,0,1-5.77-1,44.32,44.32,0,0,1-10.05-4,.89.89,0,0,0-.93,0c-1.64.8-3.28,1.63-5,2.33a37.58,37.58,0,0,1-10.83,2.74c-.34,0-.43.14-.43.47C234.42,1189.75,234.42,1192.87,234.42,1196Z" style="fill:#e8e8e8"/><path d="M238.48,1189.76v.38c0,4.76,0,9.51,0,14.26a9.44,9.44,0,0,0,1.77,5.46,19.5,19.5,0,0,0,5.51,5.08,32.08,32.08,0,0,0,5.12,2.7.61.61,0,0,0,.44,0c.77-.34,1.53-.7,2.29-1.06a1.07,1.07,0,0,1,1.28.09,1,1,0,0,1-.28,1.67c-1,.5-2,1-3.07,1.4a1.35,1.35,0,0,1-.93,0,34,34,0,0,1-7.68-4.32,19.77,19.77,0,0,1-4.22-4.2,11.82,11.82,0,0,1-2.27-7.06c0-5,0-10,0-15,0-.84.27-1.16,1.11-1.3a41.8,41.8,0,0,0,8.07-2.23c1.65-.65,3.25-1.41,4.85-2.15a1.32,1.32,0,0,1,1.21,0,46.68,46.68,0,0,0,9.77,3.7c1.08.27,2.18.47,3.27.69a1.06,1.06,0,0,1,1,1.17c0,5.17,0,10.35,0,15.52a11.67,11.67,0,0,1-2.88,7.44c-.43.52-.91,1-1.39,1.5a.91.91,0,0,1-1,.15,1,1,0,0,1-.58-.81,1.19,1.19,0,0,1,.38-.93c.48-.54,1-1.06,1.4-1.63a9.39,9.39,0,0,0,2.08-5.77c0-4.8,0-9.6,0-14.4,0-.31-.1-.4-.38-.46a46.35,46.35,0,0,1-11.74-4,1,1,0,0,0-1,0,46.4,46.4,0,0,1-11.74,4Z" style="fill:#e8e8e8"/><path d="M251.07,1211.67h-3.32c-.89,0-1.31-.48-1.18-1.35.36-2.48.74-5,1.12-7.42a.47.47,0,0,0-.2-.5,6,6,0,0,1,2.3-10.76,6,6,0,0,1,7.25,4.94,5.84,5.84,0,0,1-2.39,5.83.44.44,0,0,0-.18.48c.38,2.47.76,4.94,1.12,7.42a1.05,1.05,0,0,1-1.17,1.36Zm2.39-2v-.22c-.36-2.3-.71-4.6-1.07-6.9a1.15,1.15,0,0,1,.72-1.48,4,4,0,0,0-3.38-7.28,4.08,4.08,0,0,0-2.62,4.49,4,4,0,0,0,2,2.83,1.11,1.11,0,0,1,.67,1.31c-.24,1.54-.5,3.08-.74,4.62-.13.86-.25,1.73-.38,2.63Z" style="fill:#e8e8e8"/><path d="M257.62,1216.36a1,1,0,0,1-1-1,1.19,1.19,0,0,1,1.09-1.06,1,1,0,0,1,1,1A1.17,1.17,0,0,1,257.62,1216.36Z" style="fill:#e8e8e8"/><g style="opacity:0.75"><path d="M76.67,1281.42A37.62,37.62,0,1,1,39.06,1319a37.66,37.66,0,0,1,37.61-37.62m0-4A41.62,41.62,0,1,0,118.29,1319a41.62,41.62,0,0,0-41.62-41.62Z" style="fill:#b528ab"/></g><path d="M58.85,1318.79a2.36,2.36,0,0,1,.65-1.44,2.17,2.17,0,0,1,1.59-.68h4.28a2.07,2.07,0,0,1,1.48.62.42.42,0,0,0,.37.11,2.05,2.05,0,0,0,1.11-.62,9.71,9.71,0,0,0,1.4-2,35.15,35.15,0,0,0,2-4.26,6.46,6.46,0,0,1,1.91-2.5c.38-.32.75-.65,1.11-1a4.29,4.29,0,0,0,1.11-2,14,14,0,0,0,.57-2.88c.08-.73.15-1.47.23-2.21a1.08,1.08,0,0,1,.54-.84,2.35,2.35,0,0,1,1.56-.33,4.86,4.86,0,0,1,4.15,3.66,8.31,8.31,0,0,1-.08,4.37,13.12,13.12,0,0,1-1.06,2.57,14.7,14.7,0,0,0-1.13,2.61c0,.14,0,.29-.09.45H81c1.64-.09,3.29,0,4.93,0,.82,0,1.63.12,2.45.19a3.94,3.94,0,0,1,2.85,1.83,6.32,6.32,0,0,1,1,2.19,1.78,1.78,0,0,1-.19,1.2,10.37,10.37,0,0,1-.54.91l-.28.45a.29.29,0,0,0,.07.4,2.7,2.7,0,0,1,.36,3.52,6.15,6.15,0,0,1-.7.83.3.3,0,0,0-.1.35c.12.31.25.61.36.93a5.63,5.63,0,0,1,.28,1A2.07,2.07,0,0,1,91,1328c-.32.38-.66.72-1,1.08l-.32.39a.8.8,0,0,0-.16.69,2.91,2.91,0,0,1-.64,2.35,7.69,7.69,0,0,1-1.52,1.38,5.87,5.87,0,0,1-2.79,1,21.82,21.82,0,0,1-3.43.11c-1.25,0-2.5-.06-3.76-.11a38,38,0,0,1-5.82-.67c-1.42-.29-2.85-.54-4.27-.81a.2.2,0,0,0-.23.08,2.2,2.2,0,0,1-1.71.79h-4.2a2.23,2.23,0,0,1-2.23-2l0-.1Zm8.79.4v.07c0,2.16,0,4.31,0,6.47,0,1.91,0,3.82,0,5.73,0,.13,0,.18.18.21,1.16.2,2.33.4,3.48.65A32.55,32.55,0,0,0,76,1333c1.19.08,2.39.12,3.59.16a31,31,0,0,0,4.62-.08,3.75,3.75,0,0,0,2-.69,6.8,6.8,0,0,0,1.19-1.08,1.11,1.11,0,0,0,.22-.86,2.54,2.54,0,0,1,.43-2,13.39,13.39,0,0,1,1.1-1.29c.54-.6.52-.5.23-1.28a9.22,9.22,0,0,1-.43-1.25,2,2,0,0,1,.61-2,3.48,3.48,0,0,0,.54-.72.72.72,0,0,0-.16-1,2.08,2.08,0,0,1-.38-2.73c.21-.39.45-.76.67-1.15a.3.3,0,0,0,0-.2,4.16,4.16,0,0,0-1.38-2.1,1.26,1.26,0,0,0-.47-.25,10.61,10.61,0,0,0-2.39-.26c-1.61,0-3.23-.1-4.85,0a5.24,5.24,0,0,1-1.76-.16.92.92,0,0,1-.7-.75,4.19,4.19,0,0,1,.1-2,13.81,13.81,0,0,1,1.24-2.78,8.05,8.05,0,0,0,1.11-5.21,3.28,3.28,0,0,0-1.68-2.47,2.38,2.38,0,0,0-1.14-.32,2.08,2.08,0,0,0,0,.23c-.07.6-.12,1.2-.19,1.8a15.44,15.44,0,0,1-.74,3.35,5.79,5.79,0,0,1-1.5,2.43l-1.36,1.21a3.45,3.45,0,0,0-.91,1c-.33.71-.64,1.42-1,2.13a22.09,22.09,0,0,1-2.45,4.47,5.06,5.06,0,0,1-1.66,1.53A9.92,9.92,0,0,1,67.64,1319.19Zm-1.89,6.27V1319c0-.41-.13-.55-.54-.55h-4c-.39,0-.54.15-.54.53v12.89c0,.41.16.57.56.57h4c.44,0,.58-.14.58-.57Z" style="fill:#e8e8e8"/><g style="opacity:0.25"><line x1="80.7" y1="115.72" x2="80.7" y2="121.72" style="fill:none;stroke:#b72768;stroke-miterlimit:10;stroke-width:4px"/><line x1="80.7" y1="133.72" x2="80.7" y2="487.66" style="fill:none;stroke:#b72768;stroke-miterlimit:10;stroke-width:4px;stroke-dasharray:11.997879981994629,11.997879981994629"/><line x1="80.7" y1="493.66" x2="80.7" y2="499.66" style="fill:none;stroke:#b72768;stroke-miterlimit:10;stroke-width:4px"/></g><polyline points="249.97 216.78 249.97 559.53 158.85 559.53" style="fill:none;stroke:#b72768;stroke-miterlimit:10;stroke-width:4px;stroke-dasharray:12;opacity:0.25"/><polyline points="378.05 362.15 378.05 597.12 198.82 597.12" style="fill:none;stroke:#b72768;stroke-miterlimit:10;stroke-width:4px;stroke-dasharray:12;opacity:0.25"/><polyline points="455.12 530 455.12 625.84 219.49 625.84" style="fill:none;stroke:#b72768;stroke-miterlimit:10;stroke-width:4px;stroke-dasharray:12;opacity:0.25"/><line x1="422.48" y1="680.49" x2="219.49" y2="680.49" style="fill:none;stroke:#b72768;stroke-miterlimit:10;stroke-width:4px;stroke-dasharray:12;opacity:0.25"/><polyline points="455.13 817.52 455.13 786.29 337.3 786.29" style="fill:none;stroke:#b72768;stroke-miterlimit:10;stroke-width:4px;stroke-dasharray:12;opacity:0.25"/><polyline points="320.98 1043.71 277.52 1043.71 277.52 863.77" style="fill:none;stroke:#b72768;stroke-miterlimit:10;stroke-width:4px;stroke-dasharray:12;opacity:0.25"/><polyline points="193.84 1201.45 157.32 1201.45 157.32 863.77" style="fill:none;stroke:#b72768;stroke-miterlimit:10;stroke-width:4px;stroke-dasharray:12;opacity:0.25"/><line x1="75.53" y1="1261.22" x2="75.53" y2="862.14" style="fill:none;stroke:#b72768;stroke-miterlimit:10;stroke-width:4px;stroke-dasharray:12;opacity:0.25"/></g></g></svg>